<svg id="Layer_1" data-name="Layer 1" xmlns="http://www.w3.org/2000/svg" viewBox="0 0 704.98 286.74"><defs><style>.cls-1,.cls-6{font-size:146.44px;}.cls-1,.cls-3,.cls-6{fill:#755010;}.cls-1{font-family:BaronNeueBold, Baron Neue;font-weight:700;}.cls-2{fill:#2d2d2d;}.cls-4{fill:#63400c;}.cls-5{fill:#5ab24b;}.cls-6{font-family:BaronNeueBlack, Baron Neue;}.cls-7{font-family:BaronNeue, Baron Neue;}</style></defs><title>Unwild Planet Logo_Brown</title><text class="cls-1" transform="translate(283.26 251.45)">Lan</text><text class="cls-1" transform="translate(639.38 251.45)">t</text><polygon class="cls-2" points="617.21 196.18 560.49 191.96 554.07 197.53 553.38 196.76 553.38 198.13 560.89 206.58 616.64 211.33 616.64 209.97 615.59 209.82 610.26 202.1 617.21 196.18"/><polygon class="cls-2" points="615.81 196.01 617.21 196.18 617.21 194.82 615.81 196.01"/><path class="cls-3" d="M784.14,647.9V546.14c0-.88-2.11-1.6-4.7-1.6h-8.72c-.33,0-.65,0-1,0-2.13.16-3.73.8-3.73,1.57V647.9Z" transform="translate(-187.51 -396.63)"/><path class="cls-4" d="M771.54,647.9c-.12-7.16-.25-11.82-.43-19q-.09-3.36-.16-6.7c0-1.26-2.12-4.65,1.89-5.31a26.52,26.52,0,0,1,5.3-.14c2,.09,4,.23,6,.36v-5.2l-6.25.11c-2.85.05-4.43.36-5.5-.49s-.77-1.9-1-2.69a23.09,23.09,0,0,1-.59-5.4,18.07,18.07,0,0,1,.06-3.37c.16-1.18,1.11-1.73,4.75-1.87l8.52-.31v-4.56c-.44,0-.86.06-1.3.09-5.85.43-11.14,1.07-11.36-1.63a19.4,19.4,0,0,1,.65-7.44c.23-.82.23-1.6,3-1.75a67.49,67.49,0,0,1,9,.42v-4.56l-11.62-.59c-.62-4.06-1.26-8.12-1.88-12.18-.1-.61-.12-1.3,1.13-1.76a15.84,15.84,0,0,1,5.47-.34c2.37.16,4.63.47,6.9.76v-4.54l-12.68-.62q-.48-4.1-1-8.18c-.15-.14-.31-.27-.45-.41-2-2-1.9-3.88-1.83-5.83-1.33.28-2.21.78-2.21,1.35V647.9Z" transform="translate(-187.51 -396.63)"/><polygon class="cls-2" points="619.85 155.5 559.36 150.7 568.14 159.55 559.67 167.66 620.35 171.37 629.13 165.11 629.03 163.53 619.85 155.5"/><polygon class="cls-2" points="559.6 166.48 559.67 167.66 560.76 166.62 559.6 166.48"/><polygon class="cls-2" points="559.29 149.51 559.36 150.7 560.65 150.89 559.29 149.51"/><polygon class="cls-5" points="628.95 162.34 619.77 154.32 559.29 149.51 568.07 158.36 559.6 166.48 620.27 170.19 629.05 163.92 628.95 162.34"/><polygon class="cls-5" points="617.21 194.82 610.26 200.74 616.64 209.97 560.89 205.22 553.38 196.76 560.49 190.6 617.21 194.82"/><polygon class="cls-2" points="559.32 247.42 558.47 248.84 558.15 247.4 559.32 247.42"/><polygon class="cls-2" points="555.5 232.91 555.17 231.46 556.79 232.98 612.99 228.9 621.13 235.58 621.47 237.06 615.93 243.78 558.47 248.84 563.47 240.41 555.5 232.91"/><polygon class="cls-5" points="620.81 234.13 612.67 227.45 555.17 231.46 563.15 238.96 558.15 247.4 615.6 242.33 621.14 235.61 620.81 234.13"/><rect class="cls-5" x="0.01" y="150.37" width="195.61" height="9.17"/><text class="cls-6" transform="translate(99.08 124.47)">N<tspan class="cls-7" x="108.65" y="0">WiLD</tspan></text><path class="cls-3" d="M430.68,545.54H397.29c-.87,0-1.46.43-1.46.87V646.87a1.34,1.34,0,0,0,1.46,1.17H414a1.33,1.33,0,0,0,1.46-1.17V606.31h15.23s34.71,0,34.71-30.46S430.68,545.54,430.68,545.54Zm1.62,41.73H415.43v-22.7H432v0c4.35.12,13.91,1.2,13.91,11.26C445.91,584.2,437.57,587.27,432.3,587.27Z" transform="translate(-187.51 -396.63)"/><path class="cls-3" d="M432,564.57h-1.32c.35,0,.79,0,1.32,0Z" transform="translate(-187.51 -396.63)"/><path class="cls-3" d="M271.58,418.59H252.39v60.62a28.8,28.8,0,0,1-3.23,11.86c-3.66,6.89-9.51,10.11-18,10.11-8.35,0-14.35-3.37-18.16-10.11a28.5,28.5,0,0,1-3.07-11.71V418.59H190.59a2.94,2.94,0,0,0-3.08,2.63v58.14a53.24,53.24,0,0,0,5.13,20.94c7.32,13.62,21.23,22.26,38.51,22.26,17.72,0,31.2-8.06,38.38-22.11a51.65,51.65,0,0,0,5.12-21.09V421.22A2.84,2.84,0,0,0,271.58,418.59Z" transform="translate(-187.51 -396.63)"/></svg>