<?xml version="1.0" encoding="UTF-8"?>
<svg width="15px" height="12px" viewBox="0 0 15 12" version="1.1" xmlns="http://www.w3.org/2000/svg" xmlns:xlink="http://www.w3.org/1999/xlink">
    <!-- Generator: Sketch 52.5 (67469) - http://www.bohemiancoding.com/sketch -->
    <title>Path</title>
    <desc>Created with Sketch.</desc>
    <g id="Header" stroke="none" stroke-width="1" fill="none" fill-rule="evenodd">
        <g id="2-New-Changes" transform="translate(-405.000000, -1224.000000)" fill="#FFFFFF">
            <g id="III--3rd-Section" transform="translate(0.000000, 757.000000)">
                <g id="Group-18">
                    <g id="2CTA" transform="translate(289.000000, 461.000000)">
                        <path d="M130.193769,11.4395669 L124.984638,6.23031819 C124.835939,6.08161989 124.637753,6 124.426433,6 C124.214878,6 124.016809,6.08173716 123.86811,6.23031819 L123.395161,6.70338519 C123.24658,6.85184896 123.164725,7.05015245 123.164725,7.26159018 C123.164725,7.47291064 123.24658,7.67789852 123.395161,7.82636229 L126.434094,10.8719803 L116.779259,10.8719803 C116.343953,10.8719803 116,11.2127668 116,11.6481901 L116,12.3169807 C116,12.752404 116.343953,13.1275506 116.779259,13.1275506 L126.468572,13.1275506 L123.395278,16.1901728 C123.246697,16.3388711 123.164842,16.5317802 123.164842,16.7432179 C123.164842,16.9544211 123.246697,17.1501446 123.395278,17.2987257 L123.868228,17.7702682 C124.016926,17.9189665 124.214995,18 124.42655,18 C124.63787,18 124.836057,17.917911 124.984755,17.7692127 L130.193886,12.5600813 C130.342936,12.4109139 130.424908,12.2117895 130.424322,12.0001173 C130.424791,11.7877414 130.342936,11.5884997 130.193769,11.4395669 Z" id="Path"></path>
                    </g>
                </g>
            </g>
        </g>
    </g>
</svg>