<?xml version="1.0" encoding="UTF-8"?>
<svg width="15px" height="12px" viewBox="0 0 15 12" version="1.1" xmlns="http://www.w3.org/2000/svg" xmlns:xlink="http://www.w3.org/1999/xlink">
    <!-- Generator: Sketch 52.5 (67469) - http://www.bohemiancoding.com/sketch -->
    <title>Path</title>
    <desc>Created with Sketch.</desc>
    <g id="Header" stroke="none" stroke-width="1" fill="none" fill-rule="evenodd" fill-opacity="0.5">
        <g id="2-New-Changes" transform="translate(-925.000000, -1139.000000)" fill="#36495E">
            <g id="III--3rd-Section" transform="translate(0.000000, 757.000000)">
                <g id="Group-19" transform="translate(716.000000, 260.000000)">
                    <path d="M223.193769,127.439567 L217.984638,122.230318 C217.835939,122.08162 217.637753,122 217.426433,122 C217.214878,122 217.016809,122.081737 216.86811,122.230318 L216.395161,122.703385 C216.24658,122.851849 216.164725,123.050152 216.164725,123.26159 C216.164725,123.472911 216.24658,123.677899 216.395161,123.826362 L219.434094,126.87198 L209.779259,126.87198 C209.343953,126.87198 209,127.212767 209,127.64819 L209,128.316981 C209,128.752404 209.343953,129.127551 209.779259,129.127551 L219.468572,129.127551 L216.395278,132.190173 C216.246697,132.338871 216.164842,132.53178 216.164842,132.743218 C216.164842,132.954421 216.246697,133.150145 216.395278,133.298726 L216.868228,133.770268 C217.016926,133.918966 217.214995,134 217.42655,134 C217.63787,134 217.836057,133.917911 217.984755,133.769213 L223.193886,128.560081 C223.342936,128.410914 223.424908,128.21179 223.424322,128.000117 C223.424791,127.787741 223.342936,127.5885 223.193769,127.439567 Z" id="Path"></path>
                </g>
            </g>
        </g>
    </g>
</svg>