<?xml version="1.0" encoding="UTF-8"?>
<svg width="16px" height="16px" viewBox="0 0 16 16" version="1.1" xmlns="http://www.w3.org/2000/svg" xmlns:xlink="http://www.w3.org/1999/xlink">
    <!-- Generator: Sketch 52.6 (67491) - http://www.bohemiancoding.com/sketch -->
    <title>Path</title>
    <desc>Created with Sketch.</desc>
    <g id="Screens" stroke="none" stroke-width="1" fill="none" fill-rule="evenodd">
        <g id="Register-Doctor" transform="translate(-1234.000000, -114.000000)" fill="#2A3C50">
            <g id="Header">
                <path d="M1249.70558,114.292582 C1249.31547,113.902473 1248.68982,113.902473 1248.29971,114.292582 L1241.99908,120.593214 L1235.69845,114.292582 C1235.30834,113.902473 1234.68269,113.902473 1234.29258,114.292582 C1233.90247,114.682691 1233.90247,115.308338 1234.29258,115.698447 L1240.59321,121.99908 L1234.29258,128.299712 C1233.90247,128.689822 1233.90247,129.315469 1234.29258,129.705578 C1234.48396,129.896952 1234.74158,130 1234.99183,130 C1235.24209,130 1235.49971,129.904313 1235.69109,129.705578 L1241.99172,123.404945 L1248.29235,129.705578 C1248.48373,129.896952 1248.74135,130 1248.9916,130 C1249.24922,130 1249.49948,129.904313 1249.69086,129.705578 C1250.08097,129.315469 1250.08097,128.689822 1249.69086,128.299712 L1243.40495,121.99908 L1249.70558,115.698447 C1250.09569,115.308338 1250.09569,114.682691 1249.70558,114.292582 Z" id="Path"></path>
            </g>
        </g>
    </g>
</svg>