<?xml version="1.0" encoding="UTF-8"?>
<svg width="286px" height="290px" viewBox="0 0 286 290" version="1.1" xmlns="http://www.w3.org/2000/svg" xmlns:xlink="http://www.w3.org/1999/xlink">
    <!-- Generator: Sketch 52.6 (67491) - http://www.bohemiancoding.com/sketch -->
    <title>server</title>
    <desc>Created with Sketch.</desc>
    <g id="Home-Page" stroke="none" stroke-width="1" fill="none" fill-rule="evenodd">
        <g id="Data-Privacy-Page" transform="translate(-903.000000, -1809.000000)">
            <g id="Group-10" transform="translate(0.000000, 1717.000000)">
                <g id="server" transform="translate(903.000000, 92.000000)">
                    <polygon id="Path" fill="#28384C" points="39.3209839 103.220901 250.679016 103.220901 250.679016 113.051147 39.3209839 113.051147"></polygon>
                    <polygon id="Path" fill="#4E5F72" points="39.3209839 0 245.762787 0 245.762787 24.5767212 39.3209839 24.5767212"></polygon>
                    <g id="Group" transform="translate(0.000000, 186.347656)" fill="#E7ECED">
                        <path d="M117.965164,93.8220976 L9.83024611,93.8220976 C4.39849854,93.8220976 0,89.4235991 0,83.9918515 C0,78.5601045 4.39849854,74.161606 9.83024611,74.161606 L117.965164,74.161606 L117.965164,93.8220976 Z" id="Path"></path>
                        <path d="M275.253525,93.8220976 L167.118606,93.8220976 L167.118606,74.161606 L275.253525,74.161606 C280.685273,74.161606 285.08377,78.5601045 285.08377,83.9918515 C285.08377,89.4235991 280.685272,93.8220976 275.253525,93.8220976 Z" id="Path"></path>
                        <polygon id="Path" points="132.71164 0.431442402 152.372131 0.431442402 152.372131 69.2453764 132.71164 69.2453764"></polygon>
                    </g>
                    <path d="M249.448853,108.134918 L35.6349179,108.134918 C26.8135835,108.134918 19.6604922,100.984039 19.6604922,92.1604922 L19.6604922,35.6349179 C19.6604922,26.8135835 26.8135835,19.6604922 35.6349179,19.6604922 L249.448853,19.6604922 C258.2724,19.6604922 265.423279,26.8135835 265.423279,35.6349179 L265.423279,92.1604922 C265.423279,100.984039 258.2724,108.134918 249.448853,108.134918 Z" id="Path" fill="#28384C"></path>
                    <path d="M249.448853,108.134918 L35.6349179,108.134918 C26.8135835,108.134918 19.6604922,115.28801 19.6604922,124.109345 L19.6604922,180.634918 C19.6604922,189.458466 26.8135835,196.609345 35.6349179,196.609345 L202.990265,196.609345 L265.423279,141.451111 L265.423279,124.109345 C265.423279,115.28801 258.2724,108.134918 249.448853,108.134918 Z" id="Path" fill="#4E5F72"></path>
                    <polygon id="Path" fill="#FFFFFF" points="167.118606 39.3209839 245.762787 39.3209839 245.762787 88.4744263 167.118606 88.4744263"></polygon>
                    <path d="M196.609345,68.8139346 L186.779099,68.8139346 C184.066543,68.8139346 181.865082,66.6124727 181.865082,63.8977051 C181.865082,61.1851504 184.066543,58.9836885 186.779099,58.9836885 L196.609345,58.9836885 C199.324112,58.9836885 201.525574,61.1851504 201.525574,63.8977051 C201.525574,66.6124727 199.324112,68.8139346 196.609345,68.8139346 Z" id="Path" fill="#EBBA16"></path>
                    <path d="M226.102295,68.8139346 L216.272049,68.8139346 C213.557281,68.8139346 211.35582,66.6124727 211.35582,63.8977051 C211.35582,61.1851504 213.557281,58.9836885 216.272049,58.9836885 L226.102295,58.9836885 C228.81485,58.9836885 231.016312,61.1851504 231.016312,63.8977051 C231.016312,66.6124727 228.81485,68.8139346 226.102295,68.8139346 Z" id="Path" fill="#DC691D"></path>
                    <path d="M58.9836885,58.9836885 C56.2689209,58.9836885 54.067459,56.7800142 54.067459,54.067459 L54.067459,39.3209839 C54.067459,36.6084287 56.2689209,34.4069673 58.9836885,34.4069673 C61.6962431,34.4069673 63.8977051,36.6084287 63.8977051,39.3209839 L63.8977051,54.067459 C63.8977051,56.7800142 61.6962431,58.9836885 58.9836885,58.9836885 Z" id="Path" fill="#DC691D"></path>
                    <path d="M58.9836885,93.3906552 C56.2689209,93.3906552 54.067459,91.1869815 54.067459,88.4744263 L54.067459,73.7279512 C54.067459,71.015396 56.2689209,68.8139346 58.9836885,68.8139346 C61.6962431,68.8139346 63.8977051,71.015396 63.8977051,73.7279512 L63.8977051,88.4744263 C63.8977051,91.1869815 61.6962431,93.3906552 58.9836885,93.3906552 Z" id="Path" fill="#EBBA16"></path>
                    <path d="M39.3209839,93.3906552 C36.6084287,93.3906552 34.4069673,91.1869815 34.4069673,88.4744263 L34.4069673,39.3209839 C34.4069673,36.6084287 36.6084287,34.4069673 39.3209839,34.4069673 C42.0357515,34.4069673 44.2372129,36.6084287 44.2372129,39.3209839 L44.2372129,88.4744263 C44.2372129,91.1869815 42.0357515,93.3906552 39.3209839,93.3906552 Z" id="Path" fill="#DD352E"></path>
                    <path d="M147.458115,49.1534424 L78.6441802,49.1534424 C75.9316255,49.1534424 73.7279512,46.9497681 73.7279512,44.2372129 C73.7279512,41.5246582 75.9316255,39.3209839 78.6441802,39.3209839 L147.458115,39.3209839 C150.170669,39.3209839 152.372131,41.5246582 152.372131,44.2372129 C152.372131,46.9497681 150.170669,49.1534424 147.458115,49.1534424 Z" id="Path" fill="#23A24D"></path>
                    <path d="M147.458115,88.4744263 L78.6441802,88.4744263 C75.9316255,88.4744263 73.7279512,86.2729643 73.7279512,83.5604097 C73.7279512,80.8456421 75.9316255,78.6441802 78.6441802,78.6441802 L147.458115,78.6441802 C150.170669,78.6441802 152.372131,80.8456421 152.372131,83.5604097 C152.372131,86.2729643 150.170669,88.4744263 147.458115,88.4744263 Z" id="Path" fill="#1081E0"></path>
                    <path d="M88.4744263,68.8139346 L78.6441802,68.8139346 C75.9316255,68.8139346 73.7279512,66.6124727 73.7279512,63.8977051 C73.7279512,61.1851504 75.9316255,58.9836885 78.6441802,58.9836885 L88.4744263,58.9836885 C91.1869815,58.9836885 93.3906552,61.1851504 93.3906552,63.8977051 C93.3906552,66.6124727 91.1869815,68.8139346 88.4744263,68.8139346 Z" id="Path" fill="#75348B"></path>
                    <path d="M147.458115,68.8139346 L137.627869,68.8139346 C134.913101,68.8139346 132.71164,66.6124727 132.71164,63.8977051 C132.71164,61.1851504 134.913101,58.9836885 137.627869,58.9836885 L147.458115,58.9836885 C150.170669,58.9836885 152.372131,61.1851504 152.372131,63.8977051 C152.372131,66.6124727 150.170669,68.8139346 147.458115,68.8139346 Z" id="Path" fill="#57D8AB"></path>
                    <path d="M117.965164,68.8139346 L108.134918,68.8139346 C105.422363,68.8139346 103.220901,66.6124727 103.220901,63.8977051 C103.220901,61.1851504 105.422363,58.9836885 108.134918,58.9836885 L117.965164,58.9836885 C120.679932,58.9836885 122.881394,61.1851504 122.881394,63.8977051 C122.881394,66.6124727 120.679932,68.8139346 117.965164,68.8139346 Z" id="Path" fill="#FC3952"></path>
                    <path d="M176.948853,137.627869 L117.965164,137.627869 C115.252609,137.627869 113.051147,135.424194 113.051147,132.71164 C113.051147,129.999084 115.252609,127.797623 117.965164,127.797623 L176.948853,127.797623 C179.661407,127.797623 181.865082,129.999084 181.865082,132.71164 C181.865082,135.424194 179.661407,137.627869 176.948853,137.627869 Z" id="Path" fill="#CB465F"></path>
                    <path d="M176.948853,176.948853 L117.965164,176.948853 C115.252609,176.948853 113.051147,174.747391 113.051147,172.034836 C113.051147,169.320068 115.252609,167.118606 117.965164,167.118606 L176.948853,167.118606 C179.661407,167.118606 181.865082,169.320068 181.865082,172.034836 C181.865082,174.747391 179.661407,176.948853 176.948853,176.948853 Z" id="Path" fill="#57D8AB"></path>
                    <path d="M127.797623,157.28836 L117.965164,157.28836 C115.252609,157.28836 113.051147,155.086899 113.051147,152.372131 C113.051147,149.659576 115.252609,147.458115 117.965164,147.458115 L127.797623,147.458115 C130.510178,147.458115 132.71164,149.659576 132.71164,152.372131 C132.71164,155.086899 130.510178,157.28836 127.797623,157.28836 Z" id="Path" fill="#ED8A19"></path>
                    <path d="M157.28836,157.28836 L147.458115,157.28836 C144.743347,157.28836 142.541885,155.086899 142.541885,152.372131 C142.541885,149.659576 144.743347,147.458115 147.458115,147.458115 L157.28836,147.458115 C160.000916,147.458115 162.202377,149.659576 162.202377,152.372131 C162.202377,155.086899 160.000916,157.28836 157.28836,157.28836 Z" id="Path" fill="#1081E0"></path>
                    <polygon id="Path" fill="#FFFFFF" points="39.3209839 132.71164 98.3046724 132.71164 98.3046724 172.034836 39.3209839 172.034836"></polygon>
                    <polygon id="Path" fill="#28384C" points="113.051147 250.679016 172.034836 250.679016 172.034836 290 113.051147 290"></polygon>
                    <path d="M78.6441802,157.28836 L58.9836885,157.28836 C56.2689209,157.28836 54.067459,155.086899 54.067459,152.372131 C54.067459,149.659576 56.2689209,147.458115 58.9836885,147.458115 L78.6441802,147.458115 C81.3567354,147.458115 83.5604097,149.659576 83.5604097,152.372131 C83.5604097,155.086899 81.3567354,157.28836 78.6441802,157.28836 Z" id="Path" fill="#23A24D"></path>
                    <path d="M240.846558,235.932541 C276.238098,219.661636 285.08377,191.016083 285.08377,152.372131 L240.846558,127.797623 L196.609345,152.372131 C196.609345,191.016083 205.457229,219.661636 240.846558,235.932541 Z" id="Path" fill="#EBBA16"></path>
                    <path d="M226.10672,201.525574 C224.372101,201.525574 222.695007,200.607376 221.801147,198.983383 C215.67688,187.889786 212.167816,175.616913 211.36467,162.503281 C211.247406,160.536347 212.309418,158.688889 214.075012,157.803879 L233.735504,147.973633 C236.158218,146.754532 239.111938,147.74353 240.33104,150.170669 C241.545715,152.600022 240.563354,155.553741 238.134003,156.766205 L221.442719,165.11406 C222.489243,175.548325 225.502701,185.329895 230.412292,194.230881 C231.724319,196.604919 230.859223,199.598465 228.485184,200.906067 C227.724075,201.328659 226.907654,201.525574 226.10672,201.525574 Z" id="Path" fill="#C19414"></path>
                </g>
            </g>
        </g>
    </g>
</svg>