<?xml version="1.0" encoding="UTF-8"?>
<svg width="348px" height="174px" viewBox="0 0 348 174" version="1.1" xmlns="http://www.w3.org/2000/svg" xmlns:xlink="http://www.w3.org/1999/xlink">
    <!-- Generator: Sketch 52.6 (67491) - http://www.bohemiancoding.com/sketch -->
    <title>Group 14</title>
    <desc>Created with Sketch.</desc>
    <defs>
        <linearGradient x1="49.9777586%" y1="99.9920101%" x2="49.9777586%" y2="-0.0136237968%" id="linearGradient-1">
            <stop stop-color="#808080" stop-opacity="0.25" offset="0%"></stop>
            <stop stop-color="#808080" stop-opacity="0.12" offset="54%"></stop>
            <stop stop-color="#808080" stop-opacity="0.1" offset="100%"></stop>
        </linearGradient>
    </defs>
    <g id="Home-Page" stroke="none" stroke-width="1" fill="none" fill-rule="evenodd">
        <g id="Data-Privacy-Page" transform="translate(-223.000000, -2995.000000)">
            <g id="Group-13" transform="translate(222.000000, 2957.000000)">
                <g id="Group-14" transform="translate(0.000000, 38.000000)">
                    <g id="lock-(1)" transform="translate(165.000000, 17.000000)">
                        <path d="M131.835149,60.3338406 L131.835149,120.262097 C131.835149,128.643475 125.039556,135.436121 116.658178,135.434647 L16.5591398,135.434647 C24.940518,135.436121 31.7346372,128.643475 31.7346372,120.262097 L31.7346372,60.3338406 C31.7346372,51.9539361 38.5272824,45.1598169 46.9071873,45.1612906 L116.658178,45.1612906 C125.039556,45.1598169 131.835149,51.952462 131.835149,60.3338406 Z" id="Path" fill="#E48E66"></path>
                        <path d="M113.439681,42.1856137 L113.439681,45.2776008 L47.122595,45.2776008 C38.7426901,45.2761271 31.9485712,52.0702464 31.9500449,60.4501509 L31.9500449,120.378407 C31.9500449,128.759786 25.154452,135.552431 16.7745474,135.550957 L15.1769711,135.550957 C6.79559291,135.552431 0,128.759786 0,120.378407 L0,24.7080739 C0,16.3266953 6.79559291,9.5325764 15.1769711,9.53405018 L49.2212556,9.53405018 C53.4834228,9.53405018 57.5481041,11.3246912 60.4234461,14.4697344 L70.7561071,25.7750896 C71.4753111,26.5620872 72.4922184,27.0115899 73.5592341,27.0115899 L98.2627097,27.0115899 C106.644088,27.0101158 113.439681,33.804235 113.439681,42.1856137 Z" id="Path" fill="#F8EC7D"></path>
                        <g id="Character-4" transform="translate(159.429857, 67.741935) scale(-1, 1) translate(-159.429857, -67.741935) translate(135.483871, 0.000000)">
                            <path d="M46.872622,48.441079 C46.872622,48.441079 46.0095325,48.320597 46.0095325,47.0653932 C46.0095325,45.8101895 45.3917883,43.4596946 45.3917883,43.4596946 C45.3917883,43.4596946 44.8572862,39.3698772 44.1190599,38.7214648 C43.3808336,38.0730524 42.4323114,34.2658202 42.4323114,34.2658202 C42.4323114,34.2658202 42.2702083,32.200101 41.9394304,31.7554128 C41.6086525,31.3107246 41.1617736,30.2220051 40.5024083,28.6688822 C39.843043,27.1157592 37.1004339,26.0511362 37.1004339,26.0511362 C37.1004339,26.0511362 32.1300024,23.1683297 30.7214579,22.2285699 C30.5926386,22.1506874 30.4722429,22.0596565 30.3622024,21.9569377 C30.1168571,21.6371126 29.0478529,21.6305409 29.0478529,21.6305409 C28.9361332,20.9229828 28.8287947,20.1124673 28.7937454,19.3786222 C28.7937454,19.2997612 28.7937454,19.2209002 28.7937454,19.1420393 C30.3643727,18.2136277 31.547398,16.7498186 32.1256212,15.0193632 C32.1519082,14.9361211 32.173814,14.8506883 32.1979104,14.7652556 C32.3923332,14.7052527 32.5517917,14.5649292 32.6360269,14.3797131 C32.7608901,14.097128 32.7652713,13.7685406 32.9229932,13.5034802 C33.1070021,13.1924175 33.4574953,13.0259332 33.7335087,12.7937315 C34.4301139,12.2000836 34.6097417,11.2033686 34.5768829,10.2986581 C34.5549771,9.56262241 34.4366856,8.82220555 34.4826879,8.09274161 C34.4826879,8.0314053 34.4826879,7.97006899 34.4958314,7.90873269 C34.5089749,7.80139415 34.5243089,7.68967445 34.5440242,7.58452649 C34.6513627,7.04126205 34.885755,6.52866577 35.01719,5.9897825 C35.1486249,5.45089923 35.1617684,4.8441079 34.8550869,4.37970443 C34.4060175,3.6984333 33.4706388,3.56261719 32.6491704,3.50347146 C31.7181729,3.4246105 30.8967045,3.52537729 30.2899132,2.7521017 C30.0115772,2.34822669 29.6978139,1.96995128 29.3523439,1.62176118 C29.2296713,1.50785089 28.0379944,0.778386949 28.0379944,0.732384718 C26.872019,0.190271826 25.5492702,0.0883423571 24.3140043,0.445418423 C23.6940695,0.62504618 23.1135652,0.918584223 22.484868,1.06535324 C21.1354693,1.38517828 19.5801558,1.03906626 18.4322906,1.81234185 C17.7926405,2.25045833 17.4092886,2.94925412 17.0500331,3.62614408 C16.7579554,4.1840124 16.4614966,4.74261091 16.1606566,5.30193962 C15.6743473,6.21979365 15.1836569,7.15298176 14.9799327,8.16941199 C14.9373102,8.39142412 14.9102272,8.61613919 14.8988812,8.84192079 C14.8988812,8.92297234 14.8988812,9.00402389 14.8988812,9.08507544 C14.8988812,9.12012476 14.8988812,9.15517408 14.8988812,9.1902234 C14.8988812,9.2647032 14.8988812,9.339183 14.9120246,9.40928164 C14.9251681,9.47938027 14.9120246,9.49909552 14.9273587,9.54509775 C14.9426928,9.59109998 14.947074,9.69405735 14.9602175,9.76415599 C14.973361,9.83425462 14.9996479,9.95911782 15.0259349,10.0533129 C15.0259349,10.0949339 15.0522219,10.1343644 15.0653654,10.1759855 C15.0785089,10.2176065 15.1135582,10.3227545 15.1420358,10.3950437 C15.1705134,10.4673329 15.172704,10.4717141 15.1902286,10.508954 C15.2230873,10.5856244 15.2625178,10.6601042 15.3019483,10.7280122 C15.319473,10.7564898 15.3326165,10.7849674 15.3501411,10.813445 C15.4102111,10.9159857 15.4775619,11.0140836 15.5516747,11.106983 C16.0182688,11.6918685 16.7104928,12.0642675 17.2208985,12.6119131 C17.2208985,12.6338189 17.2208985,12.6557248 17.2208985,12.6776306 C17.2208985,12.7367763 17.2208985,12.795922 17.2208985,12.8572583 C17.2843201,15.3372681 18.5702565,17.6253821 20.6557317,18.9689833 C20.6557317,19.0522254 20.6666846,19.1376581 20.6710658,19.2230908 C20.7137827,19.8726004 20.705726,20.5244537 20.6469694,21.1727092 C20.4658964,20.9604206 20.1986255,20.8412758 19.919696,20.848503 C19.8255717,20.8438272 19.731248,20.8519332 19.6393015,20.8725994 L19.6195862,20.8572653 L19.6195862,20.8769805 C19.1376581,20.995272 18.5440103,21.4969154 17.9766494,22.9229845 C17.9766494,22.9229845 16.2504705,24.8682217 14.9361211,24.7871701 C13.6217716,24.7061186 10.2942769,26.8134589 10.2942769,26.8134589 C10.2942769,26.8134589 7.0478338,28.9186086 6.3512286,31.0653793 C5.96180941,32.2829996 5.49424442,33.4742293 4.95144644,34.6316475 L0.927346553,42.8945243 L0.189120281,49.4662716 C0.189120281,49.4662716 0.598759192,52.3819367 0.517707642,52.8288155 C0.436656093,53.2756944 2.20226551,57.2844602 2.20226551,57.2844602 C2.20226551,57.2844602 8.03578647,67.5320047 10.4191401,68.0577444 L10.5900056,67.939453 C10.6924381,67.9911353 10.8004909,68.0308282 10.9120212,68.0577444 L11.4027116,67.713823 C11.4330876,68.0988923 11.4198602,68.4861607 11.3632811,68.8682599 C11.0368844,69.8824996 11.4881443,76.484915 12.0620769,77.7795492 C12.6360095,79.0741834 12.4322854,96.051197 12.4322854,96.051197 L12.3512338,97.5473648 C12.3512338,97.5473648 12.3512338,97.5955576 12.3709491,97.6787998 L12.3512338,98.0336741 L12.4103795,98.0643423 C12.4717482,98.5403404 12.451748,99.0233076 12.3512338,99.492602 C12.1453191,100.149777 12.0620769,102.0052 12.0620769,102.0052 C12.0620769,102.0052 10.4191401,112.493709 11.1989875,114.601049 C11.9788348,116.708389 12.6382001,119.017263 12.6382001,119.017263 C12.6382001,119.017263 13.4596685,121.645962 12.6776306,122.084078 C11.8955927,122.522195 9.68091386,123.299852 10.1321738,124.392952 C10.5483845,125.405001 12.1277944,128.116942 12.3621867,128.513438 L12.3424715,128.732496 L12.0204559,132.222094 C12.0725998,132.682845 12.1975577,133.132398 12.3906643,133.553968 C12.7433481,134.316291 13.4268098,135.10271 14.7323969,135.017277 C14.9514551,135.001943 15.2033721,134.977846 15.4509079,134.944988 C17.8364522,134.622972 20.7718326,133.558349 20.7718326,133.558349 C20.6196358,133.461955 20.480485,133.346364 20.3578125,133.214428 C20.1208465,132.984891 19.9885804,132.668086 19.9919853,132.338195 C20.0270346,131.700735 18.8375483,128.675541 18.5396291,127.928552 L18.4717211,127.762068 C18.4717211,127.762068 21.1836621,124.925264 20.7324021,122.414856 C20.7324021,122.414856 17.7313042,120.66239 18.7192569,119.698534 C19.7072095,118.734678 21.472819,115.974544 21.472819,115.974544 C21.472819,115.974544 21.5538705,105.645948 21.472819,104.105969 C21.3883299,103.034859 21.4391131,101.957371 21.6239691,100.898956 C21.6568279,100.741234 21.6962584,100.585703 21.7378794,100.430171 C23.1053923,100.636541 24.4863229,100.741246 25.8693179,100.743425 C26.3746122,100.743425 26.8857481,100.733202 27.4027255,100.712756 C27.4027255,100.858795 27.4092973,101.016517 27.4224408,101.185922 C27.5363511,103.744522 27.7488376,108.233026 27.9218936,109.900059 C28.1672388,112.287794 29.5232093,118.730297 29.5232093,118.730297 C29.5232093,118.730297 26.9361315,120.388568 29.9744693,124.482766 C29.9744693,124.482766 29.9744693,125.9636 29.7729357,126.180467 C29.5576172,126.882948 29.3842553,127.597608 29.2537677,128.320666 C29.1267139,129.089561 29.0741399,129.871599 29.2800547,130.274666 C29.7729357,131.242903 32.730222,131.164042 32.730222,131.164042 C32.7539948,131.158506 32.7781654,131.154844 32.8025112,131.15309 C33.9301195,131.033902 35.0582667,131.373372 35.9328534,132.09504 C37.0566222,132.99756 41.3194956,132.603255 43.63056,132.314098 C44.5352705,132.197997 45.1398713,132.09504 45.1398713,132.09504 C45.1689445,131.992585 45.1793329,131.885733 45.1705394,131.779596 C45.146443,131.212235 44.7017548,129.967984 41.6875134,128.857359 C41.6875134,128.857359 38.8528998,126.951552 38.8923303,125.291091 L38.8288034,125.291091 L38.5024066,125.291091 C38.7083213,125.284519 38.8528998,125.284519 38.8528998,125.284519 C38.8528998,125.284519 37.7422745,121.234132 38.1957251,120.903354 C38.6491756,120.572577 37.2910145,116.084073 37.2910145,116.084073 C37.2910145,116.084073 36.5133578,108.54847 36.4695461,108.02273 C36.4724428,107.569636 36.5418203,107.119421 36.6754609,106.686475 L36.4695461,102.552846 C36.4695461,102.552846 36.4301156,101.17935 36.4695461,100.732472 C36.4651695,100.344561 36.4344305,99.9573955 36.3775417,99.5736536 C36.3578264,99.4203128 36.3381112,99.2604003 36.3162054,99.1026783 C37.3786378,98.8332367 38.0686713,98.5857009 38.0686713,98.5857009 L37.9459987,84.2045274 C38.8485186,82.4520615 39.0150029,78.6053987 39.0106217,75.8803142 C39.0106217,74.1278483 38.9317608,72.8310235 38.9317608,72.8310235 L40.1650586,70.8178783 C40.1650586,70.8178783 40.4498344,68.4082376 39.9985744,67.8803073 C39.7992314,67.6415338 39.8890453,67.393998 40.0533389,67.1902738 C40.1397893,67.1194241 40.2313079,67.054995 40.3271617,66.9975026 C40.3163755,66.9822388 40.3068514,66.9661211 40.2986842,66.9493097 C40.3847984,66.8773639 40.4763454,66.8121824 40.572507,66.7543479 C40.572507,66.7543479 40.1343905,66.0752674 40.5265047,65.7883011 C40.8945226,66.0380275 41.2231099,66.2373705 41.4728363,66.3797583 C41.4553117,66.5396708 41.437787,66.6316753 41.437787,66.6316753 L41.542935,66.4126171 C41.783899,66.5484332 41.9306681,66.6316753 41.9306681,66.6316753 C41.9306681,66.6316753 43.8627618,62.782822 43.8211407,62.2176517 C43.7795196,61.6524815 45.1354901,59.2603655 45.1354901,59.2603655 C45.1354901,59.2603655 45.2997838,58.0029712 46.0402007,57.4772314 C46.7806175,56.9514916 46.6141333,53.1420688 46.6141333,53.1420688 C46.6141333,53.1420688 46.820048,51.1574012 47.312929,50.3490763 C47.8058101,49.5407514 46.872622,48.441079 46.872622,48.441079 Z M9.90435326,46.7521399 L9.94159316,47.669994 C9.72253492,47.3173102 9.56481299,47.0653932 9.56481299,47.0653932 L9.90435326,46.7521399 Z" id="Shape" fill="url(#linearGradient-1)" fill-rule="nonzero"></path>
                            <path d="M42.0445784,64.9668327 L41.5714126,66.9821685 C41.5714126,66.9821685 37.781705,65.0435031 37.1004339,62.5900508 C36.4191627,60.1365985 38.2417273,59.2012198 38.2417273,59.2012198 L41.7751367,60.695197 L42.0445784,64.9668327 Z" id="Path" fill="#FFFFFF"></path>
                            <path d="M42.0445784,64.9668327 L41.5714126,66.9821685 C41.5714126,66.9821685 37.781705,65.0435031 37.1004339,62.5900508 C36.4191627,60.1365985 38.2417273,59.2012198 38.2417273,59.2012198 L41.7751367,60.695197 L42.0445784,64.9668327 Z" id="Path" fill="#000000" opacity="0.1"></path>
                            <path d="M20.7762138,133.556158 C20.7762138,133.556158 17.2712819,134.844221 14.8616413,135.006324 C13.5823411,135.091757 12.9098323,134.307528 12.5637203,133.551777 C12.3756509,133.134963 12.2529967,132.691635 12.2000836,132.237428 L12.5177181,128.765355 L12.6842023,126.918694 L17.8035934,125.58682 L18.5286762,127.80588 L18.5965843,127.972364 C18.8857411,128.714971 20.0555121,131.724832 20.0204628,132.353529 C20.0147594,132.682125 20.1437804,132.998741 20.3775278,133.229762 C20.4960573,133.355013 20.6300262,133.464691 20.7762138,133.556158 Z" id="Path" fill="#FFFFFF"></path>
                            <path d="M44.706136,131.790549 C44.7151722,131.896687 44.7047795,132.003583 44.6754678,132.105993 C44.6754678,132.105993 37.1792948,133.354625 35.6458871,132.105993 C34.7743117,131.368461 33.6324235,131.032097 32.5002108,131.179377 C32.5002108,131.179377 29.5998797,131.258238 29.115761,130.303144 C28.9142274,129.902267 28.9668014,129.12461 29.0916646,128.360097 C29.2192007,127.641003 29.3888985,126.930028 29.5998797,126.230851 L29.7159806,126.138846 L30.406014,125.584629 L38.4848819,125.345856 L38.5462182,125.345856 C38.5067878,126.997555 41.2866368,128.892409 41.2866368,128.892409 C44.2461137,129.9877 44.6820396,131.225379 44.706136,131.790549 Z" id="Path" fill="#FFFFFF"></path>
                            <path d="M44.7083266,131.790549 C44.7160791,131.896812 44.7049545,132.003609 44.6754678,132.105993 C44.6754678,132.105993 37.1792948,133.354625 35.6480777,132.105993 C34.7759614,131.367862 33.6331471,131.03146 32.5002108,131.179377 C32.5002108,131.179377 29.5976891,131.258238 29.1135704,130.303144 C28.9142274,129.902267 28.9646108,129.12461 29.089474,128.357906 C30.206671,128.469626 31.9700899,128.74783 32.6623139,129.413767 C33.7094123,130.421435 35.483784,131.429103 36.5703129,131.510154 C37.4290212,131.562728 42.5352688,131.724832 44.7083266,131.790549 Z" id="Path" fill="#000000" opacity="0.1"></path>
                            <path d="M20.7762138,133.556158 C20.7762138,133.556158 17.2712819,134.844221 14.8616413,135.006324 C13.5823411,135.091757 12.9098323,134.307528 12.5637203,133.551777 C13.4574779,133.851887 14.695157,134.16514 15.34576,133.878174 C16.116845,133.534253 18.8506918,133.315194 20.3840995,133.220999 C20.4997196,133.349248 20.63153,133.461913 20.7762138,133.556158 Z" id="Path" fill="#000000" opacity="0.1"></path>
                            <path d="M25.9766564,29.7466487 C23.0850876,28.6228799 19.3654787,24.9098428 20.2942856,23.1749015 C20.4995571,22.7367268 20.6220963,22.264394 20.6557317,21.7816911 C20.7155059,21.1261871 20.7242947,20.4670315 20.6820187,19.8101669 C20.6168042,18.7336651 20.4873291,17.6620213 20.2942856,16.6009637 C20.2942856,16.6009637 29.3216757,16.8046878 28.7959359,18.1343714 C28.6425952,18.5264856 28.6163082,19.2033756 28.6601198,19.9591265 C28.7039315,20.7148774 28.81127,21.5757763 28.9251803,22.3008591 C29.0807117,23.2931929 29.2406242,24.053325 29.2406242,24.053325 C29.2406242,24.053325 28.6864068,24.8266006 28.3643912,24.8682217 C28.0423756,24.9098428 30.1256195,31.3567268 25.9766564,29.7466487 Z" id="Path" fill="#F2AE7F"></path>
                            <path d="M18.5878219,127.961411 L18.5199139,128.035891 C15.8211163,124.771923 12.5571486,128.842025 12.5571486,128.842025 L12.5089557,128.754402 L12.67544,126.907741 L17.7948311,125.575867 L18.5199139,127.794927 L18.5878219,127.961411 Z" id="Path" fill="#000000" opacity="0.1"></path>
                            <path d="M38.5505994,125.575867 C38.5505994,125.575867 36.5790752,125.536436 35.5275957,126.465243 C34.4761161,127.39405 29.3939649,126.664586 29.6130232,126.465243 C29.6769154,126.364081 29.71595,126.249229 29.7269335,126.130084 L30.4169669,125.575867 L38.4958349,125.337093 C38.526503,125.490434 38.5505994,125.575867 38.5505994,125.575867 Z" id="Path" fill="#000000" opacity="0.1"></path>
                            <path d="M21.9459848,99.943862 C21.7994413,100.306986 21.6879447,100.683287 21.6130162,101.067631 C21.4303366,102.120387 21.379562,103.191805 21.461866,104.257119 C21.5429176,105.790526 21.461866,116.066549 21.461866,116.066549 C21.461866,116.066549 19.7291154,118.806967 18.7608779,119.773014 C17.7926405,120.739061 20.7324021,122.474002 20.7324021,122.474002 C21.1705186,124.973457 18.5155327,127.794927 18.5155327,127.794927 C15.8167352,124.530959 12.5527674,128.59887 12.5527674,128.59887 C12.5527674,128.59887 10.7783956,125.532055 10.335898,124.436764 C9.89340035,123.341473 12.0686487,122.585722 12.8331619,122.138843 C13.5976752,121.691964 12.7937315,119.072028 12.7937315,119.072028 C12.7937315,119.072028 12.1497002,116.774107 11.3829964,114.677719 C10.6162925,112.581332 12.2285612,102.147588 12.2285612,102.147588 C12.2285612,102.147588 12.3118033,100.292165 12.5111463,99.6459428 C12.6106241,99.1794796 12.6306205,98.6995672 12.5702921,98.2264454 C12.5571486,98.0665329 12.5418145,97.9350979 12.5308616,97.8430935 C12.5199087,97.751089 12.5111463,97.7116585 12.5111463,97.7116585 L12.5418145,97.6590845 L13.6371057,95.6174617 C13.6371057,95.6174617 22.4717245,98.6579901 21.9459848,99.943862 Z" id="Path" fill="#4C8FF7"></path>
                            <path d="M38.5505994,125.334903 C38.5505994,125.334903 36.5790752,125.293282 35.5275957,126.211136 C34.4761161,127.12899 29.3939649,126.412669 29.6130232,126.211136 C29.8320814,126.009602 29.8123662,124.520006 29.8123662,124.520006 C26.8309835,120.447713 29.3742497,118.796014 29.3742497,118.796014 C29.3742497,118.796014 28.0445662,112.388561 27.8036021,110.011779 C27.6349273,108.353508 27.4268219,103.878148 27.3151022,101.343644 C27.2669094,100.248353 27.2384319,99.492602 27.2384319,99.492602 L29.6524537,99.0128645 L29.965707,98.9515281 L35.840849,97.7708042 C35.840849,97.7708042 36.0029521,98.8660954 36.1124812,99.7620436 C36.1678786,100.14445 36.1978822,100.530107 36.2022951,100.916481 C36.1650552,101.354597 36.2022951,102.728092 36.2022951,102.728092 L36.4038287,106.837625 C36.2738002,107.269023 36.2059396,107.716755 36.2022951,108.167308 C36.2439161,108.693048 37.0084294,116.187031 37.0084294,116.187031 C37.0084294,116.187031 38.3381129,120.6602 37.8846624,120.982215 C37.4312118,121.304231 38.5505994,125.334903 38.5505994,125.334903 Z" id="Path" fill="#4C8FF7"></path>
                            <path d="M28.7959359,18.1409431 C28.6425952,18.5330574 28.6163082,19.2099473 28.6601198,19.9656983 C26.1926286,21.4515761 23.0923237,21.3936901 20.6820187,19.8167387 C20.6168042,18.7402368 20.4873291,17.6685931 20.2942856,16.6075354 C20.2942856,16.6075354 29.3216757,16.8112596 28.7959359,18.1409431 Z" id="Path" fill="#000000" opacity="0.1"></path>
                            <path d="M32.2811526,13.3041372 C32.3307554,17.4429494 29.0157962,20.8383306 24.876984,20.8879335 C20.7381718,20.9375363 17.3427906,17.6225771 17.2931877,13.4837649 C17.2931877,13.4224286 17.2931877,13.3654735 17.2931877,13.3041372 C17.2931877,9.16411513 20.6493387,5.80796416 24.7893607,5.80796416 C28.9293828,5.80796416 32.2855337,9.16411513 32.2855337,13.3041372 L32.2811526,13.3041372 Z" id="Path" fill="#F2AE7F"></path>
                            <path d="M25.9766564,29.7466487 C23.0850876,28.6228799 19.3654787,24.9098428 20.2942856,23.1749015 C20.4995571,22.7367268 20.6220963,22.264394 20.6557317,21.7816911 L24.6141141,25.0368965 L27.0631853,27.0456606 L28.9251803,22.3074309 C29.0807117,23.2997647 29.2406242,24.0598968 29.2406242,24.0598968 C29.2406242,24.0598968 28.6864068,24.8331724 28.3643912,24.8747934 C28.0423756,24.9164145 30.1256195,31.3567268 25.9766564,29.7466487 Z" id="Path" fill="#000000" opacity="0.1"></path>
                            <polygon id="Path" fill="#7BA4D3" points="36.213248 44.1322034 32.9076591 99.6634674 28.5965929 99.9460526 17.4311944 67.7466817 19.2625213 29.5188281 19.6502544 21.4421508 24.6141141 25.5188247 27.0631853 27.5275887 28.9799449 22.6491617 32.5440224 25.7554076"></polygon>
                            <path d="M21.9459848,99.943862 C21.7994413,100.306986 21.6879447,100.683287 21.6130162,101.067631 C18.4730744,100.584148 15.4234331,99.6323349 12.5659109,98.24397 L12.5067652,98.2133019 L12.5264804,97.8606181 L12.5264804,97.6766092 L13.6217716,95.6349864 C13.6217716,95.6349864 22.4717245,98.6579901 21.9459848,99.943862 Z" id="Path" fill="#000000" opacity="0.1"></path>
                            <path d="M29.7247429,101.076393 C28.9228589,101.213472 28.1140428,101.306347 27.3019587,101.354597 C27.2537659,100.259306 27.2252884,99.5035549 27.2252884,99.5035549 L29.6524537,99.0128645 L29.7247429,101.076393 Z" id="Path" fill="#000000" opacity="0.1"></path>
                            <path d="M36.1212435,99.7620436 C34.5637394,100.167301 32.1562894,100.622943 30.0051374,100.338167 L29.9744693,98.9515281 L35.8496113,97.7708042 C35.8496113,97.7708042 36.0051427,98.8573331 36.1212435,99.7620436 Z" id="Path" fill="#000000" opacity="0.1"></path>
                            <path d="M29.965707,100.592274 C20.9843191,102.125682 12.7586821,97.7291832 12.7586821,97.7291832 L12.8375431,96.2395871 C12.8375431,96.2395871 13.0412673,79.3523873 12.476097,78.0577531 C11.9109267,76.7631189 11.4706197,70.2067058 11.7904447,69.2056096 C12.1102697,68.2045135 10.6228643,53.0894949 10.6228643,53.0894949 L10.3819002,46.9558641 L1.5560437,43.3698807 L5.49909204,35.1486249 C6.03154914,33.9962259 6.48958975,32.8108812 6.87039663,31.5998814 C7.55604892,29.4640636 10.7389652,27.3676762 10.7389652,27.3676762 C10.7389652,27.3676762 14.0029329,25.2734794 15.293186,25.3523404 C16.583439,25.4312014 18.2745686,23.4991077 18.2745686,23.4991077 C19.5232006,20.3161914 20.6535411,21.7466418 20.6535411,21.7466418 C20.6535411,21.8999825 20.6535411,21.7466418 20.5922048,22.217617 C20.1540883,25.7115959 27.6765483,36.7521313 27.7838869,36.9492837 L28.5089697,54.3994631 L29.2340524,76.4827244 L29.965707,100.592274 Z" id="Path" fill="#376293" opacity="0.1"></path>
                            <path d="M29.7247429,100.592274 C20.743355,102.125682 12.5155275,97.7291832 12.5155275,97.7291832 L12.596579,96.2395871 C12.596579,96.2395871 12.7981126,79.3523873 12.2329424,78.0577531 C11.6677721,76.7631189 11.227465,70.200134 11.5494806,69.1902756 C11.8714963,68.1804171 10.3753285,53.0807325 10.3753285,53.0807325 L10.1321738,46.9471018 L1.30850789,43.3611184 L5.25155623,35.1398626 C5.78277248,33.9876871 6.24078336,32.803151 6.62286081,31.5933097 C7.30851311,29.4640636 10.5023823,27.3654856 10.5023823,27.3654856 C10.5023823,27.3654856 13.76635,25.2712889 15.0544125,25.3501498 C16.342475,25.4290108 18.0423669,23.4991077 18.0423669,23.4991077 C19.2931895,20.3161914 20.6710658,21.7466418 20.6710658,21.7466418 C20.6710658,21.8999825 20.5396309,21.9657 20.6097295,22.217617 C21.5735857,25.606448 27.4531089,36.7521313 27.5604475,36.9492837 L28.2855302,54.3994631 L28.9952789,76.4936773 L29.7247429,100.592274 Z" id="Path" fill="#376293"></path>
                            <path d="M27.3041493,37.4421647 C26.3381025,37.0390975 21.220902,31.1968143 21.220902,31.1968143 L21.220902,29.8671307 C21.0347025,29.4290143 19.9262678,29.6962653 19.0303196,30.0029469 L19.4158621,21.9262695 L19.8539786,22.2899062 C20.8112631,25.6765466 27.1990014,37.2472029 27.3041493,37.4421647 Z" id="Path" fill="#000000" opacity="0.1"></path>
                            <path d="M27.547304,36.9602366 C26.5790666,36.5549788 21.461866,30.7148861 21.461866,30.7148861 L21.461866,29.383012 C21.2756665,28.9448956 20.1694224,29.2121466 19.2712836,29.5188281 L19.6502544,21.4509131 L20.0883709,21.8123592 C21.0544177,25.1946185 27.4399654,36.7630842 27.547304,36.9602366 Z" id="Path" fill="#FFFFFF" opacity="0.200000003"></path>
                            <path d="M12.7586821,66.0949826 C12.8791642,66.0949826 19.0040326,65.4509514 19.0040326,65.4509514 C19.0040326,65.4509514 22.7126886,72.7455908 22.469534,74.517772 C22.2263793,76.2899531 21.7860722,77.8627913 20.2942856,77.5845873 C18.802499,77.3063834 12.2658011,77.8036456 12.2658011,77.8036456 L12.7586821,66.0949826 Z" id="Path" fill="#000000" opacity="0.1"></path>
                            <path d="M12.5155275,65.6108639 C12.6382001,65.6108639 18.7630685,64.9668327 18.7630685,64.9668327 C18.7630685,64.9668327 22.469534,72.272425 22.2285699,74.0248909 C21.9876058,75.7773569 21.5429176,77.3699103 20.0533216,77.0917063 C18.5637255,76.8135023 12.0226464,77.3107645 12.0226464,77.3107645 L12.5155275,65.6108639 Z" id="Path" fill="#376293"></path>
                            <path d="M17.1310846,62.1957459 C17.1310846,62.1957459 22.7521191,65.2187496 22.8726011,66.1387943 C22.9930831,67.0588389 20.0117005,65.7357271 19.3676693,65.573624 C18.9435017,65.4728857 18.5121,65.405502 18.0774162,65.3720904 L13.7816841,65.4881913 L17.1310846,62.1957459 Z" id="Path" fill="#F2AE7F"></path>
                            <circle id="Oval" fill="#000000" opacity="0.1" cx="25.7335017" cy="37.2274876" r="1"></circle>
                            <circle id="Oval" fill="#3F3D56" cx="25.7335017" cy="36.9865236" r="1"></circle>
                            <circle id="Oval" fill="#000000" opacity="0.1" cx="26.8222212" cy="62.8310148" r="1"></circle>
                            <circle id="Oval" fill="#3F3D56" cx="26.8222212" cy="62.5878602" r="1"></circle>
                            <circle id="Oval" fill="#000000" opacity="0.1" cx="26.324959" cy="50.0292512" r="1"></circle>
                            <circle id="Oval" fill="#3F3D56" cx="26.324959" cy="49.7882872" r="1"></circle>
                            <path d="M39.9591439,65.2494178 C39.9591439,65.2494178 40.3622111,65.8540185 39.9591439,66.1256508 C39.5560767,66.397283 39.9985744,67.0938882 39.9985744,67.0938882 C39.9985744,67.0938882 38.9930971,67.6809643 39.4355947,68.2132758 C39.8780924,68.7455873 39.5976978,71.1355127 39.5976978,71.1355127 L38.3884963,73.148658 C38.3884963,73.148658 38.4607855,74.438911 38.4651667,76.1826146 C38.4651667,78.9033179 38.3052542,82.7280748 37.4202589,84.4717784 L37.5385503,98.7784721 C37.5385503,98.7784721 33.3041545,100.327214 29.7597922,99.8540481 L29.2340524,76.8967445 C29.2340524,76.8967445 30.0007563,63.8781132 30.2833414,61.3808493 C30.4487366,60.0843737 30.5161056,58.7772694 30.484875,57.4706597 C30.484875,57.4706597 30.364393,53.5626607 29.9591352,51.751049 C29.9591352,51.751049 29.5210187,43.8912393 29.4772071,41.715991 C29.4574918,40.6754643 29.5122564,37.6393171 29.5735927,34.7521295 C29.6415008,31.5955003 29.7181711,28.6184988 29.7181711,28.6184988 L28.9186086,22.2899062 C28.9186086,22.2899062 29.7181711,22.2110452 29.9591352,22.5308703 C30.0670703,22.6316985 30.1844402,22.7219267 30.3096284,22.8003119 C31.6918859,23.7335 36.5681223,26.603163 36.5681223,26.603163 C36.5681223,26.603163 39.2669199,27.6765483 39.9131417,29.2143372 C40.5593635,30.752126 41.0084329,31.8430361 41.3216862,32.2811526 C41.6349394,32.719269 41.8058049,34.7784165 41.8058049,34.7784165 C41.8058049,34.7784165 42.7346118,38.5681241 43.4596946,39.2099647 C44.1847774,39.8518054 44.706136,43.9262886 44.706136,43.9262886 L38.2986824,48.9646282 C38.2986824,48.9646282 37.7357028,57.3457965 37.6152207,57.6700027 C37.4947387,57.9942089 39.9591439,65.2494178 39.9591439,65.2494178 Z" id="Path" fill="#376293"></path>
                            <path d="M40.2022985,65.2494178 C40.2022985,65.2494178 40.6031751,65.8540185 40.2022985,66.1256508 C39.801422,66.397283 40.2395384,67.0938882 40.2395384,67.0938882 C40.2395384,67.0938882 39.2340611,67.6809643 39.6765588,68.2132758 C40.1190564,68.7455873 39.8386619,71.1355127 39.8386619,71.1355127 L38.6338415,73.148658 C38.6338415,73.148658 38.7061308,74.438911 38.7127025,76.1826146 C38.7127025,78.9033179 38.55279,82.7280748 37.6677947,84.4717784 L37.7882767,98.7784721 C37.7882767,98.7784721 33.5538809,100.327214 30.0095186,99.8540481 L29.4859694,76.8967445 C29.4859694,76.8967445 30.2504827,63.8781132 30.5352584,61.3808493 C30.700834,60.0843996 30.7674742,58.7772263 30.7346014,57.4706597 C30.7346014,57.4706597 30.6141193,53.5626607 30.2110522,51.751049 C30.2110522,51.751049 29.7729357,43.8912393 29.7269335,41.715991 C29.7072182,40.6754643 29.7619828,37.6393171 29.8233191,34.7521295 C29.8912272,31.5955003 29.9678975,28.6184988 29.9678975,28.6184988 L28.9120368,22.2044735 C28.9120368,22.2044735 29.9678975,22.2044735 30.2110522,22.5308703 C30.3179741,22.6328868 30.4354694,22.7232113 30.5615454,22.8003119 C31.9416123,23.7335 36.8178487,26.603163 36.8178487,26.603163 C36.8178487,26.603163 39.5100745,27.6765483 40.1672492,29.2143372 C40.824424,30.752126 41.2625404,31.8430361 41.5757937,32.2811526 C41.889047,32.719269 42.0599124,34.7784165 42.0599124,34.7784165 C42.0599124,34.7784165 42.9887194,38.5681241 43.7138021,39.2099647 C44.4388849,39.8518054 44.9624341,43.9262886 44.9624341,43.9262886 L38.5549806,48.9646282 C38.5549806,48.9646282 37.9920009,57.3457965 37.8693283,57.6700027 C37.7466557,57.9942089 40.2022985,65.2494178 40.2022985,65.2494178 Z" id="Path" fill="#376293"></path>
                            <path d="M32.5286884,30.4783032 L33.1091927,32.1650517 L30.0620926,35.2318671 C30.1300006,32.0752378 30.206671,29.0982363 30.206671,29.0982363 L29.1508103,22.6864016 C29.1508103,22.6864016 30.206671,22.6864016 30.4498257,23.0127984 C30.5567476,23.1148149 30.6742428,23.2051394 30.8003189,23.28224 L33.3895873,30.7499355 L32.5286884,30.4783032 Z" id="Path" fill="#000000" opacity="0.1"></path>
                            <path d="M32.2811526,29.9941845 L32.8616569,31.6787424 L29.8167474,34.7455578 C29.8824648,31.5889285 29.9613258,28.611927 29.9613258,28.611927 L28.9032745,22.1979017 C28.9032745,22.1979017 29.9613258,22.1979017 30.2022899,22.5242985 C30.3097359,22.6257018 30.4271649,22.7159753 30.552783,22.7937401 L33.1573855,30.2680073 L32.2811526,29.9941845 Z" id="Path" fill="#FFFFFF" opacity="0.200000003"></path>
                            <path d="M32.2811526,13.3041372 C32.2820086,14.093448 32.157796,14.8779097 31.9131347,15.6283451 C31.8298115,15.6422736 31.7444069,15.6217133 31.6765518,15.57139 C31.6174061,13.5998658 30.6491687,11.7466331 29.4553013,10.1716043 C29.1195307,9.69654442 28.71325,9.27548987 28.2504809,8.92297234 C27.7820173,8.57138886 27.1995213,8.40663462 26.6163065,8.46075945 C25.9591317,8.55057333 25.3786274,8.99745214 24.7148809,9.05440729 C23.838648,9.12669651 23.0544195,8.51990518 22.1847582,8.49142761 C21.4693438,8.49736373 20.791355,8.81200163 20.3249538,9.35451708 C19.8676511,9.89388238 19.5281515,10.5228893 19.3282388,11.201178 C18.9838115,12.2304068 18.7962417,13.3056102 18.7718308,14.390666 C18.7608779,15.0040291 18.7017322,15.7729235 18.1321808,15.9963629 C18.2193308,15.0849563 17.9196797,14.1788496 17.3063312,13.499099 L17.2931877,13.4837649 C17.2931877,13.4224286 17.2931877,13.3654735 17.2931877,13.3041372 C17.2931877,9.16411513 20.6493387,5.80796416 24.7893607,5.80796416 C28.9293828,5.80796416 32.2855337,9.16411513 32.2855337,13.3041372 L32.2811526,13.3041372 Z" id="Path" fill="#000000" opacity="0.1"></path>
                            <path d="M27.8999877,1.40270294 C26.7616681,0.867243246 25.466972,0.765973396 24.2592398,1.11792722 C23.6524485,1.29755498 23.0807064,1.58890244 22.4651528,1.73567146 C21.1508033,2.05330591 19.6173957,1.70938447 18.4892457,2.4782789 C17.8627391,2.91639538 17.485959,3.60861942 17.1354658,4.2833188 L16.2592328,5.95035201 C15.7816859,6.86382488 15.2997577,7.79263182 15.1004147,8.79810914 C14.9010717,9.80358647 15.0215538,10.9295458 15.6590132,11.7400613 C16.1212261,12.3271374 16.809069,12.6973458 17.312903,13.2515632 C17.9248444,13.9346586 18.2234587,14.8424145 18.136562,15.7553989 C18.7061134,15.5363406 18.7630685,14.763065 18.776212,14.149702 C18.8008218,13.0646657 18.9883865,11.9894918 19.3326199,10.960214 C19.5325326,10.2819252 19.8720322,9.65291832 20.3293349,9.11355301 C20.7955071,8.57045624 21.4734407,8.25504543 22.1891394,8.24827296 C23.0653724,8.27894111 23.8517915,8.88573244 24.7192621,8.81125264 C25.3764368,8.75648808 25.9591317,8.30960927 26.6206876,8.21979539 C27.2040001,8.16460235 27.7868749,8.32946373 28.2548621,8.68200828 C28.71799,9.03341848 29.1237058,9.45465343 29.4574918,9.93064025 C30.6535498,11.5078596 31.6239778,13.35233 31.680933,15.3304259 C31.9284688,15.5100536 32.2855337,15.2734707 32.4082063,14.9930762 C32.530879,14.7126816 32.5352601,14.3840943 32.6907915,14.1168432 C32.8704192,13.8079711 33.2143407,13.6414868 33.4837823,13.4092851 C34.167244,12.8200184 34.3381094,11.8276846 34.3118225,10.9273552 C34.2855355,10.0270259 34.1102889,9.11355301 34.2811543,8.22855772 C34.3841117,7.68748386 34.6163134,7.17707816 34.7433672,6.64038547 C34.870421,6.10369278 34.885755,5.50128262 34.5856453,5.03906973 C34.1475288,4.36217977 33.2252936,4.22636366 32.4213498,4.16283677 C31.507877,4.0839758 30.6907897,4.18474259 30.1080948,3.41584817 C29.8338915,3.01512184 29.5261006,2.6384444 29.1880502,2.28988881 C29.0675682,2.17378794 27.8999877,1.45089575 27.8999877,1.40270294 Z" id="Path" fill="#2E3B51"></path>
                            <path d="M4.0839758,47.5977048 L1.79700777,43.3676901 L1.07192499,49.8956257 C1.07192499,49.8956257 1.47499215,52.7959568 1.39394061,53.240645 C1.31288906,53.6853333 3.04563974,57.6721933 3.04563974,57.6721933 C3.04563974,57.6721933 8.76963157,67.8693544 11.106983,68.3929036 L18.9930797,62.7499633 L16.8988829,60.0905962 C16.8988829,60.0905962 16.1738001,59.8080111 15.9919818,60.0905962 C15.9919818,60.0905962 12.1015074,53.4005576 11.7006308,52.9186294 C11.2997543,52.4367013 11.3764246,51.4662733 11.3764246,51.4662733 C11.3764246,51.4662733 10.7718239,50.8222421 10.9733575,50.2176413 C11.1748911,49.6130406 9.81672996,47.5188438 9.81672996,47.5188438 L11.0653619,46.3512634 L4.0839758,47.5977048 Z" id="Path" fill="#000000" opacity="0.1"></path>
                            <path d="M1.9174898,42.8835714 L1.31288906,43.3676901 L0.587806279,49.8956257 C0.587806279,49.8956257 0.990873443,52.7959568 0.909821893,53.240645 C0.828770344,53.6853333 2.56371161,57.6721933 2.56371161,57.6721933 C2.56371161,57.6721933 8.28551286,67.8693544 10.6228643,68.3929036 L18.5221045,62.7499633 L16.4257171,60.0905962 C16.4257171,60.0905962 15.7006343,59.8080111 15.518816,60.0905962 C15.518816,60.0905962 11.6305322,53.4005576 11.227465,52.9186294 C10.8243979,52.4367013 10.9054494,51.4662733 10.9054494,51.4662733 C10.9054494,51.4662733 10.3008487,50.8222421 10.5023823,50.2176413 C10.7039158,49.6130406 9.33261125,47.5188438 9.33261125,47.5188438 L10.5812432,46.3512634 L1.9174898,42.8835714 Z" id="Path" fill="#376293"></path>
                            <path d="M39.4355947,68.4651928 C39.8737112,68.9975043 39.5976978,71.3896203 39.5976978,71.3896203 L38.3884963,73.389622 C38.3884963,73.389622 38.4607855,74.6820656 38.4651667,76.4257692 L36.4323062,77.0610381 C36.0589405,77.177415 35.6523441,77.1060334 35.3409455,76.86944 C35.0295468,76.6328466 34.8518003,76.2602582 34.8638492,75.8693613 L35.216533,64.5659561 L39.9591439,66.3775677 C39.5560767,66.6579623 39.9985744,67.3458052 39.9985744,67.3458052 C39.9985744,67.3458052 38.9930971,67.9328813 39.4355947,68.4651928 Z" id="Path" fill="#000000" opacity="0.1"></path>
                            <path d="M39.6765588,68.2242287 C40.1146753,68.7543497 39.8386619,71.1464656 39.8386619,71.1464656 L38.6338415,73.148658 C38.6338415,73.148658 38.7061308,74.438911 38.7127025,76.1826146 L36.6426021,76.8288364 C36.2778564,76.9431995 35.880314,76.8739084 35.5757681,76.6428886 C35.2712223,76.4118688 35.0973594,76.0477082 35.1091944,75.6656372 L35.4618782,64.3228014 L40.2022985,66.1387943 C39.7970408,66.4191888 40.2395384,67.1070317 40.2395384,67.1070317 C40.2395384,67.1070317 39.2340611,67.6919172 39.6765588,68.2242287 Z" id="Path" fill="#376293"></path>
                            <path d="M41.2493969,62.8310148 C41.2493969,62.8310148 40.9273813,64.8879717 40.121247,65.0084537 C39.3151127,65.1289358 38.9536666,68.3359484 38.1497228,68.2242287 C37.3457791,68.112509 37.8780906,65.2406555 37.9065682,64.6842475 C37.9350458,64.1278396 37.0303352,61.8233469 37.7050346,61.2997977 C38.379734,60.7762485 40.5265047,61.2997977 40.5265047,61.2997977 L41.2493969,62.8310148 Z" id="Path" fill="#F2AE7F"></path>
                            <path d="M42.9536701,46.993104 L44.4717437,43.9262886 C44.4717437,43.9262886 45.078535,46.2636401 45.078535,47.512272 C45.078535,48.760904 45.9240998,48.8835766 45.9240998,48.8835766 C45.9240998,48.8835766 46.8507162,49.9788678 46.3622163,50.7784304 C45.8737164,51.577993 45.6787546,53.5582795 45.6787546,53.5582795 C45.6787546,53.5582795 45.8386671,57.3457965 45.1135843,57.8693457 C44.3885015,58.3928949 44.2263984,59.6437174 44.2263984,59.6437174 C44.2263984,59.6437174 42.8967149,62.0204993 42.938336,62.5856696 C42.979957,63.1508399 41.0851033,66.9777873 41.0851033,66.9777873 C41.0851033,66.9777873 42.0117196,62.2220329 36.611934,60.1672666 C36.611934,60.1672666 36.5703129,58.554998 36.9733801,58.1125003 C37.3764472,57.6700027 38.0051444,57.4553256 37.6108396,55.2296939 C37.2165347,53.0040621 37.4969293,50.3205987 37.4969293,49.783906 C37.4969293,49.2472133 38.7061308,45.902194 38.7061308,45.902194 L42.9536701,46.993104 Z" id="Path" fill="#000000" opacity="0.1"></path>
                            <path d="M43.6283694,43.4881722 L44.9558624,43.9262886 C44.9558624,43.9262886 45.5626537,46.2636401 45.5626537,47.512272 C45.5626537,48.760904 46.4082185,48.8835766 46.4082185,48.8835766 C46.4082185,48.8835766 47.3348349,49.9788678 46.846335,50.7784304 C46.3578351,51.577993 46.1606827,53.5582795 46.1606827,53.5582795 C46.1606827,53.5582795 46.3227858,57.3457965 45.597703,57.8693457 C44.8726202,58.3928949 44.7214701,59.6437174 44.7214701,59.6437174 C44.7214701,59.6437174 43.3917865,62.0204993 43.4334076,62.5856696 C43.4750287,63.1508399 41.5779843,66.9777873 41.5779843,66.9777873 C41.5779843,66.9777873 42.5046007,62.2220329 37.104815,60.1672666 C37.104815,60.1672666 37.0653845,58.554998 37.4684517,58.1125003 C37.8715189,57.6700027 38.500216,57.4553256 38.1059112,55.2296939 C37.7116063,53.0040621 37.9920009,50.3205987 37.9920009,49.783906 C37.9920009,49.2472133 39.2012024,45.902194 39.2012024,45.902194 L43.6283694,43.4881722 Z" id="Path" fill="#376293"></path>
                            <path d="M14.3008522,122.977836 C14.3008522,122.977836 16.4169548,121.648152 17.805784,122.614199 C19.1946133,123.580246 14.3008522,122.977836 14.3008522,122.977836 Z" id="Path" fill="#000000" opacity="0.1"></path>
                            <path d="M30.7477449,118.866113 C30.7477449,118.866113 32.6206928,118.625149 34.193531,120.318469 C35.7663692,122.011789 30.7477449,118.866113 30.7477449,118.866113 Z" id="Path" fill="#000000" opacity="0.1"></path>
                            <g id="AAAAAA" opacity="0.1" transform="translate(14.964599, 5.582334)" fill="#000000">
                                <path d="M18.5191837,7.34502281 C18.249742,7.57941513 17.90363,7.74370881 17.7240023,8.05258093 C17.5706615,8.3176414 17.5662803,8.64622876 17.4436077,8.9288139 C17.3209351,9.21139903 16.9638702,9.44579134 16.7141438,9.26616359 C16.6571886,7.29463942 15.6867606,5.44359728 14.4928932,3.86637795 C14.159067,3.39105641 13.753341,2.97054986 13.2902635,2.61993656 C12.821721,2.26666339 12.2381633,2.10104863 11.6538984,2.15553309 C10.9967237,2.24534697 10.4184099,2.69222578 9.75466346,2.74918092 C8.8784305,2.82147014 8.09201142,2.21467881 7.2223502,2.18620124 C6.50744387,2.19161937 5.82992528,2.50640984 5.36473632,3.04929071 C4.9074336,3.58865602 4.56793402,4.21766294 4.36802132,4.89595168 C4.02378789,5.92522946 3.83622321,7.00040337 3.81161339,8.08543967 C3.7984699,8.69661216 3.74151475,9.45893484 3.17634449,9.68675541 C3.18948428,9.84932362 3.18948428,10.0126871 3.17634449,10.1752553 C3.7480865,9.95619704 3.80504164,9.18292145 3.81818514,8.56955838 C3.84279496,7.48452208 4.03035964,6.40934818 4.37459307,5.38007039 C4.57450577,4.70178165 4.91400535,4.07277473 5.37130806,3.53340942 C5.83680132,2.99065116 6.51392553,2.67524542 7.22892195,2.66812937 C8.10515491,2.69879753 8.89376458,3.30558885 9.76123521,3.23110905 C10.4184099,3.17634449 11.0011049,2.72946568 11.6604702,2.6396518 C12.2444548,2.5845434 12.8279838,2.74936887 13.2968352,3.10186469 C13.7599631,3.45327489 14.1656789,3.87450984 14.499465,4.35049666 C15.6933324,5.927716 16.6637604,7.77218638 16.7207155,9.7502823 C16.9704419,9.92991006 17.3275068,9.69332716 17.4501795,9.41293261 C17.5728521,9.13253806 17.5772332,8.8039507 17.730574,8.53669964 C17.9102018,8.22782752 18.2563138,8.06134326 18.5257554,7.82914153 C19.2092171,7.23987486 19.3800826,6.24754103 19.3537956,5.34721166 C19.3537956,5.31873409 19.3537956,5.2924471 19.3537956,5.26396953 C19.3099839,6.04819803 19.1018786,6.84337944 18.5191837,7.34502281 Z" id="Path"></path>
                                <path d="M2.34611376,7.19168205 C1.84447039,6.6374647 1.15662751,6.26506569 0.694414623,5.6779896 C0.304020371,5.15975217 0.0815731989,4.53445394 0.0569551426,3.88609319 C-0.0117850532,4.69679488 0.214587938,5.50504759 0.694414623,6.16210831 C1.15662751,6.7491844 1.84447039,7.11939283 2.34611376,7.67361018 C2.83065362,8.21542874 3.12186196,8.9026188 3.17415391,9.62760968 C3.24071451,8.73683681 2.94175375,7.85735436 2.34611376,7.19168205 Z" id="Path"></path>
                                <path d="M19.7787686,0.576123173 C19.6495242,1.11281586 19.419513,1.62322156 19.3143651,2.16429542 C19.2512204,2.53017365 19.2284479,2.90188001 19.246457,3.27273012 C19.2536728,3.06323537 19.2763707,2.85456102 19.3143651,2.64841413 C19.419513,2.10734028 19.6495242,1.59693458 19.7787686,1.06024189 C19.8530241,0.764047553 19.8774544,0.457558105 19.8510578,0.153340769 C19.8369295,0.295792296 19.8127732,0.437070181 19.7787686,0.576123173 Z" id="Path"></path>
                            </g>
                        </g>
                        <g id="Group-7" transform="translate(99.354839, 69.749104)">
                            <path d="M41.2825815,40.3995118 L36.0005188,40.3995118 L36.0005188,18.818973 C36.0078876,15.2583241 34.6077982,11.8376838 32.1067957,9.30425882 L32.0625825,9.25857159 C29.5866346,6.73104131 26.1984177,5.30442369 22.6598755,5.30147595 C15.3027731,5.30147595 9.31923222,11.364601 9.31923222,18.818973 L9.31923222,40.3995118 L4.03720996,40.3995118 L4.03720996,18.818973 C4.03720996,8.45241464 12.3905867,0.019453688 22.6598755,0.019453688 C27.5822958,0.0179800038 32.3013348,1.98842181 35.7617665,5.4901196 L35.825139,5.55201849 C39.3297846,9.07729674 41.2928576,13.8479178 41.282541,18.818973 L41.2825815,40.3995118 Z" id="Path" fill="#2561A1"></path>
                            <path d="M45.2971138,40.8416453 L45.2971138,62.5990379 C45.2985874,66.7668836 41.9192134,70.1462577 37.7513677,70.144784 L7.56838332,70.144784 C3.40053763,70.1462577 0.021163554,66.7668836 0.0226372383,62.5990379 L0.0226372383,40.8416453 C0.0226372383,36.6737997 3.40053763,33.2958993 7.56838332,33.2958993 L37.7513677,33.2958993 C41.9192134,33.2958993 45.2971138,36.6737997 45.2971138,40.8416453 Z" id="Path" fill="#6FE3FF"></path>
                        </g>
                    </g>
                    <g id="barbed-wire" transform="translate(60.779661, 87.000000) rotate(-90.000000) translate(-60.779661, -87.000000) translate(-26.000000, 27.000000)">
                        <path d="M50.8708475,49.5088136 L1.91627119,0.553898305 C1.20915254,-0.153220339 0.000677966102,0.34779661 0.000677966102,1.34711864 L0,23.099661 C0,23.6949153 0.236271186,24.2661017 0.657288136,24.6867797 L50.8711864,74.9 L50.8711864,49.5088136 L50.8708475,49.5088136 Z" id="Path" fill="#7F8499"></path>
                        <path d="M50.8708475,49.5088136 L1.91627119,0.553898305 C1.20915254,-0.153220339 0.000677966102,0.34779661 0.000677966102,1.34711864 L0,11.3338983 L50.8708475,62.2044068 L50.8708475,49.5088136 Z" id="Path" fill="#959CB5"></path>
                        <path d="M123.388136,45.8518644 L122.662034,70.5172881 L171.590847,119.446102 C172.297966,120.15322 173.506441,119.652203 173.506441,118.652881 L173.50678,96.900678 C173.50678,96.3054237 173.270508,95.7349153 172.849492,95.3135593 L123.388136,45.8518644 Z" id="Path" fill="#7F8499"></path>
                        <g id="Group" transform="translate(43.728814, 29.830508)" fill="#959CB5">
                            <path d="M79.659322,16.0213559 L79.2966102,28.3538983 L129.778305,78.8355932 L129.778305,67.0698305 C129.778305,66.4745763 129.542034,65.9040678 129.121017,65.4827119 L79.659322,16.0213559 Z" id="Path"></path>
                            <path d="M2.87423729,57.6769492 C-0.631864407,54.1708475 -0.631864407,48.4867797 2.87423729,44.9813559 L45.1932203,2.6620339 C48.699322,-0.844067797 54.3830508,-0.844067797 57.8888136,2.6620339 C61.3949153,6.16813559 61.3949153,11.8518644 57.8888136,15.3576271 L15.5698305,57.6769492 C12.0640678,61.1823729 6.37966102,61.1823729 2.87423729,57.6769492 Z" id="Path"></path>
                        </g>
                        <path d="M52.9505085,81.159322 L95.2694915,38.840339 C97.6132203,36.4966102 100.921695,35.7569492 103.910847,36.5467797 C103.519322,35.0644068 102.779322,33.6545763 101.617288,32.4925424 C98.1111864,28.9864407 92.4274576,28.9864407 88.9216949,32.4925424 L46.6030508,74.8118644 C43.0969492,78.3179661 43.0969492,84.0016949 46.6030508,87.5074576 C47.7650847,88.6694915 49.1749153,89.4091525 50.6572881,89.8010169 C49.8674576,86.8115254 50.6071186,83.5030508 52.9505085,81.159322 Z" id="Path" fill="#7F8499"></path>
                        <path d="M71.9942373,87.5074576 C68.4881356,84.0013559 68.4881356,78.3172881 71.9942373,74.8118644 L114.31322,32.4928814 C117.819322,28.9867797 123.503051,28.9867797 127.008814,32.4928814 C130.514915,35.9989831 130.514915,41.6827119 127.008814,45.1884746 L84.6901695,87.5074576 C81.1840678,91.0128814 75.5,91.0128814 71.9942373,87.5074576 Z" id="Path" fill="#959CB5"></path>
                        <path d="M78.3420339,81.159322 L120.661017,38.840339 C123.004746,36.4966102 126.31322,35.7569492 129.302373,36.5467797 C128.910847,35.0644068 128.170847,33.6545763 127.008814,32.4925424 C123.502712,28.9864407 117.818983,28.9864407 114.31322,32.4925424 L71.9945763,74.8118644 C68.4884746,78.3179661 68.4884746,84.0016949 71.9945763,87.5074576 C73.1566102,88.6694915 74.5664407,89.4091525 76.0488136,89.8010169 C75.2586441,86.8115254 75.9986441,83.5030508 78.3420339,81.159322 Z" id="Path" fill="#7F8499"></path>
                        <path d="M76.2264407,32.4925424 C79.7325424,35.9986441 79.7325424,41.6827119 76.2264407,45.1881356 L1.96847458,119.446102 C1.26135593,120.15322 0.0528813559,119.652203 0.0528813559,118.652881 L0.0522033898,96.900339 C0.0522033898,96.3050847 0.288474576,95.7338983 0.709491525,95.3132203 L63.5301695,32.4925424 C67.0362712,28.9867797 72.720339,28.9867797 76.2264407,32.4925424 Z" id="Path" fill="#959CB5"></path>
                        <path d="M69.8783051,38.840339 C72.2220339,36.4966102 75.5305085,35.7569492 78.519661,36.5467797 C78.0305085,34.6952542 76.9979661,32.9562712 75.2769492,31.6722034 C71.6494915,28.9654237 66.5427119,29.48 63.3423729,32.680339 L0.709491525,95.3135593 C0.288813559,95.7342373 0.0522033898,96.3050847 0.0522033898,96.900678 L0.0522033898,108.666441 L69.8783051,38.840339 Z" id="Path" fill="#7F8499"></path>
                        <path d="M97.3857627,87.5074576 C93.879661,84.0013559 93.879661,78.3172881 97.3857627,74.8118644 L171.64339,0.554237288 C172.350508,-0.152881356 173.558983,0.348135593 173.558983,1.34745763 L173.559322,23.099661 C173.559322,23.6949153 173.323051,24.2661017 172.902034,24.6867797 L110.081356,87.5074576 C106.575593,91.0128814 100.891525,91.0128814 97.3857627,87.5074576 Z" id="Path" fill="#959CB5"></path>
                        <path d="M103.733559,81.159322 L173.559322,11.3338983 L173.558983,1.34745763 C173.558983,0.347457627 172.350508,-0.152881356 171.64339,0.554237288 L97.5735593,74.6240678 C94.3732203,77.8244068 93.8589831,82.9308475 96.5654237,86.5586441 C97.8494915,88.279661 99.5881356,89.3118644 101.44,89.8013559 C100.650508,86.8115254 101.389831,83.5030508 103.733559,81.159322 Z" id="Path" fill="#7F8499"></path>
                    </g>
                </g>
            </g>
        </g>
    </g>
</svg>