<?xml version="1.0" encoding="UTF-8"?>
<svg width="515px" height="380px" viewBox="0 0 515 380" version="1.1" xmlns="http://www.w3.org/2000/svg" xmlns:xlink="http://www.w3.org/1999/xlink">
    <!-- Generator: Sketch 52.6 (67491) - http://www.bohemiancoding.com/sketch -->
    <title>Illustration</title>
    <desc>Created with Sketch.</desc>
    <defs>
        <path d="M2.47457924,15.7160189 L349.787311,15.7160189 C350.89188,15.7160189 351.787311,16.6114494 351.787311,17.7160189 L351.787311,287.632283 C351.787311,288.736853 350.89188,289.632283 349.787311,289.632283 L2.47457924,289.632283 C1.37000974,289.632283 0.474579237,288.736853 0.474579237,287.632283 L0.474579237,17.7160189 C0.474579237,16.6114494 1.37000974,15.7160189 2.47457924,15.7160189 Z" id="path-1"></path>
        <filter x="-11.5%" y="-15.9%" width="123.1%" height="129.6%" filterUnits="objectBoundingBox" id="filter-2">
            <feOffset dx="0" dy="-3" in="SourceAlpha" result="shadowOffsetOuter1"></feOffset>
            <feGaussianBlur stdDeviation="13" in="shadowOffsetOuter1" result="shadowBlurOuter1"></feGaussianBlur>
            <feColorMatrix values="0 0 0 0 0.333333333   0 0 0 0 0.807843137   0 0 0 0 0.925490196  0 0 0 0.22 0" type="matrix" in="shadowBlurOuter1"></feColorMatrix>
        </filter>
    </defs>
    <g id="Home-Page" stroke="none" stroke-width="1" fill="none" fill-rule="evenodd">
        <g id="Data-Privacy-Page" transform="translate(-777.000000, -162.000000)">
            <g id="Header" transform="translate(0.000000, 34.000000)">
                <g id="Illustration" transform="translate(0.000000, 71.000000)">
                    <g id="Group-2" transform="translate(72.000000, 57.000000)">
                        <g id="Group-6">
                            <g id="Illustration" transform="translate(706.000000, 0.000000)">
                                <path d="M504.587679,259.816229 C492.073354,285.650803 466.663198,302.9257 440.329893,314.318177 C404.878134,329.660548 365.837396,335.745648 327.333592,333.172089 C320.58581,332.722738 313.858438,332.004718 307.151475,331.01803 C283.857949,327.617253 261.148402,320.999308 239.672087,311.353399 C233.473798,308.559878 227.401109,305.510257 221.454017,302.204538 C211.520859,296.694776 202.003394,290.465818 192.977687,283.567445 C190.707493,281.832885 188.468699,280.054333 186.261305,278.231788 C184.730573,276.968576 183.21397,275.677083 181.673818,274.423298 C178.423956,271.779037 175.079894,269.266753 171.349618,267.386075 C170.224083,266.818237 169.070203,266.308513 167.892518,265.858908 C156.079974,261.36225 142.458812,263.059102 130.161145,266.56593 C120.807193,269.233758 111.688738,272.886704 102.344207,275.493257 C98.1877037,276.687945 93.9524523,277.588867 89.6697434,278.189367 C80.1079663,279.400678 70.3978252,278.54723 61.1934131,275.68651 L60.4068522,275.441409 C59.0880675,275.026623 57.7802726,274.572558 56.4834676,274.079214 L55.6969067,273.777551 C54.4409213,273.293634 53.2116255,272.77358 52.0090194,272.21739 L51.2224585,271.859166 C49.9664731,271.274694 48.7371773,270.657229 47.5345712,270.006769 C47.1012563,269.780522 46.6726512,269.535421 46.2487561,269.304461 C39.4064635,265.480114 33.1869265,260.633947 27.8046097,254.933066 C27.6491815,254.777521 27.5031732,254.617263 27.3336151,254.461718 C26.5847338,253.651 25.8499823,252.826141 25.1387805,251.982428 C24.8750236,251.671339 24.6112667,251.360249 24.3522197,251.039733 C23.5075694,250.009052 22.6927489,248.954804 21.907758,247.876989 C21.7900093,247.721444 21.6769706,247.561186 21.5639319,247.405641 C18.347777,242.953009 15.6814352,238.127521 13.6229639,233.034246 C13.5570247,232.878702 13.4957954,232.718443 13.439276,232.562899 C12.8112833,230.944604 12.2382399,229.299601 11.7201459,227.627887 C11.5081984,226.930292 11.3056707,226.213843 11.1266928,225.516249 C11.0654635,225.308856 11.0089442,225.096749 10.9571348,224.889356 C8.35724486,214.646968 8.06051829,203.999221 8.06051829,193.412749 C8.06051829,192.177818 8.06051829,190.944458 8.06051829,189.712669 C8.13587742,172.588603 8.39963437,155.172301 10.9241651,138.283909 C10.9241651,138.166072 10.9571348,138.048235 10.9759745,137.935112 C11.8209204,132.24962 12.9702307,126.613618 14.4189447,121.051433 C15.9351656,115.215185 17.8729097,109.496837 20.2168875,103.941507 C26.0242503,90.2724208 34.4691825,77.8335521 43.8466839,66.3043846 C67.4670604,37.2929267 98.4443718,12.9383852 134.701532,3.8225185 C173.77053,-5.99565644 217.191517,3.4124459 248.705762,28.5211439 C258.314051,36.1758324 266.947381,45.2398508 277.737866,51.1081311 C287.157757,56.2175414 298.183739,58.333893 308.272442,54.3132962 C316.609046,50.9902941 322.034903,49.3405768 331.398274,49.8449189 C350.782583,50.9423454 369.892149,54.9479411 388.087178,61.7275973 C388.82193,61.9962655 389.556681,62.2743608 390.286723,62.552456 C437.720583,80.7134872 478.494581,116.795162 499.689336,163.161647 C500.251389,164.387151 500.796173,165.622082 501.323687,166.86644 C513.960471,196.405808 518.529118,231.026305 504.587679,259.816229 Z" id="Path" fill="#217E90" fill-rule="nonzero"></path>
                                <g id="Website" transform="translate(78.375000, 57.000000)">
                                    <g id="Rectangle-path" fill-rule="nonzero">
                                        <use fill="black" fill-opacity="1" filter="url(#filter-2)" xlink:href="#path-1"></use>
                                        <use fill="#9CC4FF" xlink:href="#path-1"></use>
                                    </g>
                                    <rect id="Rectangle-4" fill="#FFFFFF" fill-rule="nonzero" x="0" y="9.5" width="352.704873" height="281.255711" rx="3"></rect>
                                    <path d="M6.26039801,0 L346.112955,0 C349.426663,-6.08718376e-16 352.112955,2.6862915 352.112955,6 L352.112955,18.8554042 L0.260398011,18.8554042 L0.260398011,6 C0.260398011,2.6862915 2.94668951,6.08718376e-16 6.26039801,0 Z" id="Rectangle-path" fill="#4BC9E0" fill-rule="nonzero"></path>
                                    <ellipse id="Oval-8" fill="#4B7266" opacity="0.5" cx="13.1606773" cy="9.25442732" rx="3.1876326" ry="3.18509102"></ellipse>
                                    <ellipse id="Oval-8" fill="#4B7266" opacity="0.5" cx="26.3213993" cy="9.25442732" rx="3.1876326" ry="3.18509102"></ellipse>
                                    <ellipse id="Oval-8" fill="#4B7266" opacity="0.5" cx="38.4697581" cy="9.25442732" rx="3.1876326" ry="3.18509102"></ellipse>
                                    <path d="M25.375,129.4375 L327.00137,129.4375 C329.210509,129.4375 331.00137,131.228361 331.00137,133.4375 L331.00137,274.859839 C331.00137,277.068978 329.210509,278.859839 327.00137,278.859839 L25.375,278.859839 C23.165861,278.859839 21.375,277.068978 21.375,274.859839 L21.375,133.4375 C21.375,131.228361 23.165861,129.4375 25.375,129.4375 Z" id="Rectangle-11" fill="#9CC4FF" fill-rule="nonzero" opacity="0.5"></path>
                                    <path d="M23.375,54.625 L150.813442,54.625 C151.918011,54.625 152.813442,55.5204305 152.813442,56.625 L152.813442,65.8703788 C152.813442,66.9749483 151.918011,67.8703788 150.813442,67.8703788 L23.375,67.8703788 C22.2704305,67.8703788 21.375,66.9749483 21.375,65.8703788 L21.375,56.625 C21.375,55.5204305 22.2704305,54.625 23.375,54.625 Z" id="Rectangle-path" fill="#9CC4FF" fill-rule="nonzero" opacity="0.600000024"></path>
                                    <path d="M23.375,78.375 L210.188442,78.375 C211.293011,78.375 212.188442,79.2704305 212.188442,80.375 L212.188442,89.6203788 C212.188442,90.7249483 211.293011,91.6203788 210.188442,91.6203788 L23.375,91.6203788 C22.2704305,91.6203788 21.375,90.7249483 21.375,89.6203788 L21.375,80.375 C21.375,79.2704305 22.2704305,78.375 23.375,78.375 Z" id="Rectangle-path" fill="#9CC4FF" fill-rule="nonzero" opacity="0.600000024"></path>
                                </g>
                                <ellipse id="Oval" fill="#6C63FF" opacity="0.1" cx="52.2644817" cy="340.382393" rx="38.3533537" ry="6.16051829"></ellipse>
                                <g id="Character" transform="translate(292.125000, 133.000000)">
                                    <ellipse id="Oval" fill="#6C63FF" opacity="0.1" cx="68.5824695" cy="240.357241" rx="68.0046494" ry="6.60365854"></ellipse>
                                    <path d="M82.1764482,39.7146341 L82.1764482,45.1192073 L71.089253,50.6932165 C71.089253,50.6932165 60.0802591,44.0330793 62.7955793,41.3829268 C64.5333841,39.7059451 64.1988567,35.1007622 63.7296494,31.9336128 C63.4559451,30.0915396 63.1387957,28.7403963 63.1387957,28.7403963 C63.1387957,28.7403963 82.9150152,23.0925305 79.9259909,27.380564 C78.926753,28.814253 78.8485518,30.6693598 79.1830793,32.5070884 C79.8608232,36.1521341 82.1764482,39.7146341 82.1764482,39.7146341 Z" id="Path" fill="#B8D3FA"></path>
                                    <path d="M51.8039634,92.565625 L50.3746189,110.169588 C50.3746189,110.169588 48.2327744,108.227591 45.4609756,105.699085 C40.3214177,101.011357 33.0226372,94.3077744 33.1095274,94.1296494 C33.2442073,93.8559451 34.4128811,77.8855183 34.538872,73.871189 C34.6576569,71.0217482 35.2783,68.2156181 36.3722561,65.5818598 C36.6329268,65.0605183 37.3671494,61.741311 37.6756098,60.1903201 C37.779878,59.7080793 37.8450457,59.3952744 37.8450457,59.3952744 L40.2432165,58.4307927 C40.2432165,58.4307927 50.2355945,69.578811 50.2355945,69.783003 C50.2355945,69.9871951 49.5535061,78.5502287 49.5535061,78.5502287 L48.8453506,79.1671494 L48.5368902,79.4321646 C48.5368902,79.4321646 48.0589939,83.1727896 47.720122,84.2936738 C47.38125,85.4145579 47.746189,87.3608994 47.7852896,87.569436 C47.7533286,88.1547928 47.6704701,88.7362561 47.5376524,89.3072409 C47.4809583,89.526829 47.4038702,89.7406394 47.3073933,89.9458841 C47.1849531,90.3262009 47.2097606,90.7386263 47.3769055,91.1015244 C47.5699709,91.6052249 47.820727,92.084869 48.1241616,92.5308689 L51.8039634,92.565625 Z" id="Path" fill="#4576B9"></path>
                                    <path d="M112.362119,94.1296494 C112.466387,94.3425305 101.809299,104.069893 97.1910823,108.271037 L95.0970274,110.169588 L93.6807165,92.565625 L97.3518293,92.565625 C97.3518293,92.565625 98.5769817,90.7974085 98.1685976,89.9806402 C97.8839135,89.2191292 97.7240066,88.4166607 97.6950457,87.6041921 C97.6950457,87.6041921 98.0990854,85.431936 97.7602134,84.3067073 C97.4213415,83.1814787 96.9434451,79.4451982 96.9434451,79.4451982 L96.4785823,79.045503 L95.9268293,78.5632622 C95.9268293,78.5632622 95.2447409,70.0002287 95.2447409,69.7960366 C95.2447409,69.5918445 105.237119,58.4438262 105.237119,58.4438262 L107.617912,59.3952744 C107.617912,59.3952744 107.670046,59.6516006 107.756936,60.0599848 C108.07843,61.5414634 108.847409,65.0474848 109.112424,65.5818598 C110.20638,68.2156181 110.827023,71.0217482 110.945808,73.871189 C111.058765,77.8855183 112.223095,93.8559451 112.362119,94.1296494 Z" id="Path" fill="#4576B9"></path>
                                    <path d="M112.405564,243.554802 C111.766921,244.823399 107.283384,243.989253 106.358003,243.919741 C105.432622,243.850229 98.8984756,240.561433 98.8072409,239.792454 C98.7160061,239.023476 96.4525152,237.437729 95.8182165,237.437729 C95.1839177,237.437729 92.1036585,234.987424 91.8299543,234.626829 C91.7605928,234.446961 91.7295193,234.254601 91.7387195,234.062043 C91.6431402,232.571875 91.8299543,228.735671 91.8299543,228.735671 L104.972104,229.461204 L111.358537,239.066921 C111.896806,240.10325 112.285869,241.21047 112.514177,242.355716 C112.591676,242.757661 112.554025,243.173324 112.405564,243.554802 Z" id="Path" fill="#36557E"></path>
                                    <path d="M112.405564,243.554802 C111.766921,244.823399 107.283384,243.989253 106.358003,243.919741 C105.432622,243.850229 98.8984756,240.561433 98.8072409,239.792454 C98.7160061,239.023476 96.4525152,237.437729 95.8182165,237.437729 C95.1839177,237.437729 92.1036585,234.987424 91.8299543,234.626829 C91.7605928,234.446961 91.7295193,234.254601 91.7387195,234.062043 L95.9963415,236.75564 C95.9963415,236.75564 98.7160061,238.493445 99.4415396,239.523095 C100.167073,240.552744 105.884451,242.694588 106.358003,242.738034 C106.709909,242.77279 110.463567,242.051601 112.514177,242.355716 C112.591676,242.757661 112.554025,243.173324 112.405564,243.554802 Z" id="Path" fill="#000000" opacity="0.1"></path>
                                    <path d="M50.2790396,235.626067 C50.2790396,235.626067 48.4195884,237.937348 45.9345274,238.115473 C44.5726521,238.125708 43.4574123,239.200845 43.3973323,240.561433 C43.3973323,240.561433 43.8317835,241.969055 37.8233232,243.919741 C34.1956555,245.088415 31.9147866,244.719131 30.5853659,243.919741 C29.8719093,243.52607 29.3334655,242.877455 29.0778201,242.103735 C28.669436,240.657012 36.6894055,229.643674 36.6894055,229.643674 L43.988186,229.209223 L49.2016006,231.563948 L50.0009909,234.548628 L50.2790396,235.626067 Z" id="Path" fill="#36557E"></path>
                                    <path d="M50.2790396,235.626067 C50.2790396,235.626067 48.4195884,237.937348 45.9345274,238.115473 C44.5726521,238.125708 43.4574123,239.200845 43.3973323,240.561433 C43.3973323,240.561433 43.8317835,241.969055 37.8233232,243.919741 C34.1956555,245.088415 31.9147866,244.719131 30.5853659,243.919741 C34.004497,243.563491 41.5596037,241.404268 42.3155488,240.657012 C43.2235518,239.749009 44.3574695,237.255259 45.1264482,237.211814 C45.6608232,237.177058 48.3761433,235.543521 50.0053354,234.53125 L50.2790396,235.626067 Z" id="Path"></path>
                                    <path d="M50.2790396,235.626067 C50.2790396,235.626067 48.4195884,237.937348 45.9345274,238.115473 C44.5726521,238.125708 43.4574123,239.200845 43.3973323,240.561433 C43.3973323,240.561433 43.8317835,241.969055 37.8233232,243.919741 C34.1956555,245.088415 31.9147866,244.719131 30.5853659,243.919741 C34.004497,243.563491 41.5596037,241.404268 42.3155488,240.657012 C43.2235518,239.749009 44.3574695,237.255259 45.1264482,237.211814 C45.6608232,237.177058 48.3761433,235.543521 50.0053354,234.53125 L50.2790396,235.626067 Z" id="Path" fill="#000000" opacity="0.1"></path>
                                    <path d="M106.240701,225.520732 C105.423933,227.423628 106.240701,231.320655 106.240701,231.320655 C106.240701,231.320655 94.0760671,231.954954 91.1044207,229.960823 C88.1327744,227.966692 86.0300305,216.54497 86.0300305,216.54497 C86.0300305,216.54497 86.4644817,203.13346 86.0300305,202.499162 C85.5955793,201.864863 83.9446646,198.875838 84.4877287,198.24154 C85.0307927,197.607241 84.0532774,194.253277 83.3103659,192.80221 C82.5674543,191.351143 82.8759146,187.184756 82.8759146,187.184756 L81.0599085,176.123628 L78.2533537,162.985823 L75.8682165,154.19253 C75.8682165,154.19253 73.4222561,147.032774 72.5924543,144.04375 C71.7626524,141.054726 70.885061,143.770046 70.885061,143.770046 C70.7981707,146.67218 64.0902439,159.723095 64.0902439,159.723095 C64.0902439,159.723095 63.0910061,167.608384 62.004878,170.414939 C60.91875,173.221494 59.7370427,183.014024 59.7370427,183.014024 C59.7370427,183.014024 57.9992378,202.950991 56.5655488,206.304954 C55.1318598,209.658918 54.1456555,214.642073 54.1456555,214.642073 C54.1456555,214.642073 54.5105945,221.53247 53.6025915,222.075534 C52.6945884,222.618598 52.8423018,226.789329 52.8423018,226.789329 C52.8423018,226.789329 53.3853659,230.773247 51.3,231.41189 C49.2146341,232.050534 49.5621951,233.406021 49.5621951,233.406021 C49.5621951,233.406021 37.9623476,235.308918 36.0594512,230.230183 C34.1565549,225.151448 36.7849848,223.800305 36.9283537,223.435366 C37.0717226,223.070427 38.5184451,222.440473 37.2498476,220.985061 C35.98125,219.529649 38.8790396,215.550076 38.8790396,215.550076 C38.8790396,215.550076 39.3352134,209.932622 40.1476372,209.750152 C40.960061,209.567683 40.6950457,201.413034 40.6950457,201.413034 L41.5987043,192.893445 C41.5987043,192.893445 42.7804116,173.860137 42.5067073,173.134604 C42.233003,172.40907 42.4154726,168.790091 43.3234756,167.052287 C44.2314787,165.314482 44.9526677,149.465701 44.9526677,149.465701 C44.9526677,149.465701 44.7701982,141.675991 45.4957317,140.224924 C45.9301829,139.403811 46.1126524,136.245351 46.2169207,133.669055 C46.295122,131.700991 46.3125,130.071799 46.3125,130.071799 L56.4612805,126.266006 L69.4948171,122.099619 L80.4603659,127.356479 L96.5046494,130.436738 L96.704497,133.204192 L99.767378,175.48064 L101.505183,191.429345 C101.505183,191.429345 102.230716,198.949695 102.321951,200.309527 C102.413186,201.66936 103.316845,210.553887 103.316845,210.553887 C103.316845,210.553887 105.219741,214.811509 104.042378,216.262576 C102.865015,217.713643 103.316845,218.869284 103.316845,218.869284 C103.316845,218.869284 107.05747,223.617835 106.240701,225.520732 Z" id="Path" fill="#3C6399"></path>
                                    <path d="M79.9346799,27.380564 C78.9354421,28.814253 78.8572409,30.6693598 79.1917683,32.5070884 C74.4987002,35.8179515 68.1710545,35.5813541 63.7383384,31.9292683 C63.4646341,30.0871951 63.1474848,28.7360518 63.1474848,28.7360518 C63.1474848,28.7360518 82.9237043,23.096875 79.9346799,27.380564 Z" id="Path" fill="#000000" opacity="0.1"></path>
                                    <path d="M84.5572409,21.8369665 C84.5572409,28.8672314 78.8580851,34.5663872 71.8278201,34.5663872 C64.7975552,34.5663872 59.0983994,28.8672314 59.0983994,21.8369665 C59.0983994,14.8067015 64.7975552,9.10754573 71.8278201,9.10754573 C75.2088345,9.09127381 78.4560754,10.4271795 80.8468413,12.8179453 C83.2376071,15.2087112 84.5735128,18.4559521 84.5572409,21.8369665 Z" id="Path" fill="#B8D3FA"></path>
                                    <polygon id="Path" fill="#558BD4" points="87.2073933 43.5334604 83.0366616 117.802896 60.3800305 113.045655 55.8921494 83.2727134 60.3365854 43.3075457 63.6818598 43.7333079 69.5817073 44.4849085 75.4250762 44.845503 81.759375 44.1416921"></polygon>
                                    <path d="M68.5824695,45.5275915 L76.7414634,45.8012957 L74.447561,49.0118902 C74.447561,49.0118902 74.6083079,55.498247 75.6987805,57.3576982 C76.789253,59.2171494 76.4677591,87.943064 76.4677591,87.943064 L74.295503,92.0660061 L70.5809451,87.4434451 L70.6287348,49.5158537 L68.5824695,45.5275915 Z" id="Path" fill="#305A92"></path>
                                    <polygon id="Path" fill="#000000" opacity="0.1" points="81.3596799 37.0992378 73.7480945 45.5275915 78.0969512 50.0589177 85.304497 43.0338415"></polygon>
                                    <polygon id="Path" fill="#558BD4" points="81.3596799 36.5561738 73.7480945 44.9845274 78.0969512 49.5158537 85.304497 42.4907774"></polygon>
                                    <polygon id="Path" fill="#000000" opacity="0.1" points="70.5331555 45.1192073 62.8259909 37.4163872 62.1004573 41.4480945 65.6368902 50.2848323"></polygon>
                                    <polygon id="Path" fill="#558BD4" points="70.8025152 44.5761433 63.0996951 36.8733232 62.3741616 40.9050305 65.9105945 49.7417683"></polygon>
                                    <path d="M96.7435976,133.217226 C93.0444736,134.979678 89.0822014,136.125801 85.0134146,136.61029 C77.5365091,137.561738 72.6445884,128.047256 72.6445884,128.047256 L69.7902439,131.761814 C68.8822409,135.706631 55.0623476,136.701524 49.4448933,135.207012 C48.2792921,134.919096 47.1831822,134.400585 46.2212652,133.682088 C46.2994665,131.714024 46.3168445,130.084832 46.3168445,130.084832 L56.465625,126.27904 L69.4991616,122.112652 L80.4647104,127.369512 L96.5089939,130.449771 L96.7435976,133.217226 Z" id="Path" fill="#000000" opacity="0.1"></path>
                                    <path d="M87.2073933,43.5378049 L83.0410061,117.802896 L60.3800305,113.045655 L55.8834604,83.2770579 L60.3235518,43.3075457 L63.6688262,43.741997 C63.58331,45.1979321 63.4194293,46.6482039 63.1778963,48.0865091 C62.6348323,50.6280488 65.9887957,68.6621189 65.9887957,68.6621189 C65.9887957,68.6621189 72.3621951,88.8858232 75.2295732,85.9706555 C78.0969512,83.0554878 82.1807927,67.6628811 82.1807927,67.6628811 C84.948247,61.9541921 82.2285823,45.9403201 82.0243902,45.6188262 C81.8821238,45.145255 81.7946617,44.6569246 81.7637195,44.1634146 L87.2073933,43.5378049 Z" id="Path" fill="#000000" opacity="0.1"></path>
                                    <polygon id="Path" fill="#000000" opacity="0.1" points="96.9955793 101.007012 97.1867378 108.28407 95.0926829 110.182622 93.6807165 92.565625 96.8087652 92.565625"></polygon>
                                    <path d="M47.7896341,87.5824695 C47.7576731,88.1678263 47.6748146,88.7492896 47.541997,89.3202744 C47.541997,89.1595274 47.541997,89.0682927 47.5072409,89.0552591 C47.3769055,89.020503 47.5333079,88.3557927 47.7896341,87.5824695 Z" id="Path" fill="#000000" opacity="0.1"></path>
                                    <path d="M51.8039634,92.565625 L50.3746189,110.169588 C50.3746189,110.169588 48.2327744,108.227591 45.4609756,105.699085 L45.7911585,102.579726 C45.7911585,102.579726 46.9598323,94.9160061 47.3855945,91.1362805 C47.5786599,91.639981 47.8294161,92.1196251 48.1328506,92.565625 L51.8039634,92.565625 Z" id="Path" fill="#000000" opacity="0.1"></path>
                                    <path d="M64.0945884,37.1426829 C64.0945884,37.1426829 62.7391006,35.1485518 60.8796494,38.9977896 C60.8796494,38.9977896 56.0311738,41.808689 54.3628811,42.1258384 C52.6945884,42.4429878 46.7599848,44.5283537 46.7599848,44.5283537 C45.8637039,45.1762484 44.7856576,45.5244467 43.6797256,45.523247 C41.8202744,45.523247 40.2779726,49.6027439 40.5038872,51.8227896 C40.7298018,54.0428354 40.3692073,55.676372 38.6487805,55.7676067 C36.9283537,55.8588415 37.8754573,59.434375 37.8754573,59.434375 L49.340625,72.5765244 C49.340625,72.5765244 50.0661585,84.6759909 49.705564,85.0409299 C49.3449695,85.4058689 48.0285823,88.9509909 48.3457317,89.0726372 C48.6628811,89.1942835 46.6079268,102.575381 46.6079268,102.575381 L43.8448171,128.54253 C43.8448171,128.54253 43.8448171,132.887043 49.4666159,134.385899 C55.0884146,135.884756 68.916997,134.894207 69.807622,130.94939 L72.6619665,127.230488 C72.6619665,127.230488 77.5538872,136.749314 85.0307927,135.797866 C92.5076982,134.846418 97.2692835,132.126753 97.2692835,132.126753 L96.4525152,101.007012 L95.9094512,78.5762957 L107.583155,59.3952744 C107.583155,59.3952744 104.455107,53.4128811 104.728811,50.70625 C105.002515,47.9996189 105.541235,45.9490091 98.8810976,44.997561 C98.8810976,44.997561 93.2636433,44.1590701 89.953125,41.8695122 C87.9857305,40.5034775 85.8358235,39.4212114 83.5666921,38.6545732 C83.5666921,38.6545732 81.6985518,35.1789634 80.3995427,36.3693598 C80.3995427,36.3693598 81.7028963,41.283003 81.5942835,42.0172256 C81.4856707,42.7514482 81.7984756,46.0706555 82.0026677,46.413872 C82.2068598,46.7570884 84.9265244,62.7492378 82.1590701,68.4579268 C82.1590701,68.4579268 78.0969512,83.8505335 75.2078506,86.7657012 C72.31875,89.6808689 65.9670732,69.4571646 65.9670732,69.4571646 C65.9670732,69.4571646 62.6131098,51.41875 63.1561738,48.8815549 C63.6992378,46.3443598 64.0945884,37.1426829 64.0945884,37.1426829 Z" id="Path" fill="#4576B9"></path>
                                    <circle id="Oval" fill="#305A92" cx="73.7915396" cy="94.5597561" r="1.9941311"></circle>
                                    <circle id="Oval" fill="#305A92" cx="73.7915396" cy="103.96128" r="1.9941311"></circle>
                                    <path d="M91.7126524,222.801067 C91.7126524,222.801067 99.8977134,223.435366 100.710137,224.069665 C101.522561,224.703963 91.7126524,222.801067 91.7126524,222.801067 Z" id="Path" stroke="#6C63FF" fill="#000000" opacity="0.1"></path>
                                    <path d="M42.9802591,216.366845 C42.9802591,216.366845 44.718064,218.539101 43.979497,219.538338 C43.2409299,220.537576 42.9802591,216.366845 42.9802591,216.366845 Z" id="Path" stroke="#6C63FF" fill="#000000" opacity="0.1"></path>
                                    <path d="M45.065625,224.2 C45.065625,224.2 48.2371189,222.114634 49.5057165,223.500534 C50.774314,224.886433 45.065625,224.2 45.065625,224.2 Z" id="Path" stroke="#6C63FF" fill="#000000" opacity="0.1"></path>
                                    <path d="M84.5572409,21.8369665 C84.5596815,22.9231307 84.4224277,24.0050994 84.1488567,25.05625 C83.6001748,24.8059614 83.2643081,24.241567 83.3060213,23.639939 C83.3625,23.1229421 83.7057165,22.6493902 83.6318598,22.1367378 C83.523247,21.3460366 82.5674543,21.0245427 82.0634909,20.3989329 C81.4422256,19.6429878 81.5769055,18.5438262 81.6290396,17.566311 C81.6811738,16.5887957 81.4335366,15.3940549 80.5168445,15.0595274 C80.2431402,14.9596037 79.9433689,14.9509146 79.6783537,14.8379573 C78.9571646,14.5338415 78.7355945,13.638872 78.2533537,13.0219512 C77.288872,11.7794207 75.3729421,11.8054878 73.9088415,12.3963415 C73.2715709,12.7018736 72.6190354,12.9744885 71.953811,13.2131098 C71.2804465,13.4506261 70.5384086,13.3954853 69.9075457,13.0610518 C69.6208079,12.8785823 69.3905488,12.6266006 69.095122,12.4441311 C68.1132622,11.8532774 66.8272866,12.4441311 65.9757622,13.2044207 C65.1242378,13.9647104 64.4421494,14.9856707 63.3690549,15.4505335 C62.886814,15.6677591 62.2916159,15.7980945 62.0657012,16.2673018 C61.9538788,16.5227437 61.9061538,16.8016364 61.9266768,17.0797256 C61.9266768,18.7697409 62.1265244,20.4858232 61.7746189,22.1410823 C61.5487043,23.2054878 60.8014482,24.4132622 59.7196646,24.2829268 C59.5848598,24.2629805 59.4524074,24.2295035 59.324314,24.183003 C58.4362349,19.4375457 60.3091466,14.598093 64.1604497,11.6868192 C68.0117528,8.77554545 73.1785487,8.29354831 77.5018822,10.4422312 C81.8252156,12.5909141 84.5609408,17.0004389 84.5659299,21.8282774 L84.5572409,21.8369665 Z" id="Path" fill="#000000" opacity="0.1"></path>
                                    <path d="M58.7551829,23.461814 C59.0810213,23.5356707 59.3894817,23.7051067 59.7240091,23.7485518 C60.8057927,23.8788872 61.5530488,22.6711128 61.7789634,21.6067073 C62.1308689,19.9514482 61.9483994,18.2353659 61.9353659,16.5453506 C61.9111015,16.2675211 61.9574285,15.9880647 62.0700457,15.7329268 C62.3176829,15.2637195 62.9128811,15.1333841 63.3733994,14.9161585 C64.4247713,14.4469512 65.1112043,13.4477134 65.9801067,12.6700457 C66.8490091,11.892378 68.1132622,11.3189024 69.095122,11.9097561 C69.3862043,12.0835366 69.6208079,12.3442073 69.9075457,12.5266768 C70.54137,12.8562067 71.2826597,12.9111752 71.9581555,12.6787348 C72.6315549,12.4788872 73.2615091,12.1269817 73.9088415,11.8619665 C75.3599085,11.2711128 77.2801829,11.2493902 78.2533537,12.4832317 C78.7355945,13.104497 78.9571646,13.995122 79.6783537,14.2992378 C79.9433689,14.4121951 80.2431402,14.4252287 80.5168445,14.5251524 C81.4335366,14.8683689 81.6681402,16.0544207 81.6290396,17.031936 C81.589939,18.0094512 81.4596037,19.1086128 82.0634909,19.8645579 C82.5674543,20.4814787 83.523247,20.8029726 83.6318598,21.6023628 C83.701372,22.1150152 83.3625,22.5929116 83.3060213,23.105564 C83.2798765,23.4904367 83.4089898,23.8697445 83.6645136,24.1587395 C83.9200375,24.4477345 84.2806764,24.6223317 84.6658537,24.6435213 C85.7954268,24.6435213 86.4948933,23.3792683 87.5506098,22.9752287 C87.985061,22.8057927 88.510747,22.7797256 88.8539634,22.4365091 C89.1121941,22.1026077 89.2106836,21.6721129 89.1233232,21.2591463 C88.9104421,19.5951982 87.5766768,18.1484756 87.7200457,16.4801829 C87.8547256,14.8814024 89.3362043,13.486814 89.0233994,11.9141006 C88.8640631,11.3341937 88.5658276,10.8018433 88.154497,10.3631098 C87.6887986,9.73192415 87.0817305,9.21859454 86.381936,8.86425305 C85.7780488,8.60358232 85.0785823,8.54275915 84.5268293,8.22560976 C82.8846037,7.32629573 82.8889482,4.98025915 81.920122,3.38147866 C81.0724363,2.03448781 79.5436644,1.27345444 77.9579268,1.40907012 C76.7371189,1.53071646 75.6292683,2.17804878 74.4214939,2.39527439 C72.7662348,2.69070122 71.089253,2.1476372 69.5208841,1.52637195 C67.9525152,0.905106707 66.3667683,0.223018293 64.6854421,0.223018293 C63.0041159,0.223018293 61.1837652,1.09192073 60.6711128,2.6820122 C60.401753,3.55091463 60.5364329,4.48064024 60.3278963,5.3538872 C59.9629573,6.90487805 58.5900915,8.00838415 57.2085366,8.7773628 C56.2570884,9.30739329 55.1144817,9.915625 55.0015244,10.9974085 C54.9276677,11.6838415 55.3056402,12.3007622 55.5445884,12.9654726 C55.9509918,14.0899892 55.9417458,15.3227879 55.5185213,16.4410823 C55.201372,17.2621951 54.6713415,17.9833841 54.3498476,18.8001524 C53.8882962,19.9214543 53.9294198,21.1867958 54.4628049,22.2757622 C54.872025,23.0690685 55.5903166,23.6584762 56.448247,23.9049543 C57.3041159,24.1091463 57.8428354,23.2619665 58.7551829,23.461814 Z" id="Path" fill="#36557E"></path>
                                    <g id="Group" opacity="0.1" transform="translate(53.698171, 10.224085)" fill="#000000">
                                        <path d="M8.08079268,10.4355183 C7.85487805,11.4999238 7.10327744,12.7076982 6.0214939,12.5773628 C5.68696646,12.5339177 5.38285061,12.3644817 5.05266768,12.290625 C4.14466463,12.0907774 3.60594512,12.9423018 2.75007622,12.7250762 C1.89100962,12.4787189 1.17131491,11.8894492 0.760289634,11.0958841 C0.533067945,10.6536791 0.395742358,10.1708246 0.35625,9.67522866 C0.269717363,10.4444844 0.410168016,11.2222488 0.760289634,11.9126524 C1.17131491,12.7062175 1.89100962,13.2954872 2.75007622,13.5418445 C3.61897866,13.7416921 4.14466463,12.8901677 5.05266768,13.1073933 C5.37055806,13.2180616 5.69392674,13.3123171 6.0214939,13.3897866 C7.10327744,13.5244665 7.85487805,12.3166921 8.08079268,11.2522866 C8.25890714,10.3119015 8.32887407,9.3542292 8.28932927,8.39794207 C8.28512957,9.08223975 8.21529756,9.76455675 8.08079268,10.4355183 Z" id="Path"></path>
                                        <path d="M2.12881098,3.89268293 C2.18415116,3.18076663 2.0863793,2.46525438 1.84207317,1.79428354 C1.64554332,1.34813891 1.47864173,0.889522359 1.34245427,0.421417683 C1.32379954,0.494394599 1.30929459,0.568369854 1.29900915,0.642987805 C1.22515244,1.32507622 1.60746951,1.94634146 1.84207317,2.61105183 C1.99377625,3.02374115 2.09019266,3.45469328 2.12881098,3.89268293 Z" id="Path"></path>
                                        <path d="M35.3208841,1.603125 C35.1166921,2.83696646 34.1174543,3.99695122 34.0175305,5.29596037 C33.9934431,5.51832826 33.9934431,5.74264735 34.0175305,5.96501524 C34.2347561,4.44878049 35.5772104,3.10632622 35.3208841,1.603125 Z" id="Path"></path>
                                        <path d="M35.3947409,10.7700457 C35.3578982,10.951714 35.2722912,11.1199241 35.1471037,11.2566311 C34.8256098,11.5998476 34.2782012,11.6259146 33.84375,11.7953506 C32.7880335,12.1993902 32.1059451,13.4766768 30.9589939,13.4636433 C30.3578842,13.429594 29.8397917,13.0289358 29.6556402,12.4557165 C29.6291563,12.5498724 29.6088388,12.6456548 29.5948171,12.7424543 C29.5698819,13.1266036 29.6995421,13.5047814 29.9549394,13.7928173 C30.2103366,14.0808532 30.5702771,14.2548448 30.9546494,14.2760671 C32.0885671,14.2760671 32.783689,13.011814 33.8394055,12.6121189 C34.2738567,12.4426829 34.8038872,12.4166159 35.1427591,12.0733994 C35.4009898,11.7394979 35.4994794,11.3090032 35.4121189,10.8960366 C35.4077744,10.8439024 35.3990854,10.8091463 35.3947409,10.7700457 Z" id="Path"></path>
                                        <path d="M29.9467226,10.4094512 C29.8381098,9.61875 28.8823171,9.2972561 28.3783537,8.67164634 C28.0693662,8.26070891 27.9017097,7.76078762 27.9004573,7.24664634 C27.8657012,8.05472561 27.8787348,8.88018293 28.3783537,9.48841463 C28.8779726,10.0966463 29.6382622,10.3573171 29.8815549,10.9829268 C29.9430291,10.7984039 29.965227,10.6030626 29.9467226,10.4094512 Z" id="Path"></path>
                                        <path d="M27.9265244,5.86074695 C27.9612805,4.88323171 27.7266768,3.68849085 26.8099848,3.35396341 C26.540625,3.25403963 26.2408537,3.2410061 25.9758384,3.13239329 C25.2546494,2.82827744 25.0287348,1.93330793 24.5508384,1.3163872 C23.5820122,0.0782012195 21.6660823,0.0999237805 20.2063262,0.690777439 C19.5546494,0.955792683 18.9333841,1.30769817 18.2556402,1.50754573 C17.5822758,1.74506204 16.8402379,1.68992123 16.209375,1.3554878 C15.9226372,1.17301829 15.6880335,0.921036585 15.3969512,0.738567073 C14.410747,0.147713415 13.1247713,0.738567073 12.2775915,1.49885671 C11.4304116,2.25914634 10.7439787,3.2757622 9.67088415,3.74496951 C9.18429878,3.96219512 8.59344512,4.09253049 8.34146341,4.5617378 C8.23095618,4.81750081 8.18471803,5.09642128 8.20678354,5.37416159 C8.20678354,5.54359756 8.20678354,5.71303354 8.20678354,5.88246951 C8.21254068,5.70744422 8.25548938,5.53564942 8.33277439,5.3785061 C8.5847561,4.90929878 9.17560976,4.77896341 9.66219512,4.5617378 C10.7135671,4.09253049 11.4,3.09329268 12.2689024,2.315625 C13.1378049,1.53795732 14.4020579,0.964481707 15.3882622,1.55533537 C15.6793445,1.72911585 15.9139482,1.98978659 16.200686,2.16791159 C16.8309393,2.50445242 17.5738781,2.55966019 18.2469512,2.31996951 C18.9109909,2.08359308 19.5621213,1.81240961 20.1976372,1.50754573 C21.6530488,0.916692073 23.5689787,0.890625 24.5421494,2.12881098 C25.0200457,2.74573171 25.2459604,3.64070122 25.9671494,3.94481707 C26.2321646,4.05777439 26.531936,4.07080793 26.8012957,4.17073171 C27.5442073,4.44878049 27.8396341,5.28292683 27.9048018,6.10838415 L27.9265244,5.86074695 Z" id="Path"></path>
                                    </g>
                                    <path d="M60.2279726,20.3511433 C60.2791131,18.8698971 61.3024499,17.6004637 62.7391006,17.236128 C64.6767145,16.7657334 66.7082943,16.8576669 68.595503,17.5011433 C72.7184451,18.8696646 68.0741616,23.7746189 68.0741616,23.7746189 C68.0741616,23.7746189 64.9852134,26.8157774 62.1048018,24.691311 C61.2523485,24.0498645 60.6562783,23.1257248 60.4234756,22.0846037 C60.2819896,21.5179621 60.2162492,20.9350641 60.2279726,20.3511433 Z" id="Path" fill="#40618C"></path>
                                    <path d="M82.8932927,20.3511433 C82.8416152,18.868651 81.8161894,17.5988232 80.3778201,17.236128 C78.4416768,16.7656104 76.4114521,16.8575508 74.5257622,17.5011433 C70.4028201,18.8696646 75.0471037,23.7746189 75.0471037,23.7746189 C75.0471037,23.7746189 78.1317073,26.8157774 81.0164634,24.691311 C81.8689168,24.0498645 82.4649869,23.1257248 82.6977896,22.0846037 C82.8392756,21.5179621 82.905016,20.9350641 82.8932927,20.3511433 Z" id="Path" fill="#40618C"></path>
                                    <polygon id="Path" fill="#36557E" points="67.8178354 17.1101372 67.8178354 17.3186738 75.346875 17.3186738 75.346875 17.0710366"></polygon>
                                    <path d="M70.2203506,19.2867378 L70.4592988,19.2867378 L70.4592988,18.5959604 C70.4592988,18.5959604 71.2239329,18.0051067 72.4925305,18.5959604 L72.4925305,19.2172256 L72.9269817,19.2172256 L72.9269817,18.8088415 L72.7141006,18.8088415 C72.7141006,18.8088415 72.8009909,17.9746951 71.3846799,18.1050305 C71.3846799,18.1050305 70.2464177,18.0007622 70.2724848,18.7176067 L70.011814,18.7176067 L70.2203506,19.2867378 Z" id="AAAAAAAAAAAA" fill="#6C63FF"></path>
                                </g>
                                <g id="Group-16" transform="translate(206.625000, 155.562500)" fill-rule="nonzero">
                                    <rect id="Rectangle" fill="#2C8257" x="21.9549419" y="57.0828488" width="46.8372093" height="57.0828488"></rect>
                                    <path d="M84.5265262,43.4616814 L77.2706856,43.4616814 L77.2706856,29.3676797 C77.2706856,13.4637341 64.590368,0.242575166 48.6864223,0.00160629197 C40.9405928,-0.0797746333 33.4827087,2.93408232 27.9682051,8.37418785 C22.4537015,13.8142934 19.338827,21.2305543 19.314994,28.9767747 L19.314994,43.4616814 L12.075218,43.4616814 C5.41480226,43.4822611 0.0205796706,48.8764837 1.42108547e-13,55.5368995 L1.42108547e-13,113.487236 C0.0205796706,120.147652 5.41480226,125.541875 12.075218,125.562454 L84.5265262,125.562454 C91.1860672,125.54186 96.5787487,120.146786 96.5963893,113.487236 L96.5963893,55.5368995 C96.5787487,48.87735 91.1860672,43.482276 84.5265262,43.4616814 Z M52.5312145,81.1331488 L52.5312145,101.888601 C52.5457415,104.169181 50.7896229,106.070472 48.5150666,106.236751 C47.3587007,106.2909 46.2305587,105.869402 45.3929947,105.070277 C44.5554306,104.271152 44.0814357,103.164041 44.0812394,102.006408 L44.0812394,81.122439 C40.0472961,79.1551635 37.9049605,74.6640282 38.9144671,70.2909552 C39.9239736,65.9178821 43.8181459,62.8202507 48.306227,62.8202507 C52.794308,62.8202507 56.6884803,65.9178821 57.6979869,70.2909552 C58.7074934,74.6640282 56.5651578,79.1551635 52.5312145,81.122439 L52.5312145,81.1331488 Z M68.8314202,43.4616814 L27.7649692,43.4616814 L27.7649692,28.9767747 C27.7649692,17.6410235 36.9544112,8.45158148 48.2901624,8.45158148 C59.6259136,8.45158148 68.8153556,17.6410235 68.8153556,28.9767747 L68.8314202,43.4616814 Z" id="Shape" fill="#2DA569"></path>
                                </g>
                                <rect id="Rectangle" fill="#535461" x="51.0306402" y="222.376753" width="2.46768293" height="55.566311"></rect>
                                <path d="M69.0082317,277.773628 L68.8518293,280.276067 L68.6346037,283.808155 L68.5433689,285.280945 L68.3261433,288.817378 L68.230564,290.290168 L68.0133384,293.822256 L65.5239329,333.99596 C65.3035242,337.584616 62.3288781,340.382268 58.7334604,340.382393 L45.795503,340.382393 C42.2009046,340.382132 39.2275775,337.58393 39.009375,333.99596 L36.506936,293.822256 L36.2897104,290.290168 L36.1984756,288.817378 L35.9855945,285.272256 L35.8943598,283.799466 L35.6771341,280.267378 L35.5207317,277.764939 C35.4607689,276.794196 35.8047373,275.841844 36.4711641,275.133457 C37.1375909,274.42507 38.067194,274.023663 39.0397866,274.024314 L65.4935213,274.024314 C66.4673778,274.023429 67.398059,274.42615 68.0640924,275.13664 C68.7301258,275.847131 69.0719536,276.801858 69.0082317,277.773628 Z" id="Path" fill="#36557E"></path>
                                <polygon id="Path" fill="#9D9CB5" opacity="0.200000003" points="68.8518293 280.276067 68.6346037 283.808155 35.8900152 283.808155 35.6727896 280.276067"></polygon>
                                <polygon id="Path" fill="#9D9CB5" opacity="0.200000003" points="68.5433689 285.280945 68.3261433 288.817378 36.2028201 288.817378 35.98125 285.280945"></polygon>
                                <polygon id="Path" fill="#9D9CB5" opacity="0.200000003" points="68.230564 290.290168 68.0133384 293.822256 36.515625 293.822256 36.2940549 290.290168"></polygon>
                                <path d="M31.9060976,243.204345 C46.2777439,253.600762 52.2644817,269.866616 52.2644817,269.866616 C52.2644817,269.866616 34.9429116,269.271418 20.5495427,258.875 C6.15617378,248.478582 0.191158537,232.212729 0.191158537,232.212729 C0.191158537,232.212729 17.5301067,232.807927 31.9060976,243.204345 Z" id="Path" fill="#4BC9E0"></path>
                                <path d="M0.212881098,232.212729 C0.212881098,232.212729 18.1904726,242.205107 23.9556402,250.45968 C29.7208079,258.714253 52.2644817,269.87096 52.2644817,269.87096" id="Path" stroke="#535461" stroke-width="2"></path>
                                <path d="M41.1816311,222.276829 C49.001753,227.924695 52.2644817,236.7875 52.2644817,236.7875 C52.2644817,236.7875 42.8368902,236.466006 35.0124238,230.805107 C27.1879573,225.144207 23.9339177,216.294436 23.9339177,216.294436 C23.9339177,216.294436 33.3615091,216.594207 41.1816311,222.276829 Z" id="Path" fill="#4BC9E0"></path>
                                <path d="M23.9339177,216.272713 C23.9339177,216.272713 33.7177591,221.703354 36.854497,226.199924 C39.9912348,230.696494 52.2644817,236.765777 52.2644817,236.765777" id="Path" stroke="#535461" stroke-width="2"></path>
                                <path d="M63.6340701,236.318293 C54.6452744,246.193369 52.7467226,259.09657 52.7467226,259.09657 C52.7467226,259.09657 65.4153201,255.990244 74.3997713,246.115168 C83.3842226,236.240091 85.2871189,223.332546 85.2871189,223.332546 C85.2871189,223.332546 72.6185213,226.438872 63.6340701,236.318293 Z" id="Path" fill="#4BC9E0"></path>
                                <path d="M85.2871189,223.332546 C85.2871189,223.332546 73.583003,233.455259 70.6070122,240.432546 C67.6310213,247.409832 52.7467226,259.113948 52.7467226,259.113948" id="Path" stroke="#535461" stroke-width="2"></path>
                            </g>
                        </g>
                    </g>
                </g>
            </g>
        </g>
    </g>
</svg>