<?xml version="1.0" encoding="UTF-8"?>
<svg width="380px" height="290px" viewBox="0 0 380 290" version="1.1" xmlns="http://www.w3.org/2000/svg" xmlns:xlink="http://www.w3.org/1999/xlink">
    <!-- Generator: Sketch 52.6 (67491) - http://www.bohemiancoding.com/sketch -->
    <title>lock (1)</title>
    <desc>Created with Sketch.</desc>
    <defs>
        <linearGradient x1="49.9777586%" y1="99.9920101%" x2="49.9777586%" y2="-0.0136237968%" id="linearGradient-1">
            <stop stop-color="#808080" stop-opacity="0.25" offset="0%"></stop>
            <stop stop-color="#808080" stop-opacity="0.12" offset="54%"></stop>
            <stop stop-color="#808080" stop-opacity="0.1" offset="100%"></stop>
        </linearGradient>
    </defs>
    <g id="Home-Page" stroke="none" stroke-width="1" fill="none" fill-rule="evenodd">
        <g id="Data-Privacy-Page" transform="translate(-188.000000, -691.000000)">
            <g id="Group-10" transform="translate(188.000000, 691.000000)">
                <g id="lock-(1)">
                    <path d="M273.087094,124.977241 L273.087094,249.114344 C273.087094,266.475771 259.010509,280.546251 241.649082,280.543197 L34.3010753,280.543198 C51.6625016,280.546251 65.7360343,266.475771 65.7360343,249.114344 L65.7360343,124.977241 C65.7360343,107.618868 79.8065135,93.545335 97.164888,93.5483876 L241.649082,93.5483876 C259.010509,93.545335 273.087094,107.615814 273.087094,124.977241 Z" id="Path" fill="#E48E66"></path>
                    <path d="M234.982197,87.3844854 L234.982197,93.789316 L97.6110896,93.789316 C80.2527151,93.7862634 66.1791832,107.859796 66.1822359,125.21817 L66.1822359,249.355273 C66.1822359,266.716699 52.1056506,280.787179 34.7472768,280.784126 L31.4380116,280.784126 C14.0765853,280.787179 0,266.716699 0,249.355273 L0,51.1810103 C0,33.8195832 14.0765853,19.7460511 31.4380116,19.7491039 L101.958315,19.7491039 C110.78709,19.7491039 119.206787,23.4582889 125.162853,29.9730212 L146.566222,53.391257 C148.056002,55.0214662 150.162453,55.9525791 152.372699,55.9525791 L203.544184,55.9525791 C220.905611,55.9495256 234.982197,70.0230583 234.982197,87.3844854 Z" id="Path" fill="#F8EC7D"></path>
                    <g id="Character-4" transform="translate(330.349962, 140.000000) scale(-1, 1) translate(-330.349962, -140.000000) translate(280.849962, 0.000000)">
                        <path d="M97.0932884,100.342235 C97.0932884,100.342235 95.3054602,100.092665 95.3054602,97.4926003 C95.3054602,94.8925354 94.0258471,90.0236531 94.0258471,90.0236531 C94.0258471,90.0236531 92.9186642,81.5518886 91.3894812,80.2087486 C89.8602982,78.8656086 87.8955023,70.979199 87.8955023,70.979199 C87.8955023,70.979199 87.5597173,66.7002092 86.8745344,65.7790693 C86.1893515,64.8579294 85.263674,62.6027248 83.8978458,59.3855416 C82.5320177,56.1683584 76.8508987,53.9630678 76.8508987,53.9630678 C76.8508987,53.9630678 66.5550049,47.9915402 63.6373056,46.0448948 C63.3704657,45.8835668 63.1210746,45.6950028 62.8931335,45.482228 C62.3849184,44.8197333 60.1705525,44.8061204 60.1705525,44.8061204 C59.9391331,43.3404643 59.716789,41.6615394 59.6441868,40.1414316 C59.6441868,39.9780768 59.6441868,39.8147219 59.6441868,39.6513671 C62.8976291,37.7282289 65.3481816,34.6960529 66.5459296,31.111538 C66.6003813,30.9391079 66.6457576,30.7621401 66.6956716,30.5851724 C67.0984045,30.4608805 67.4287113,30.1702105 67.6031986,29.7865486 C67.8618438,29.2011937 67.8709191,28.5205484 68.1976288,27.9714946 C68.5787901,27.3271504 69.3048117,26.9822902 69.8765537,26.5013009 C71.3195217,25.2716018 71.6916077,23.2069779 71.6235432,21.3329346 C71.5781668,19.8082893 71.3331346,18.2745686 71.4284249,16.7635362 C71.4284249,16.6364824 71.4284249,16.5094286 71.4556507,16.3823749 C71.4828765,16.1600307 71.51464,15.9286114 71.5554787,15.7108049 C71.7778228,14.5854714 72.2633497,13.5236648 72.5356078,12.4074066 C72.8078659,11.2911484 72.8350917,10.0342235 72.1998228,9.07224489 C71.2696077,7.6610404 69.3320375,7.37970704 67.6304244,7.25719089 C65.7019295,7.09383603 64.0003164,7.30256724 62.7433915,5.70078209 C62.1668386,4.86418385 61.5169003,4.08061337 60.8012838,3.35936244 C60.5471762,3.12340542 58.0787028,1.61237297 58.0787028,1.51708263 C55.663468,0.394134496 52.9234883,0.182994883 50.3647233,0.922652448 C49.0805726,1.29473852 47.8780993,1.90278161 46.5757981,2.20680315 C43.7806149,2.86929786 40.5588941,2.15235153 38.1811733,3.75413668 C36.8561839,4.66166368 36.0620978,6.10916924 35.3179257,7.51129845 C34.7129077,8.66688283 34.0988144,9.82397975 33.4756459,10.9825892 C32.4682909,12.8838583 31.4518606,14.8168908 31.0298606,16.9223534 C30.9415711,17.3822357 30.8854707,17.8477169 30.8619681,18.3154074 C30.8619681,18.4832999 30.8619681,18.6511923 30.8619681,18.8190848 C30.8619681,18.891687 30.8619681,18.9642892 30.8619681,19.0368913 C30.8619681,19.1911709 30.8619681,19.3454505 30.8891939,19.4906548 C30.9164197,19.6358591 30.8891939,19.6766979 30.9209574,19.7719882 C30.9527208,19.8672785 30.9617961,20.0805474 30.9890219,20.2257517 C31.0162477,20.370956 31.0706993,20.6296012 31.1251509,20.8247195 C31.1251509,20.9109346 31.1796025,20.992612 31.2068284,21.0788271 C31.2340542,21.1650421 31.3066563,21.3828486 31.3656456,21.5325906 C31.4246348,21.6823325 31.4291725,21.6914078 31.4654736,21.7685476 C31.5335381,21.9273648 31.6152155,22.0816444 31.6968929,22.2223111 C31.733194,22.2813003 31.7604198,22.3402896 31.7967209,22.3992788 C31.9211515,22.6116846 32.0606639,22.8148875 32.2141833,23.0073219 C33.1806996,24.2188705 34.6145922,24.9902684 35.6718612,26.1246772 C35.6718612,26.1700535 35.6718612,26.2154299 35.6718612,26.2608062 C35.6718612,26.3833224 35.6718612,26.5058385 35.6718612,26.6328923 C35.8032345,31.7700554 38.46696,36.5097201 42.7868728,39.2928939 C42.7868728,39.465324 42.809561,39.6422918 42.8186363,39.8192596 C42.9071212,41.1646723 42.8904325,42.5149399 42.7687223,43.8577547 C42.3936425,43.4180142 41.8400099,43.1712141 41.2622275,43.1861847 C41.0672557,43.1764993 40.8718708,43.1932901 40.6814102,43.2360987 L40.6405715,43.2043353 L40.6405715,43.245174 C39.6422918,43.4902063 38.4125927,44.5293247 37.2373453,47.4833251 C37.2373453,47.4833251 33.6616889,51.5127449 30.9391079,51.3448524 C28.2165269,51.1769599 21.3238594,55.5421648 21.3238594,55.5421648 C21.3238594,55.5421648 14.5990843,59.902832 13.1561164,64.3497143 C12.3494624,66.8719277 11.3809349,69.3394751 10.2565676,71.7369841 L1.92093214,88.8529432 L0.391749154,102.465848 C0.391749154,102.465848 1.2402869,108.50544 1.0723944,109.431118 C0.904501908,110.356795 4.56183571,118.660667 4.56183571,118.660667 C4.56183571,118.660667 16.6455577,139.887724 21.5825045,140.976756 L21.9364401,140.731724 C22.1486218,140.83878 22.3724455,140.921001 22.6034724,140.976756 L23.6199027,140.264348 C23.6828244,141.061991 23.6554248,141.86419 23.5382252,142.655681 C22.8621176,144.756606 23.7968704,158.433038 24.9857308,161.11478 C26.1745912,163.796523 25.7525911,198.963194 25.7525911,198.963194 L25.5846986,202.062399 C25.5846986,202.062399 25.5846986,202.162227 25.6255373,202.334657 L25.5846986,203.069754 L25.7072148,203.13328 C25.8343355,204.119277 25.7929066,205.119709 25.5846986,206.091818 C25.1581609,207.453109 24.9857308,211.296486 24.9857308,211.296486 C24.9857308,211.296486 21.5825045,233.022682 23.1979026,237.387887 C24.8133007,241.753092 26.1791288,246.535759 26.1791288,246.535759 C26.1791288,246.535759 27.8807419,251.980921 26.2608062,252.888448 C24.6408705,253.795975 20.0533216,255.406835 20.9880744,257.671115 C21.850225,259.767503 25.1218598,265.385095 25.6073868,266.206407 L25.5665481,266.66017 L24.8995157,273.888623 C25.0075282,274.843037 25.2663695,275.774253 25.666376,276.647505 C26.3969353,278.226602 27.8126774,279.855613 30.5171078,279.678645 C30.9708713,279.646882 31.4926994,279.596968 32.0054521,279.528903 C36.9469366,278.861871 43.0273675,276.65658 43.0273675,276.65658 C42.7121028,276.456906 42.4238617,276.217468 42.1697545,275.944171 C41.6788962,275.468703 41.4049166,274.812464 41.4119694,274.129117 C41.4845716,272.808666 39.0206358,266.542192 38.4035174,264.994858 L38.2628508,264.649998 C38.2628508,264.649998 43.8804429,258.773761 42.9456901,253.573631 C42.9456901,253.573631 36.7291301,249.943523 38.7756035,247.946964 C40.8220769,245.950404 44.4794107,240.232984 44.4794107,240.232984 C44.4794107,240.232984 44.6473032,218.838035 44.4794107,215.648078 C44.3043976,213.42935 44.4095913,211.197412 44.7925075,209.00498 C44.860572,208.67827 44.9422495,208.356098 45.0284645,208.033926 C47.8611697,208.461406 50.7216688,208.678294 53.5864441,208.682808 C54.6331253,208.682808 55.6919068,208.661632 56.7627886,208.619281 C56.7627886,208.92179 56.7764015,209.2485 56.8036273,209.59941 C57.0395843,214.899368 57.4797349,224.196982 57.8382081,227.650122 C58.3464232,232.596144 61.1552193,245.941329 61.1552193,245.941329 C61.1552193,245.941329 55.7962724,249.376319 62.0899721,257.857158 C62.0899721,257.857158 62.0899721,260.9246 61.6725097,261.373825 C61.2264927,262.828963 60.8673859,264.309331 60.5970902,265.807095 C60.3339073,267.399805 60.2250041,269.01974 60.6515418,269.854665 C61.6725097,271.8603 67.7983169,271.696945 67.7983169,271.696945 C67.8475606,271.685477 67.8976283,271.677891 67.9480589,271.674257 C70.283819,271.427368 72.6206953,272.130557 74.4323393,273.62544 C76.760146,275.494946 85.5903837,274.678171 90.3775886,274.079203 C92.2516319,273.838709 93.5040191,273.62544 93.5040191,273.62544 C93.5642422,273.413212 93.5857611,273.191874 93.567546,272.972021 C93.517632,271.796773 92.5964921,269.219396 86.3527064,266.918815 C86.3527064,266.918815 80.4810067,262.971073 80.5626841,259.531546 L80.4310927,259.531546 L79.7549851,259.531546 C80.1815228,259.517933 80.4810067,259.517933 80.4810067,259.517933 C80.4810067,259.517933 78.1804258,251.127846 79.1197162,250.442663 C80.0590066,249.75748 77.2456729,240.459866 77.2456729,240.459866 C77.2456729,240.459866 75.6348125,224.850401 75.5440598,223.761369 C75.55006,222.822818 75.6937705,221.890229 75.9705975,220.993412 L75.5440598,212.430895 C75.5440598,212.430895 75.4623824,209.585797 75.5440598,208.66012 C75.5349941,207.85659 75.4713204,207.054605 75.3534792,206.259711 C75.3126404,205.942076 75.2718017,205.610829 75.2264254,205.284119 C77.4271783,204.72599 78.8565334,204.213238 78.8565334,204.213238 L78.6024258,174.423664 C80.4719314,170.793556 80.8167917,162.825469 80.8077164,157.180651 C80.8077164,153.550543 80.6443616,150.864263 80.6443616,150.864263 L83.1990501,146.694176 C83.1990501,146.694176 83.7889426,141.702778 82.8541898,140.609208 C82.441265,140.114606 82.627308,139.601853 82.9676307,139.179853 C83.1467064,139.033093 83.3362806,138.899633 83.534835,138.780541 C83.5124921,138.748923 83.4927636,138.715537 83.4758458,138.680713 C83.6542253,138.531682 83.8438584,138.396664 84.0430502,138.276864 C84.0430502,138.276864 83.1355232,136.870197 83.9477598,136.275767 C84.7100825,136.793057 85.3907278,137.205982 85.9080181,137.500928 C85.8717171,137.832175 85.835416,138.022756 85.835416,138.022756 L86.0532225,137.568992 C86.5523623,137.850326 86.8563839,138.022756 86.8563839,138.022756 C86.8563839,138.022756 90.8585779,130.050131 90.7723628,128.879421 C90.6861478,127.708712 93.4949438,122.753614 93.4949438,122.753614 C93.4949438,122.753614 93.8352665,120.149012 95.3689871,119.059979 C96.9027077,117.970947 96.5578475,110.08 96.5578475,110.08 C96.5578475,110.08 96.9843851,105.968902 98.005353,104.294515 C99.0263209,102.620128 97.0932884,100.342235 97.0932884,100.342235 Z M20.5161603,96.8437185 L20.5933001,98.7449875 C20.1395366,98.0144283 19.8128269,97.4926003 19.8128269,97.4926003 L20.5161603,96.8437185 Z" id="Shape" fill="url(#linearGradient-1)" fill-rule="nonzero"></path>
                        <path d="M87.0923409,134.574153 L86.1122117,138.748778 C86.1122117,138.748778 78.2621032,134.732971 76.8508987,129.650819 C75.4396942,124.568668 79.2150065,122.631098 79.2150065,122.631098 L86.5342118,125.725765 L87.0923409,134.574153 Z" id="Path" fill="#FFFFFF"></path>
                        <path d="M87.0923409,134.574153 L86.1122117,138.748778 C86.1122117,138.748778 78.2621032,134.732971 76.8508987,129.650819 C75.4396942,124.568668 79.2150065,122.631098 79.2150065,122.631098 L86.5342118,125.725765 L87.0923409,134.574153 Z" id="Path" fill="#000000" opacity="0.1"></path>
                        <path d="M43.0364428,276.652043 C43.0364428,276.652043 35.7762268,279.320172 30.7848283,279.655957 C28.1348495,279.832925 26.7417955,278.208451 26.0248492,276.642967 C25.6352769,275.779567 25.3812075,274.861244 25.2716018,273.920386 L25.9295589,266.728235 L26.2744191,262.903008 L36.8788721,260.144126 L38.3808293,264.740751 L38.521496,265.085611 C39.1204638,266.623869 41.5435609,272.85858 41.4709587,274.160881 C41.4591446,274.841545 41.7264023,275.497393 42.2105932,275.975935 C42.4561188,276.235384 42.7336257,276.462574 43.0364428,276.652043 Z" id="Path" fill="#FFFFFF"></path>
                        <path d="M92.6055674,272.994709 C92.6242853,273.214566 92.6027576,273.435994 92.5420405,273.648128 C92.5420405,273.648128 77.0142536,276.23458 73.8379091,273.648128 C72.0325029,272.120384 69.667163,271.42363 67.3218652,271.728709 C67.3218652,271.728709 61.3140365,271.892063 60.3112192,269.913655 C59.8937568,269.083267 60.00266,267.472407 60.2613052,265.888772 C60.5254872,264.39922 60.877004,262.926486 61.3140365,261.478191 L61.5545312,261.28761 L62.9838862,260.139589 L79.718684,259.644987 L79.8457378,259.644987 C79.7640604,263.066363 85.5223192,266.991418 85.5223192,266.991418 C91.652664,269.260235 92.5556534,271.823999 92.6055674,272.994709 Z" id="Path" fill="#FFFFFF"></path>
                        <path d="M92.610105,272.994709 C92.6261639,273.214825 92.60312,273.436047 92.5420405,273.648128 C92.5420405,273.648128 77.0142536,276.23458 73.8424467,273.648128 C72.03592,272.119143 69.6686618,271.422309 67.3218652,271.728709 C67.3218652,271.728709 61.3094989,271.892063 60.3066815,269.913655 C59.8937568,269.083267 59.9981224,267.472407 60.2567676,265.884235 C62.5709614,266.115654 66.2237576,266.691934 67.6576502,268.071375 C69.8266397,270.158687 73.5021241,272.245999 75.752791,272.413891 C77.531544,272.522795 88.1087711,272.85858 92.610105,272.994709 Z" id="Path" fill="#000000" opacity="0.1"></path>
                        <path d="M43.0364428,276.652043 C43.0364428,276.652043 35.7762268,279.320172 30.7848283,279.655957 C28.1348495,279.832925 26.7417955,278.208451 26.0248492,276.642967 C27.8762043,277.264623 30.439968,277.913505 31.7876456,277.319075 C33.3848932,276.606666 39.0478616,276.152903 42.2242061,275.957784 C42.4637049,276.223442 42.7367408,276.456819 43.0364428,276.652043 Z" id="Path" fill="#000000" opacity="0.1"></path>
                        <path d="M53.8087882,61.618058 C47.81911,59.2902513 40.1142058,51.59896 42.0381631,48.0051531 C42.4633684,47.0975054 42.7171995,46.1191019 42.7868728,45.1192172 C42.9106909,43.7613876 42.9288961,42.3959939 42.8413245,41.0353457 C42.7062372,38.8054491 42.4380389,36.5856156 42.0381631,34.3877105 C42.0381631,34.3877105 60.7377569,34.8097105 59.6487245,37.564055 C59.33109,38.3762916 59.2766384,39.7784209 59.3673911,41.3439049 C59.4581438,42.909389 59.6804879,44.6926795 59.9164449,46.1946367 C60.238617,48.2501854 60.5698644,49.8247447 60.5698644,49.8247447 C60.5698644,49.8247447 59.4218427,51.4265299 58.7548104,51.5127449 C58.087778,51.59896 62.4030689,64.9532198 53.8087882,61.618058 Z" id="Path" fill="#F2AE7F"></path>
                        <path d="M38.5033454,265.062923 L38.3626787,265.217202 C32.7723124,258.456126 26.0112363,266.887052 26.0112363,266.887052 L25.9114083,266.705547 L26.2562686,262.88032 L36.8607216,260.121438 L38.3626787,264.718062 L38.5033454,265.062923 Z" id="Path" fill="#000000" opacity="0.1"></path>
                        <path d="M79.8548131,260.121438 C79.8548131,260.121438 75.7709416,260.039761 73.5928768,261.963718 C71.414812,263.887675 60.8874988,262.376643 61.3412623,261.963718 C61.4736105,261.754167 61.5544679,261.51626 61.5772193,261.26946 L63.0065744,260.121438 L79.7413722,259.626836 C79.8048991,259.94447 79.8548131,260.121438 79.8548131,260.121438 Z" id="Path" fill="#000000" opacity="0.1"></path>
                        <path d="M45.4595399,207.026571 C45.1559855,207.778757 44.9250283,208.558238 44.7698193,209.354378 C44.3914116,211.535087 44.2862356,213.754453 44.4567225,215.961175 C44.624615,219.137519 44.4567225,240.423565 44.4567225,240.423565 C44.4567225,240.423565 40.8674532,246.100146 38.8618186,248.101243 C36.8561839,250.10234 42.9456901,253.696147 42.9456901,253.696147 C43.8532171,258.873589 38.3536035,264.718062 38.3536035,264.718062 C32.7632372,257.956986 26.002161,266.383375 26.002161,266.383375 C26.002161,266.383375 22.3266767,260.030686 21.4100744,257.761868 C20.4934722,255.493051 24.9993437,253.927566 26.5829783,253.001889 C28.1666129,252.076211 26.5013009,246.6492 26.5013009,246.6492 C26.5013009,246.6492 25.1672362,241.889221 23.5790639,237.546704 C21.9908917,233.204187 25.330591,211.591432 25.330591,211.591432 C25.330591,211.591432 25.5030212,207.748055 25.915946,206.409453 C26.1220071,205.443208 26.1634281,204.449103 26.0384621,203.469065 C26.0112363,203.137818 25.9794729,202.86556 25.9567847,202.674979 C25.9340965,202.484399 25.915946,202.402721 25.915946,202.402721 L25.9794729,202.293818 L28.2482903,198.064742 C28.2482903,198.064742 46.5485723,204.36298 45.4595399,207.026571 Z" id="Path" fill="#4C8FF7"></path>
                        <path d="M79.8548131,259.622298 C79.8548131,259.622298 75.7709416,259.536083 73.5928768,261.437352 C71.414812,263.338621 60.8874988,261.854815 61.3412623,261.437352 C61.7950258,261.01989 61.7541871,257.934298 61.7541871,257.934298 C55.5784659,249.498835 60.8466601,246.077458 60.8466601,246.077458 C60.8466601,246.077458 58.0923157,232.804876 57.5931758,227.881542 C57.2437779,224.446552 56.8127026,215.176164 56.5812832,209.92612 C56.4814552,207.657303 56.422466,206.091818 56.422466,206.091818 L61.4229397,205.098076 L62.0718215,204.971023 L74.2417586,202.525237 C74.2417586,202.525237 74.5775436,204.794055 74.8044253,206.649948 C74.919177,207.442076 74.9813274,208.240936 74.9904684,209.041281 C74.9133286,209.948808 74.9904684,212.793905 74.9904684,212.793905 L75.4079308,221.306509 C75.1385862,222.200118 74.9980178,223.127564 74.9904684,224.060853 C75.0766834,225.149885 76.660318,240.673135 76.660318,240.673135 C76.660318,240.673135 79.4146625,249.938985 78.475372,250.606018 C77.5360816,251.27305 79.8548131,259.622298 79.8548131,259.622298 Z" id="Path" fill="#4C8FF7"></path>
                        <path d="M59.6487245,37.5776679 C59.33109,38.3899045 59.2766384,39.7920338 59.3673911,41.3575178 C54.2561592,44.4354077 47.8340991,44.315501 42.8413245,41.0489586 C42.7062372,38.819062 42.4380389,36.5992285 42.0381631,34.4013234 C42.0381631,34.4013234 60.7377569,34.8233234 59.6487245,37.5776679 Z" id="Path" fill="#000000" opacity="0.1"></path>
                        <path d="M66.8681017,27.5585698 C66.9708505,36.1318237 60.1041493,43.1651134 51.5308955,43.2678622 C42.9576416,43.3706109 35.9243519,36.5039097 35.8216031,27.9306559 C35.8216031,27.8036021 35.8216031,27.6856236 35.8216031,27.5585698 C35.8216031,18.9828099 42.7736302,12.0307829 51.3493901,12.0307829 C59.92515,12.0307829 66.877177,18.9828099 66.877177,27.5585698 L66.8681017,27.5585698 Z" id="Path" fill="#F2AE7F"></path>
                        <path d="M53.8087882,61.618058 C47.81911,59.2902513 40.1142058,51.59896 42.0381631,48.0051531 C42.4633684,47.0975054 42.7171995,46.1191019 42.7868728,45.1192172 L50.9863793,51.8621428 L56.0594552,56.0231541 L59.9164449,46.2082496 C60.238617,48.2637983 60.5698644,49.8383576 60.5698644,49.8383576 C60.5698644,49.8383576 59.4218427,51.4401428 58.7548104,51.5263578 C58.087778,51.6125729 62.4030689,64.9532198 53.8087882,61.618058 Z" id="Path" fill="#000000" opacity="0.1"></path>
                        <polygon id="Path" fill="#7BA4D3" points="75.0131565 91.416707 68.1658653 206.445754 59.2357997 207.031109 36.1074741 140.332412 39.900937 61.146144 40.7040984 44.4158838 50.9863793 52.8604225 56.0594552 57.0214338 60.0298858 46.9161207 67.4126179 53.3504871"></polygon>
                        <path d="M45.4595399,207.026571 C45.1559855,207.778757 44.9250283,208.558238 44.7698193,209.354378 C38.2656541,208.352878 31.94854,206.381265 26.0293868,203.505366 L25.9068707,203.44184 L25.9477094,202.71128 L25.9477094,202.330119 L28.2165269,198.101043 C28.2165269,198.101043 46.5485723,204.36298 45.4595399,207.026571 Z" id="Path" fill="#000000" opacity="0.1"></path>
                        <path d="M61.5726817,209.372529 C59.9116362,209.656478 58.2362316,209.848862 56.5540574,209.948808 C56.4542294,207.679991 56.3952402,206.114507 56.3952402,206.114507 L61.4229397,205.098076 L61.5726817,209.372529 Z" id="Path" fill="#000000" opacity="0.1"></path>
                        <path d="M74.8225759,206.649948 C71.5963174,207.48941 66.6094565,208.433238 62.153499,207.843346 L62.0899721,204.971023 L74.2599091,202.525237 C74.2599091,202.525237 74.5820812,204.775904 74.8225759,206.649948 Z" id="Path" fill="#000000" opacity="0.1"></path>
                        <path d="M62.0718215,208.369711 C43.4675181,211.546056 26.4286987,202.439022 26.4286987,202.439022 L26.5920536,199.35343 C26.5920536,199.35343 27.0140536,164.372802 25.8433438,161.69106 C24.672634,159.009318 23.7605693,145.428176 24.4230641,143.354477 C25.0855588,141.280778 22.0045046,109.971096 22.0045046,109.971096 L21.5053648,97.2657185 L3.22323339,89.83761 L11.3909764,72.8078659 C12.4939232,70.4207536 13.4427216,67.9653967 14.2315359,65.4568972 C15.6518156,61.0327031 22.2449993,56.6901865 22.2449993,56.6901865 C22.2449993,56.6901865 29.0060754,52.3522074 31.6787424,52.5155623 C34.3514094,52.6789171 37.8544636,48.6767231 37.8544636,48.6767231 C40.4409156,42.0835394 42.7823352,45.0466151 42.7823352,45.0466151 C42.7823352,45.3642495 42.7823352,45.0466151 42.6552814,46.0222066 C41.7477544,53.2597344 57.329993,76.1294147 57.5523371,76.5378019 L59.0542943,112.684602 L60.5562515,158.428501 L62.0718215,208.369711 Z" id="Path" fill="#376293" opacity="0.1"></path>
                        <path d="M61.5726817,208.369711 C42.9683782,211.546056 25.9250212,202.439022 25.9250212,202.439022 L26.0929137,199.35343 C26.0929137,199.35343 26.5103761,164.372802 25.3396663,161.69106 C24.1689565,159.009318 23.2568919,145.414563 23.9239242,143.322714 C24.5909565,141.230864 21.4917518,109.952946 21.4917518,109.952946 L20.9880744,97.247568 L2.71048063,89.8194595 L10.8782236,72.7897154 C11.9786001,70.4030661 12.927337,67.9493841 13.7187831,65.4432843 C15.1390629,61.0327031 21.7549347,56.6856488 21.7549347,56.6856488 C21.7549347,56.6856488 28.5160108,52.3476698 31.1841402,52.5110246 C33.8522696,52.6743795 37.3734743,48.6767231 37.3734743,48.6767231 C39.9644639,42.0835394 42.8186363,45.0466151 42.8186363,45.0466151 C42.8186363,45.3642495 42.5463782,45.5003786 42.6915825,46.0222066 C44.6881419,53.0419279 56.8671542,76.1294147 57.0894983,76.5378019 L58.5914555,112.684602 L60.0616492,158.451189 L61.5726817,208.369711 Z" id="Path" fill="#376293"></path>
                        <path d="M56.558595,77.5587698 C54.557498,76.7238449 43.9575827,64.6219724 43.9575827,64.6219724 L43.9575827,61.867628 C43.5718837,60.960101 41.2758404,61.5136924 39.4199477,62.1489613 L40.2185714,45.4187011 L41.1260984,46.1719485 C43.1090449,53.1871322 56.3407886,77.1549202 56.558595,77.5587698 Z" id="Path" fill="#000000" opacity="0.1"></path>
                        <path d="M57.0622725,76.5604901 C55.0566379,75.7210276 44.4567225,63.6236927 44.4567225,63.6236927 L44.4567225,60.8648106 C44.0710235,59.9572836 41.7795179,60.5108751 39.9190875,61.146144 L40.7040984,44.4340343 L41.6116254,45.1827441 C43.6127224,52.1888525 56.8399284,76.1521029 57.0622725,76.5604901 Z" id="Path" fill="#FFFFFF" opacity="0.200000003"></path>
                        <path d="M26.4286987,136.911035 C26.6782686,136.911035 39.3654961,135.576971 39.3654961,135.576971 C39.3654961,135.576971 47.0477121,150.687295 46.5440346,154.358242 C46.0403571,158.029189 45.1282925,161.287211 42.0381631,160.710931 C38.9480336,160.134651 25.4077308,161.164694 25.4077308,161.164694 L26.4286987,136.911035 Z" id="Path" fill="#000000" opacity="0.1"></path>
                        <path d="M25.9250212,135.908218 C26.1791288,135.908218 38.8663562,134.574153 38.8663562,134.574153 C38.8663562,134.574153 46.5440346,149.707166 46.0448948,153.337274 C45.5457549,156.967382 44.624615,160.266243 41.5390232,159.689963 C38.4534314,159.113683 24.9040534,160.143727 24.9040534,160.143727 L25.9250212,135.908218 Z" id="Path" fill="#376293"></path>
                        <path d="M35.4858182,128.834045 C35.4858182,128.834045 47.1293895,135.095981 47.3789595,137.001788 C47.6285294,138.907595 41.4528082,136.166863 40.1187435,135.831078 C39.2401108,135.622406 38.3464928,135.482826 37.4460765,135.413616 L28.5477743,135.654111 L35.4858182,128.834045 Z" id="Path" fill="#F2AE7F"></path>
                        <circle id="Oval" fill="#000000" opacity="0.1" cx="53.3051108" cy="77.1140815" r="1.22516145"></circle>
                        <circle id="Oval" fill="#3F3D56" cx="53.3051108" cy="76.6149417" r="1.22516145"></circle>
                        <circle id="Oval" fill="#000000" opacity="0.1" cx="55.5603153" cy="130.149959" r="1.22516145"></circle>
                        <circle id="Oval" fill="#3F3D56" cx="55.5603153" cy="129.646282" r="1.22516145"></circle>
                        <circle id="Oval" fill="#000000" opacity="0.1" cx="54.5302722" cy="103.63202" r="1.22516145"></circle>
                        <circle id="Oval" fill="#3F3D56" cx="54.5302722" cy="103.132881" r="1.22516145"></circle>
                        <path d="M82.7725124,135.159508 C82.7725124,135.159508 83.6074372,136.411896 82.7725124,136.974562 C81.9375875,137.537229 82.8541898,138.980197 82.8541898,138.980197 C82.8541898,138.980197 80.7714153,140.196283 81.6880176,141.298928 C82.6046199,142.401574 82.0238026,147.352134 82.0238026,147.352134 L79.5190281,151.52222 C79.5190281,151.52222 79.66877,154.194887 79.6778453,157.806845 C79.6778453,163.442587 79.3465979,171.365298 77.5133934,174.977255 L77.7584257,204.612549 C77.7584257,204.612549 68.9871773,207.820657 61.6452839,206.840528 L60.5562515,159.286114 C60.5562515,159.286114 62.1444237,132.318949 62.7297786,127.146045 C63.0723829,124.460488 63.2119329,121.752915 63.147241,119.046366 C63.147241,119.046366 62.8976711,110.951226 62.0582086,107.198602 C62.0582086,107.198602 61.1506816,90.9175672 61.0599289,86.4116956 C61.0190902,84.256319 61.1325311,77.9671569 61.2595849,71.986554 C61.4002516,65.447822 61.5590688,59.281176 61.5590688,59.281176 L59.902832,46.1719485 C59.902832,46.1719485 61.5590688,46.0085937 62.0582086,46.6710884 C62.2817884,46.879947 62.5249119,47.0668482 62.7842302,47.2292175 C65.6474779,49.16225 75.7482534,55.1065518 75.7482534,55.1065518 C75.7482534,55.1065518 81.3386197,57.329993 82.677222,60.5154127 C84.0158244,63.7008325 84.9460395,65.9605747 85.5949213,66.8681017 C86.2438031,67.7756287 86.5977387,72.0410056 86.5977387,72.0410056 C86.5977387,72.0410056 88.5216959,79.8911141 90.0236531,81.2206412 C91.5256103,82.5501682 92.6055674,90.9901693 92.6055674,90.9901693 L79.332985,101.42673 C79.332985,101.42673 78.1668129,118.787721 77.9172429,119.459291 C77.667673,120.130861 82.7725124,135.159508 82.7725124,135.159508 Z" id="Path" fill="#376293"></path>
                        <path d="M83.2761898,135.159508 C83.2761898,135.159508 84.106577,136.411896 83.2761898,136.974562 C82.4458026,137.537229 83.3533296,138.980197 83.3533296,138.980197 C83.3533296,138.980197 81.2705552,140.196283 82.1871574,141.298928 C83.1037597,142.401574 82.5229424,147.352134 82.5229424,147.352134 L80.0272432,151.52222 C80.0272432,151.52222 80.1769852,154.194887 80.1905981,157.806845 C80.1905981,163.442587 79.8593507,171.365298 78.0261462,174.977255 L78.2757161,204.612549 C78.2757161,204.612549 69.5044677,207.820657 62.1625742,206.840528 L61.0780795,159.286114 C61.0780795,159.286114 62.6617141,132.318949 63.2516066,127.146045 C63.5945847,124.460542 63.7326251,121.752826 63.6645314,119.046366 C63.6645314,119.046366 63.4149615,110.951226 62.5800367,107.198602 C62.5800367,107.198602 61.6725097,90.9175672 61.5772193,86.4116956 C61.5363806,84.256319 61.6498215,77.9671569 61.7768753,71.986554 C61.917542,65.447822 62.0763592,59.281176 62.0763592,59.281176 L59.8892191,45.9949808 C59.8892191,45.9949808 62.0763592,45.9949808 62.5800367,46.6710884 C62.8015178,46.8824083 63.0449008,47.0695091 63.3060583,47.2292175 C66.1647683,49.16225 76.2655438,55.1065518 76.2655438,55.1065518 C76.2655438,55.1065518 81.8422972,57.329993 83.2035877,60.5154127 C84.5648782,63.7008325 85.4724052,65.9605747 86.121287,66.8681017 C86.7701688,67.7756287 87.1241043,72.0410056 87.1241043,72.0410056 C87.1241043,72.0410056 89.0480616,79.8911141 90.5500187,81.2206412 C92.0519759,82.5501682 93.1364707,90.9901693 93.1364707,90.9901693 L79.8638883,101.42673 C79.8638883,101.42673 78.6977161,118.787721 78.4436086,119.459291 C78.189501,120.130861 83.2761898,135.159508 83.2761898,135.159508 Z" id="Path" fill="#376293"></path>
                        <path d="M67.3808545,63.1336281 L68.5833278,66.6276071 L62.2714775,72.9802961 C62.4121442,66.441564 62.5709614,60.2749181 62.5709614,60.2749181 L60.3838213,46.9932605 C60.3838213,46.9932605 62.5709614,46.9932605 63.0746389,47.6693681 C63.29612,47.880688 63.539503,48.0677888 63.8006605,48.2274972 L69.164145,63.6962949 L67.3808545,63.1336281 Z" id="Path" fill="#000000" opacity="0.1"></path>
                        <path d="M66.8681017,62.1308108 L68.070575,65.6202521 L61.7632624,71.9729411 C61.8993914,65.4342091 62.0627463,59.2675631 62.0627463,59.2675631 L59.8710686,45.9813679 C59.8710686,45.9813679 62.0627463,45.9813679 62.5618861,46.6574755 C62.784453,46.8675253 63.0276986,47.0545203 63.2879077,47.2156046 L68.6831557,62.6980152 L66.8681017,62.1308108 Z" id="Path" fill="#FFFFFF" opacity="0.200000003"></path>
                        <path d="M66.8681017,27.5585698 C66.8698749,29.1935709 66.6125774,30.8185272 66.1057791,32.3730006 C65.9331811,32.4018525 65.7562715,32.3592632 65.6157145,32.255022 C65.4931983,28.1711506 63.4875637,24.3323114 61.0145526,21.0697518 C60.3190278,20.0856991 59.4774464,19.2135147 58.5188534,18.4832999 C57.5484645,17.7550198 56.3418656,17.4137431 55.1337777,17.5258589 C53.7724872,17.7119019 52.5700139,18.6375794 51.1951105,18.755558 C49.3800565,18.9052999 47.7555832,17.648375 45.9541421,17.5893858 C44.4722121,17.601682 43.0678068,18.253432 42.10169,19.3772139 C41.1544201,20.4944707 40.4511709,21.7974136 40.037066,23.2024402 C39.3236096,25.3344141 38.9350721,27.5616212 38.8845068,29.8092368 C38.8618186,31.0797746 38.7393024,32.6724845 37.5595173,33.1353232 C37.7400424,31.2474094 37.1193366,29.3704741 35.848829,27.9624193 L35.8216031,27.9306559 C35.8216031,27.8036021 35.8216031,27.6856236 35.8216031,27.5585698 C35.8216031,18.9828099 42.7736302,12.0307829 51.3493901,12.0307829 C59.92515,12.0307829 66.877177,18.9828099 66.877177,27.5585698 L66.8681017,27.5585698 Z" id="Path" fill="#000000" opacity="0.1"></path>
                        <path d="M57.7928318,2.90559894 C55.4348839,1.79643244 52.7530135,1.58665918 50.2512824,2.31570639 C48.9943575,2.68779246 47.8100348,3.29129791 46.5349593,3.59531946 C43.8123784,4.25327653 40.6360339,3.54086784 38.2991518,5.13357772 C37.0013882,6.04110471 36.220915,7.47499737 35.4948934,8.87258895 L33.6798394,12.3257292 C32.690635,14.217923 31.6923553,16.1418802 31.2794305,18.2246547 C30.8665057,20.3074291 31.1160757,22.6397735 32.4365274,24.3186984 C33.3939684,25.5347846 34.8187858,26.3016449 35.8624419,27.4496666 C37.1300347,28.8646499 37.7485931,30.7450014 37.5685926,32.6361834 C38.7483777,32.1824199 38.8663562,30.5806347 38.893582,29.3100969 C38.9445595,27.0625217 39.3330863,24.8353758 40.0461413,22.7033004 C40.4602462,21.2982737 41.1634953,19.9953308 42.1107652,18.8780741 C43.0764075,17.7530879 44.4806985,17.099737 45.9632173,17.0857083 C47.7782713,17.1492352 49.4072823,18.4061601 51.2041858,18.2518805 C52.5654762,18.1384396 53.7724872,17.2127621 55.1428529,17.026719 C56.351143,16.9123906 57.5585265,17.2538891 58.5279286,17.98416 C59.487265,18.7120811 60.3276762,19.5846392 61.0190902,20.5706119 C63.4966389,23.8377091 65.5068112,27.6583978 65.6247897,31.7558822 C66.1375425,32.1279683 66.877177,31.6379037 67.1312846,31.0570864 C67.3853921,30.4762691 67.3944674,29.7956239 67.7166395,29.2420324 C68.0887255,28.6022259 68.8011342,28.2573656 69.3592633,27.7763763 C70.7750055,26.5557525 71.128941,24.5002038 71.0744894,22.6352359 C71.0200377,20.7702679 70.6570269,18.8780741 71.0109625,17.0448696 C71.2242313,15.9240737 71.7052206,14.8668048 71.9684035,13.7550842 C72.2315863,12.6433636 72.2633497,11.395514 71.6416937,10.438073 C70.7341667,9.03594381 68.8238224,8.75461044 67.1585104,8.62301902 C65.2663166,8.45966416 63.5737787,8.66839537 62.3667678,7.07568549 C61.7987752,6.24560953 61.1612083,5.46534911 60.4609611,4.74334111 C60.2113912,4.50284645 57.7928318,3.00542691 57.7928318,2.90559894 Z" id="Path" fill="#2E3B51"></path>
                        <path d="M8.45966416,98.5952456 L3.72237324,89.8330724 L2.22041605,103.355225 C2.22041605,103.355225 3.05534089,109.363053 2.8874484,110.284193 C2.7195559,111.205333 6.30882518,119.463829 6.30882518,119.463829 C6.30882518,119.463829 18.1656654,140.58652 23.0073219,141.671015 L39.3428079,129.982067 L35.0048288,124.473378 C35.0048288,124.473378 33.5028717,123.888023 33.126248,124.473378 C33.126248,124.473378 25.0674082,110.615441 24.237021,109.617161 C23.4066338,108.618881 23.565451,106.608709 23.565451,106.608709 C23.565451,106.608709 22.3130638,105.274644 22.7305262,104.022257 C23.1479886,102.76987 20.3346549,98.4318907 20.3346549,98.4318907 L22.9211069,96.0133313 L8.45966416,98.5952456 Z" id="Path" fill="#000000" opacity="0.1"></path>
                        <path d="M3.97194316,88.8302551 L2.7195559,89.8330724 L1.21759872,103.355225 C1.21759872,103.355225 2.05252356,109.363053 1.88463107,110.284193 C1.71673857,111.205333 5.31054548,119.463829 5.31054548,119.463829 C5.31054548,119.463829 17.1628481,140.58652 22.0045046,141.671015 L38.3672164,129.982067 L34.0246997,124.473378 C34.0246997,124.473378 32.5227425,123.888023 32.1461188,124.473378 C32.1461188,124.473378 24.0918167,110.615441 23.2568919,109.617161 C22.421967,108.618881 22.5898595,106.608709 22.5898595,106.608709 C22.5898595,106.608709 21.3374723,105.274644 21.7549347,104.022257 C22.1723971,102.76987 19.3318376,98.4318907 19.3318376,98.4318907 L21.9182895,96.0133313 L3.97194316,88.8302551 Z" id="Path" fill="#376293"></path>
                        <path d="M81.6880176,141.820756 C82.5955446,142.923402 82.0238026,147.878499 82.0238026,147.878499 L79.5190281,152.02136 C79.5190281,152.02136 79.66877,154.698565 79.6778453,158.310522 L75.46692,159.626436 C74.6935195,159.867502 73.8512843,159.719641 73.2062442,159.229554 C72.5612041,158.739468 72.1930149,157.967678 72.2179734,157.157963 L72.9485326,133.743766 L82.7725124,137.49639 C81.9375875,138.077208 82.8541898,139.502025 82.8541898,139.502025 C82.8541898,139.502025 80.7714153,140.718111 81.6880176,141.820756 Z" id="Path" fill="#000000" opacity="0.1"></path>
                        <path d="M82.1871574,141.321617 C83.0946844,142.419724 82.5229424,147.374822 82.5229424,147.374822 L80.0272432,151.52222 C80.0272432,151.52222 80.1769852,154.194887 80.1905981,157.806845 L75.902533,159.145447 C75.1469883,159.382342 74.3235076,159.23881 73.6926626,158.760269 C73.0618176,158.281728 72.701673,157.527396 72.7261885,156.735963 L73.4567477,133.240089 L83.2761898,137.001788 C82.4367274,137.582605 83.3533296,139.007423 83.3533296,139.007423 C83.3533296,139.007423 81.2705552,140.218971 82.1871574,141.321617 Z" id="Path" fill="#376293"></path>
                        <path d="M85.4451794,130.149959 C85.4451794,130.149959 84.778147,134.410799 83.1082974,134.660368 C81.4384477,134.909938 80.6897379,141.553036 79.0244259,141.321617 C77.3591138,141.090197 78.4617591,135.141358 78.5207484,133.988798 C78.5797376,132.836239 76.7056944,128.062647 78.103286,126.978152 C79.5008775,125.893658 83.9477598,126.978152 83.9477598,126.978152 L85.4451794,130.149959 Z" id="Path" fill="#F2AE7F"></path>
                        <path d="M88.9754594,97.3428583 L92.1200404,90.9901693 C92.1200404,90.9901693 93.3769653,95.8318259 93.3769653,98.4182778 C93.3769653,101.00473 95.1284924,101.258837 95.1284924,101.258837 C95.1284924,101.258837 97.047912,103.527655 96.0360194,105.183892 C95.0241268,106.840128 94.6202773,110.94215 94.6202773,110.94215 C94.6202773,110.94215 94.9515247,118.787721 93.4495675,119.872216 C91.9476103,120.956711 91.6118253,123.5477 91.6118253,123.5477 C91.6118253,123.5477 88.8574809,128.471034 88.9436959,129.641744 C89.029911,130.812454 85.1048567,138.739702 85.1048567,138.739702 C85.1048567,138.739702 87.0242763,128.888497 75.8390061,124.632195 C75.8390061,124.632195 75.752791,121.292496 76.5877159,120.375894 C77.4226407,119.459291 78.724942,119.014603 77.9081677,114.404366 C77.0913934,109.794129 77.6722106,104.235526 77.6722106,103.123805 C77.6722106,102.012085 80.1769852,95.0831161 80.1769852,95.0831161 L88.9754594,97.3428583 Z" id="Path" fill="#000000" opacity="0.1"></path>
                        <path d="M90.373051,90.0826423 L93.1228578,90.9901693 C93.1228578,90.9901693 94.3797827,95.8318259 94.3797827,98.4182778 C94.3797827,101.00473 96.1313098,101.258837 96.1313098,101.258837 C96.1313098,101.258837 98.0507294,103.527655 97.0388368,105.183892 C96.0269442,106.840128 95.618557,110.94215 95.618557,110.94215 C95.618557,110.94215 95.954342,118.787721 94.4523848,119.872216 C92.9504276,120.956711 92.6373308,123.5477 92.6373308,123.5477 C92.6373308,123.5477 89.8829864,128.471034 89.9692015,129.641744 C90.0554165,130.812454 86.1258246,138.739702 86.1258246,138.739702 C86.1258246,138.739702 88.0452442,128.888497 76.859974,124.632195 C76.859974,124.632195 76.7782965,121.292496 77.6132214,120.375894 C78.4481462,119.459291 79.7504475,119.014603 78.9336732,114.404366 C78.1168989,109.794129 78.6977161,104.235526 78.6977161,103.123805 C78.6977161,102.012085 81.2024907,95.0831161 81.2024907,95.0831161 L90.373051,90.0826423 Z" id="Path" fill="#376293"></path>
                        <path d="M29.6231937,254.739803 C29.6231937,254.739803 34.0065491,251.985459 36.8834097,253.986556 C39.7602703,255.987653 29.6231937,254.739803 29.6231937,254.739803 Z" id="Path" fill="#000000" opacity="0.1"></path>
                        <path d="M63.6917572,246.222662 C63.6917572,246.222662 67.5714352,245.723522 70.8294571,249.231114 C74.087479,252.738706 63.6917572,246.222662 63.6917572,246.222662 Z" id="Path" fill="#000000" opacity="0.1"></path>
                        <g id="AAAAAA" opacity="0.1" transform="translate(30.998097, 11.563406)" fill="#000000">
                            <path d="M38.3611662,15.2146901 C37.8030371,15.7002171 37.0860908,16.0405397 36.7140047,16.6803462 C36.3963702,17.2294 36.387295,17.9100453 36.1331874,18.4954002 C35.8790799,19.0807551 35.1394453,19.5662821 34.622155,19.194196 C34.5041764,15.1103245 32.4940041,11.2760229 30.0209931,8.00892575 C29.329496,7.02433113 28.4890635,6.15328185 27.5298315,5.42701145 C26.5592791,4.69523131 25.3504811,4.35217216 24.1402181,4.46503283 C22.7789276,4.65107586 21.580992,5.5767534 20.2060886,5.69473191 C18.3910346,5.84447386 16.7620236,4.58754897 14.9605826,4.52855972 C13.4797052,4.53978298 12.0762738,5.19184896 11.1126681,6.3163879 C10.1653982,7.43364461 9.46214904,8.73658751 9.04804417,10.1416142 C8.3349892,12.2736896 7.94646236,14.5008356 7.89548488,16.7484107 C7.86825907,18.0144109 7.75028056,19.5935079 6.57957073,20.0654219 C6.60678887,20.4021704 6.60678887,20.7405661 6.57957073,21.0773145 C7.76389346,20.623551 7.88187197,19.0217659 7.90909778,17.7512281 C7.96007527,15.5036529 8.3486021,13.2765069 9.06165707,11.1444315 C9.47576195,9.73940484 10.1790111,8.43646195 11.126281,7.31920524 C12.090517,6.19492026 13.4931315,5.54157981 14.9741955,5.52683942 C16.7892495,5.59036631 18.4227981,6.8472912 20.2197015,6.69301161 C21.580992,6.57957073 22.7880029,5.6538932 24.153831,5.46785016 C25.3635135,5.35369705 26.5722521,5.69512122 27.5434444,6.42529114 C28.5027808,7.15321228 29.343192,8.02577039 30.034606,9.01174309 C32.5076171,12.2788403 34.5177894,16.0995289 34.6357679,20.1970133 C35.1530583,20.5690994 35.8926928,20.0790348 36.1468003,19.4982175 C36.4009079,18.9174003 36.4099831,18.236755 36.7276176,17.6831635 C37.0997037,17.043357 37.81665,16.6984968 38.3747791,16.2175074 C39.7905212,14.9968836 40.1444567,12.941335 40.0900051,11.076367 C40.0900051,11.0173778 40.0900051,10.9629261 40.0900051,10.9039369 C39.9992524,12.5284102 39.5681771,14.1755717 38.3611662,15.2146901 Z" id="Path"></path>
                            <path d="M4.85980707,14.8970557 C3.82068866,13.749034 2.39587127,12.9776361 1.43843029,11.7615499 C0.629756483,10.6880581 0.168973055,9.39279744 0.11797851,8.04976447 C-0.0244118958,9.72907511 0.444503587,11.4033129 1.43843029,12.7643672 C2.39587127,13.9804534 3.82068866,14.7473137 4.85980707,15.8953354 C5.86349678,17.0176738 6.46671406,18.4411389 6.5750331,19.9429058 C6.71290863,18.0977334 6.09363277,16.2759483 4.85980707,14.8970557 Z" id="Path"></path>
                            <path d="M40.9703063,1.193398 C40.7025858,2.30511857 40.2261342,3.36238753 40.0083277,4.48318337 C39.8775279,5.24107399 39.8303563,6.01103716 39.867661,6.77922667 C39.8826079,6.34527327 39.929625,5.91301926 40.0083277,5.4860007 C40.2261342,4.36520486 40.7025858,3.30793591 40.9703063,2.19621533 C41.1241214,1.58266993 41.1747271,0.947798932 41.1200483,0.317634449 C41.0907825,0.612712614 41.0407444,0.905359661 40.9703063,1.193398 Z" id="Path"></path>
                        </g>
                    </g>
                    <g id="Group-7" transform="translate(205.806452, 144.480287)">
                        <path d="M85.5139188,83.684703 L74.5725032,83.684703 L74.5725032,38.9821584 C74.5877671,31.6065285 71.6875819,24.5209165 66.5069339,19.2731076 L66.4153495,19.1784697 C61.2866002,13.9428713 54.2681509,10.9877348 46.9383135,10.9816287 C31.6986013,10.9816287 19.3041239,23.5409593 19.3041239,38.9821584 L19.3041239,83.684703 L8.36279206,83.684703 L8.36279206,38.9821584 C8.36279206,17.5085732 25.6662153,0.0402969251 46.9383135,0.0402969251 C57.1347556,0.0372442935 66.9099079,4.11887374 74.0779448,11.3723906 L74.2092166,11.5006097 C81.4688395,18.8029718 85.535205,28.6849725 85.513835,38.9821584 L85.5139188,83.684703 Z" id="Path" fill="#2561A1"></path>
                        <path d="M93.8297356,84.6005511 L93.8297356,129.669436 C93.8327883,138.30283 86.8326562,145.302962 78.1992616,145.29991 L15.6773655,145.29991 C7.04397081,145.302962 0.0438387905,138.30283 0.0468914221,129.669436 L0.0468914221,84.6005511 C0.0468914221,75.9671564 7.04397081,68.970077 15.6773655,68.970077 L78.1992616,68.970077 C86.8326562,68.970077 93.8297356,75.9671564 93.8297356,84.6005511 Z" id="Path" fill="#6FE3FF"></path>
                    </g>
                </g>
            </g>
        </g>
    </g>
</svg>