<?xml version="1.0" encoding="UTF-8"?>
<svg width="18px" height="18px" viewBox="0 0 18 18" version="1.1" xmlns="http://www.w3.org/2000/svg" xmlns:xlink="http://www.w3.org/1999/xlink">
    <!-- Generator: Sketch 52.5 (67469) - http://www.bohemiancoding.com/sketch -->
    <title>Detect Icon</title>
    <desc>Created with Sketch.</desc>
    <g id="Header" stroke="none" stroke-width="1" fill="none" fill-rule="evenodd">
        <g id="Location-Popup" transform="translate(-873.000000, -302.000000)" fill="#A9B1BA" fill-rule="nonzero">
            <g id="Popup" transform="translate(851.000000, 280.000000)">
                <g id="Group-2" transform="translate(22.000000, 22.000000)">
                    <g id="Detect-Icon">
                        <path d="M8.98948469,5.52981122 C7.99636224,5.52981122 7.04681633,5.9545102 6.38444388,6.69489796 C5.81018878,7.33619388 5.49390306,8.16391837 5.49390306,9.02557653 C5.49390306,10.9531378 7.06201531,12.5213878 8.98948469,12.5213878 C9.87456122,12.5213878 10.7190459,12.189949 11.3672755,11.5881429 C12.0120612,10.9895969 12.4051684,10.1785867 12.4742296,9.30466837 C12.4815306,9.21306122 12.48525,9.11915816 12.48525,9.02553061 C12.48525,7.09801531 10.9170918,5.52981122 8.98948469,5.52981122 Z" id="Path"></path>
                        <path d="M17.5658878,8.15597449 C17.5658878,8.15597449 16.4902959,8.15597449 16.1318112,8.15597449 C16.083,8.15597449 16.0788673,8.11432653 16.0761582,8.09357143 C15.6604133,4.90123469 13.1384847,2.37122449 9.95018878,1.94285204 C9.9079898,1.93715816 9.82317857,1.92884694 9.82317857,1.84467857 C9.82317857,1.48679082 9.82317857,0.413265306 9.82317857,0.413265306 C9.82317857,0.185969388 9.63720918,-2.84217094e-14 9.40991327,-2.84217094e-14 L8.56928571,-2.84217094e-14 C8.3419898,-2.84217094e-14 8.15602041,0.185969388 8.15602041,0.413265306 C8.15602041,0.413265306 8.15602041,1.4867449 8.15602041,1.84458673 C8.15602041,1.91355612 8.07120918,1.93706633 8.02896429,1.94271429 C6.30188265,2.17469388 4.77004592,3.02317347 3.66309184,4.26039796 C2.72897449,5.30366327 2.09718367,6.62294388 1.90460204,8.08066837 C1.90129592,8.1057398 1.89422449,8.15602041 1.84164796,8.15602041 C1.48454082,8.15602041 0.413265306,8.15602041 0.413265306,8.15602041 C0.185969388,8.15602041 2.84217094e-14,8.3419898 2.84217094e-14,8.56928571 L2.84217094e-14,9.40991327 C2.84217094e-14,9.63720918 0.185969388,9.82317857 0.413265306,9.82317857 C0.413265306,9.82317857 1.47847959,9.82317857 1.83356633,9.82317857 C1.88853061,9.82317857 1.89284694,9.87465306 1.89596939,9.90032143 C2.29077551,13.1352245 4.84622449,15.7022449 8.07543367,16.1145 C8.10225,16.117898 8.15602041,16.1367704 8.15602041,16.1748367 C8.15602041,16.5226224 8.15602041,17.5658878 8.15602041,17.5658878 C8.15602041,17.7931837 8.3419898,17.9791531 8.56928571,17.9791531 L9.40991327,17.9791531 C9.63720918,17.9791531 9.82317857,17.7931837 9.82317857,17.5658878 C9.82317857,17.5658878 9.82317857,16.5227143 9.82317857,16.1750204 C9.82317857,16.1348418 9.88480102,16.1171633 9.91552041,16.1131684 C13.1465204,15.6951276 15.7005,13.1196582 16.0858929,9.87814286 C16.088051,9.85986735 16.0887857,9.82317857 16.1400306,9.82317857 C16.4964949,9.82317857 17.5659337,9.82317857 17.5659337,9.82317857 C17.7932296,9.82317857 17.979199,9.63720918 17.979199,9.40991327 L17.979199,8.56928571 C17.9791531,8.34194388 17.7932296,8.15597449 17.5658878,8.15597449 Z M9.82317857,14.6829949 C9.82317857,14.6252755 9.82317857,14.4521633 9.82317857,14.4521633 C9.82317857,14.2248673 9.63720918,14.038898 9.40991327,14.038898 L8.56928571,14.038898 C8.3419898,14.038898 8.15602041,14.2248673 8.15602041,14.4521633 C8.15602041,14.4521633 8.15602041,14.6250459 8.15602041,14.6826735 C8.15602041,14.751551 8.0645051,14.7458571 8.019,14.7381888 C5.56447959,14.3242806 3.63448469,12.367102 3.26121429,9.8989898 C3.25740306,9.87378061 3.23733673,9.82317857 3.29308163,9.82317857 L3.5269898,9.82317857 C3.75428571,9.82317857 3.9402551,9.63720918 3.9402551,9.40991327 L3.9402551,8.56928571 C3.9402551,8.3419898 3.75428571,8.15602041 3.5269898,8.15602041 L3.30336735,8.15602041 C3.26029592,8.15602041 3.26516327,8.12580612 3.26755102,8.1107449 C3.44571429,6.98785714 3.94613265,5.97241837 4.67141327,5.16241837 C5.53284184,4.20033673 6.7112449,3.52804592 8.04237245,3.30915306 C8.08011735,3.30295408 8.15602041,3.28633163 8.15602041,3.33707143 C8.15602041,3.38455102 8.15602041,3.52703571 8.15602041,3.52703571 C8.15602041,3.75433163 8.3419898,3.94030102 8.56928571,3.94030102 L9.40991327,3.94030102 C9.63720918,3.94030102 9.82317857,3.75433163 9.82317857,3.52703571 C9.82317857,3.52703571 9.82317857,3.38459694 9.82317857,3.33707143 C9.82317857,3.28922449 9.90408673,3.30368878 9.94431122,3.31034694 C12.3698571,3.71254592 14.2861684,5.62086735 14.7000765,8.04214286 C14.706551,8.07997959 14.7198214,8.15597449 14.6452041,8.15597449 C14.5969439,8.15597449 14.4521633,8.15597449 14.4521633,8.15597449 C14.2248673,8.15597449 14.038898,8.34194388 14.038898,8.5692398 L14.038898,9.40986735 C14.038898,9.63716327 14.2248673,9.82313265 14.4521633,9.82313265 C14.4521633,9.82313265 14.6043367,9.82313265 14.6550765,9.82313265 C14.7284082,9.82313265 14.7185816,9.89122959 14.7133469,9.92516327 C14.3296531,12.3877653 12.3953878,14.3367704 9.93981122,14.7419082 C9.90105612,14.7483367 9.82317857,14.7544439 9.82317857,14.6829949 Z" id="Shape"></path>
                    </g>
                </g>
            </g>
        </g>
    </g>
</svg>