<?xml version="1.0" encoding="UTF-8"?>
<svg width="79px" height="82px" viewBox="0 0 79 82" version="1.1" xmlns="http://www.w3.org/2000/svg" xmlns:xlink="http://www.w3.org/1999/xlink">
    <!-- Generator: Sketch 52.6 (67491) - http://www.bohemiancoding.com/sketch -->
    <title>002-hand-gesture</title>
    <desc>Created with Sketch.</desc>
    <g id="Home-Page" stroke="none" stroke-width="1" fill="none" fill-rule="evenodd">
        <g id="Chat-With-Doctor" transform="translate(-188.000000, -954.000000)">
            <g id="Group-5" transform="translate(188.000000, 954.000000)">
                <g id="002-hand-gesture">
                    <path d="M78.3884766,74.4305352 L54.1611602,78.0750508 L29.9338438,74.4305352 C29.9338438,69.8385352 29.9338438,12.2399414 29.9338438,7.569625 L54.1611602,3.92510938 L78.3884766,7.56946484 L78.3884766,74.4305352 Z" id="Path" fill="#463836"></path>
                    <g id="Group" transform="translate(29.789062, 0.000000)" fill="#6FC5D6">
                        <path d="M48.5995742,7.56946484 L0.14478125,7.56946484 C0.14478125,7.52750391 0.14478125,7.48922656 0.14478125,7.45463281 C0.14478125,3.35463281 3.49941406,0 7.59941406,0 L41.1447812,0 C45.2447812,0 48.5995742,3.35463281 48.5995742,7.45463281 L48.5995742,7.56946484 Z" id="Path"></path>
                        <path d="M48.5994141,74.5453672 C48.5994141,78.6453672 45.2446211,82 41.1446211,82 L7.59941406,82 C3.49941406,82 0.14478125,78.6453672 0.14478125,74.5453672 C0.14478125,74.5125352 0.14478125,74.4742578 0.14478125,74.4305352 L48.5994141,74.4305352 L48.5994141,74.5453672 Z" id="Path"></path>
                    </g>
                    <path d="M59.2823164,33.9071602 C58.8239492,33.9071602 58.3764727,33.6766953 58.1181406,33.2580469 C57.7215938,32.6156602 57.9209883,31.7737187 58.5630547,31.377332 C61.0635742,29.8339062 62.5562305,27.1608984 62.5562305,24.2271562 C62.5562305,19.5981602 58.7899961,15.8319258 54.1608398,15.8319258 C51.2114023,15.8319258 48.4429414,17.409625 46.9353906,19.949543 C46.5502148,20.5988164 45.711957,20.812625 45.0626836,20.4271289 C44.4135703,20.0419531 44.1999219,19.2035352 44.5850977,18.5544219 C46.5824062,15.1892187 50.2519062,13.0986992 54.161,13.0986992 C60.2975469,13.0986992 65.2896172,18.0909297 65.2896172,24.2271562 C65.2896172,28.1159102 63.3118477,31.6584062 59.9988555,33.7032812 C59.7752773,33.8413359 59.5270352,33.9071602 59.2823164,33.9071602 Z" id="Path" fill="#FFD24D"></path>
                    <g id="Group" transform="translate(39.878906, 42.761719)" fill="#F99D88">
                        <path d="M17.1469688,18.3343672 L11.7338477,18.0753945 L11.474875,12.6622734 C13.0416836,11.0954648 15.58,11.0954648 17.1469688,12.6622734 C18.7139375,14.229082 18.7139375,16.7673984 17.1469688,18.3343672 Z" id="Path"></path>
                        <path d="M11.4751953,12.6622734 L6.06207422,12.4033008 L5.80310156,6.99017969 C7.36991016,5.42337109 9.90822656,5.42337109 11.4751953,6.99017969 C13.0421641,8.55698828 13.0418438,11.0953047 11.4751953,12.6622734 Z" id="Path"></path>
                        <path d="M5.80310156,6.99017969 L0.389980469,6.73120703 L0.131007812,1.31808594 C1.69781641,-0.248722656 4.23613281,-0.248722656 5.80310156,1.31808594 C7.36991016,2.88489453 7.36991016,5.42337109 5.80310156,6.99017969 Z" id="Path"></path>
                    </g>
                    <path d="M40.0099141,44.0799648 L56.7773125,27.3125664 C58.3441211,25.7457578 58.3441211,23.2074414 56.7773125,21.6404727 C55.2105039,20.0735039 52.6721875,20.0736641 51.1052188,21.6404727 C51.1052188,21.6404727 27.680125,45.0655664 23.9833984,48.762293 C20.1745625,52.5711289 18.6128789,57.7560273 19.3873945,62.7000508 L0.0880859375,82 L26.780207,82 L32.7336953,76.0465117 C37.6775586,76.8210273 42.8627773,75.2593437 46.6714531,71.4505078 C50.9195977,67.2023633 57.025875,61.0960859 57.025875,61.0960859 L40.0099141,44.0799648 Z" id="Path" fill="#FAD4C6"></path>
                </g>
            </g>
        </g>
    </g>
</svg>