<?xml version="1.0" encoding="UTF-8"?>
<svg width="90px" height="82px" viewBox="0 0 90 82" version="1.1" xmlns="http://www.w3.org/2000/svg" xmlns:xlink="http://www.w3.org/1999/xlink">
    <!-- Generator: Sketch 52.6 (67491) - http://www.bohemiancoding.com/sketch -->
    <title>e-mail</title>
    <desc>Created with Sketch.</desc>
    <g id="Home-Page" stroke="none" stroke-width="1" fill="none" fill-rule="evenodd">
        <g id="Chat-With-Doctor" transform="translate(-604.000000, -954.000000)">
            <g id="Group-5" transform="translate(604.000000, 954.000000)">
                <g id="e-mail">
                    <path d="M88.8294714,31.6516457 C88.0811669,30.4787566 86.780153,29.70251 85.2999002,29.70251 L12.1875499,29.70251 C10.7072973,29.70251 9.40628316,30.4787566 8.65797872,31.6516457 C8.23271277,32.3174867 7.98532243,33.1100898 7.98532243,33.9613032 L7.98532243,77.6914562 C7.98532243,80.0440491 9.86698812,81.9509309 12.1875499,81.9509309 L85.2999002,81.9509309 C87.6211436,81.9509309 89.5021277,80.0440491 89.5021277,77.6914562 L89.5021277,33.9613032 C89.5021277,33.1100898 89.2547373,32.3174867 88.8294714,31.6516457 Z" id="Path" fill="#9196AA"></path>
                    <path d="M8.65729725,31.6516457 C8.23271277,32.3174867 7.98532243,33.1100898 7.98532243,33.9613032 L7.98532243,77.6914562 C7.98532243,78.8432181 8.43716755,79.887982 9.17047872,80.6546874 L38.5976563,48.3085771 L8.65729725,31.6516457 Z" id="Path" fill="#DCE1EB"></path>
                    <path d="M89.5021277,33.9613032 C89.5021277,33.1100898 89.2547373,32.3174867 88.8294714,31.6523271 L58.8932015,48.3065325 L88.3203789,80.6512799 C89.0516457,79.8852559 89.5021277,78.8418551 89.5021277,77.6914562 L89.5021277,33.9613032 Z" id="Path" fill="#BEC3D2"></path>
                    <path d="M55.5599069,50.1609374 L88.8294714,31.6516457 C88.0811669,30.4787566 86.780153,29.70251 85.2999002,29.70251 L12.1875499,29.70251 C10.7072973,29.70251 9.40628316,30.4787566 8.65797872,31.6516457 L41.9275432,50.1609374 C46.1727062,52.5230718 51.3147441,52.5230718 55.5599069,50.1609374 Z" id="Path" fill="#DCE1EB"></path>
                    <path d="M12.1875499,29.70251 C10.7072973,29.70251 9.40628316,30.4787566 8.65797872,31.6516457 L41.9275432,50.1609374 C44.0504654,51.3420047 46.3969249,51.9321974 48.7440659,51.9321974 L48.7440659,29.70251 L12.1875499,29.70251 Z" id="Path" fill="#F2F6FC"></path>
                    <path d="M41.9275432,50.1609374 L38.5983378,48.3085771 L9.17047872,80.6546874 C9.9337766,81.4534243 11.0030751,81.9509309 12.1875499,81.9509309 L48.7433842,81.9509309 L48.7433842,51.9321974 C46.3969249,51.9321974 44.0504654,51.3420047 41.9275432,50.1609374 Z" id="Path" fill="#BEC3D2"></path>
                    <path d="M0.496825089,25.7606217 L22.1785738,0.467520034 C22.5431849,0.0422540766 23.1347406,-0.111087145 23.659508,0.0831448596 C24.1849568,0.277377038 24.533893,0.778972783 24.533893,1.33917881 L24.533893,15.4935839 L36.13125,15.4935839 C36.8706948,15.4935839 37.4697473,16.0926363 37.4697473,16.832081 L37.4697473,36.4317985 C37.4697473,37.1712434 36.8706948,37.7702958 36.13125,37.7702958 L24.533893,37.7702958 L24.533893,51.9247009 C24.533893,52.4855884 24.1849568,52.9865027 23.6601895,53.1807347 C23.5082115,53.2366191 23.3514628,53.2638797 23.1953957,53.2638797 C22.8123836,53.2638797 22.4382314,53.0989527 22.1785738,52.7963597 L0.496825089,27.503258 C0.0667884766,27.0023437 0.0667884766,26.2622175 0.496825089,25.7606217 Z" id="Path" fill="#65B1FC"></path>
                    <path d="M0.496825089,25.7606217 L22.1785738,0.467520034 C22.5431849,0.0422540766 23.1347406,-0.111087145 23.659508,0.0831448596 C24.1849568,0.277377038 24.533893,0.778972783 24.533893,1.33917881 L24.533893,15.4935839 L36.13125,15.4935839 C36.8706948,15.4935839 37.4697473,16.0926363 37.4697473,16.832081 L37.4697473,26.6322807 L0.174468085,26.6322807 C0.174468085,26.3215094 0.282147694,26.0114196 0.496825089,25.7606217 Z" id="Path" fill="#A3D4FF"></path>
                </g>
            </g>
        </g>
    </g>
</svg>