<?xml version="1.0" encoding="UTF-8"?>
<svg width="82px" height="82px" viewBox="0 0 82 82" version="1.1" xmlns="http://www.w3.org/2000/svg" xmlns:xlink="http://www.w3.org/1999/xlink">
    <!-- Generator: Sketch 52.6 (67491) - http://www.bohemiancoding.com/sketch -->
    <title>003-placeholder</title>
    <desc>Created with Sketch.</desc>
    <g id="Home-Page" stroke="none" stroke-width="1" fill="none" fill-rule="evenodd">
        <g id="Chat-With-Doctor" transform="translate(-1006.000000, -954.000000)">
            <g id="Group-5" transform="translate(1006.000000, 954.000000)">
                <g id="003-placeholder">
                    <rect id="Rectangle" fill="#424A60" x="0" y="56.7166667" width="82" height="24.6"></rect>
                    <path d="M76.5333333,70.3833333 L71.0666667,70.3833333 L71.0666667,67.65 L76.5333333,67.65 L76.5333333,70.3833333 Z M65.6,70.3833333 L60.1333333,70.3833333 L60.1333333,67.65 L65.6,67.65 L65.6,70.3833333 Z M54.6666667,70.3833333 L49.2,70.3833333 L49.2,67.65 L54.6666667,67.65 L54.6666667,70.3833333 Z M43.7333333,70.3833333 L38.2666667,70.3833333 L38.2666667,67.65 L43.7333333,67.65 L43.7333333,70.3833333 Z M32.8,70.3833333 L27.3333333,70.3833333 L27.3333333,67.65 L32.8,67.65 L32.8,70.3833333 Z M21.8666667,70.3833333 L16.4,70.3833333 L16.4,67.65 L21.8666667,67.65 L21.8666667,70.3833333 Z M10.9333333,70.3833333 L5.46666667,70.3833333 L5.46666667,67.65 L10.9333333,67.65 L10.9333333,70.3833333 Z" id="Shape" fill="#FFFFFF" fill-rule="nonzero"></path>
                    <path d="M60.1743333,7.95946667 C50.4737333,-1.74113333 34.7447667,-1.74113333 25.0428,7.95946667 C16.3016,16.7006667 15.3176,33.1608 22.7358667,43.05 L42.6085667,71.75 L62.4812667,43.05 C69.8995333,33.1594333 68.9155333,16.7006667 60.1743333,7.95946667 Z M42.8504667,33.4833333 C38.3213333,33.4833333 34.6504667,29.8124667 34.6504667,25.2833333 C34.6504667,20.7542 38.3213333,17.0833333 42.8504667,17.0833333 C47.3796,17.0833333 51.0504667,20.7542 51.0504667,25.2833333 C51.0504667,29.8124667 47.3782333,33.4833333 42.8504667,33.4833333 Z" id="Shape" fill="#23A24D" fill-rule="nonzero"></path>
                </g>
            </g>
        </g>
    </g>
</svg>