<svg width="10px" height="6px" viewBox="0 0 10 6" version="1.1" xmlns="http://www.w3.org/2000/svg">
    <g stroke="none" stroke-width="1" fill="none" fill-rule="evenodd"  transform="translate(-65.000000, -7.000000)">
                            <path fill="#49b0c3" d="M74.814374,7.19788759 C74.6907601,7.06592605 74.5442294,7 74.3749188,7 L65.625047,7 C65.455668,7 65.3092399,7.06592605 65.1855234,7.19788759 C65.0618069,7.32999507 65,7.4861818 65,7.66673963 C65,7.84726099 65.0618069,8.00344771 65.1855234,8.13544574 L69.5604764,12.8019665 C69.6843297,12.933928 69.8307578,13 70,13 C70.1692422,13 70.3158071,12.933928 70.439421,12.8019665 L74.814374,8.13540926 C74.9379536,8.00344771 75,7.84726099 75,7.66670315 C75,7.4861818 74.9379536,7.32999507 74.814374,7.19788759 Z"></path>
                       
    </g>
</svg>