<?xml version="1.0" encoding="UTF-8"?>
<svg width="24px" height="24px" viewBox="0 0 24 24" version="1.1" xmlns="http://www.w3.org/2000/svg" xmlns:xlink="http://www.w3.org/1999/xlink">
    <!-- Generator: Sketch 52.5 (67469) - http://www.bohemiancoding.com/sketch -->
    <title>verified</title>
    <desc>Created with Sketch.</desc>
    <g id="Header" stroke="none" stroke-width="1" fill="none" fill-rule="evenodd">
        <g id="2-New-Changes" transform="translate(-190.000000, -3439.000000)" fill="#4C8FF7">
            <g id="6th-Section" transform="translate(0.000000, 3124.000000)">
                <g id="Group-15" transform="translate(190.000000, 108.000000)">
                    <g id="Points" transform="translate(0.000000, 74.000000)">
                        <g id="verified" transform="translate(0.000000, 133.000000)">
                            <path d="M20.4852656,3.5146875 C18.2187656,1.24823438 15.2053125,0 12,0 C8.79464062,0 5.78114062,1.24823438 3.5146875,3.5146875 C1.2481875,5.7811875 0,8.7946875 0,12 C0,15.2053125 1.2481875,18.2187656 3.5146875,20.4852656 C5.7811875,22.7517656 8.79464062,24 12,24 C15.2053125,24 18.2187656,22.7517656 20.4852656,20.4852656 C22.7517656,18.2187656 24,15.2053125 24,12 C24,8.7946875 22.7517656,5.78123438 20.4852656,3.5146875 Z M12,22.59375 C6.15857813,22.59375 1.40625,17.8414219 1.40625,12 C1.40625,6.15857812 6.15857813,1.40625 12,1.40625 C17.8414219,1.40625 22.59375,6.15857812 22.59375,12 C22.59375,17.8414219 17.8414219,22.59375 12,22.59375 Z" id="Shape" fill-rule="nonzero"></path>
                            <path d="M17.7330469,8.14964063 C17.4585,7.87514063 17.0132812,7.87514063 16.7387344,8.1496875 L10.5297187,14.3587031 L7.26126563,11.09025 C6.98671875,10.8157031 6.5415,10.8157031 6.26690625,11.09025 C5.9923125,11.3647969 5.9923125,11.8100156 6.26690625,12.0846094 L10.0325156,15.8502188 C10.1698125,15.9875156 10.3497656,16.0561406 10.5296719,16.0561406 C10.7095781,16.0561406 10.8895781,15.9874688 11.0268281,15.8502188 L17.7330469,9.144 C18.0076406,8.86945313 18.0076406,8.42423438 17.7330469,8.14964063 Z" id="Path"></path>
                        </g>
                    </g>
                </g>
            </g>
        </g>
    </g>
</svg>