<?xml version="1.0" encoding="UTF-8"?>
<svg width="12px" height="7px" viewBox="0 0 12 7" version="1.1" xmlns="http://www.w3.org/2000/svg" xmlns:xlink="http://www.w3.org/1999/xlink">
    <!-- Generator: Sketch 52.5 (67469) - http://www.bohemiancoding.com/sketch -->
    <title>Path</title>
    <desc>Created with Sketch.</desc>
    <g id="Header" stroke="none" stroke-width="1" fill="none" fill-rule="evenodd">
        <g id="Search-screen" transform="translate(-1049.000000, -253.000000)" fill="#4C8FF7">
            <g id="Header">
                <g id="MAIN">
                    <g id="Search-Area" transform="translate(169.000000, 202.000000)">
                        <g id="Location" transform="translate(682.000000, 2.000000)">
                            <g id="Group-4" transform="translate(0.000000, 28.000000)">
                                <path d="M209.450103,21.2308689 C209.305887,21.0769137 209.134934,21 208.937405,21 L198.729222,21 C198.531613,21 198.36078,21.0769137 198.216444,21.2308689 C198.072108,21.3849943 198,21.5672121 198,21.7778629 C198,21.9884712 198.072108,22.170689 198.216444,22.3246867 L203.320556,27.7689609 C203.465051,27.922916 203.635884,28 203.833333,28 C204.030783,28 204.201775,27.922916 204.345991,27.7689609 L209.450103,22.3246441 C209.594279,22.170689 209.666667,21.9884712 209.666667,21.7778203 C209.666667,21.5672121 209.594279,21.3849943 209.450103,21.2308689 Z" id="Path"></path>
                            </g>
                        </g>
                    </g>
                </g>
            </g>
        </g>
    </g>
</svg>