<?xml version="1.0" encoding="UTF-8"?>
<svg width="14px" height="14px" viewBox="0 0 14 14" version="1.1" xmlns="http://www.w3.org/2000/svg" xmlns:xlink="http://www.w3.org/1999/xlink">
    <!-- Generator: Sketch 52.6 (67491) - http://www.bohemiancoding.com/sketch -->
    <title>edit</title>
    <desc>Created with Sketch.</desc>
    <g id="Screens" stroke="none" stroke-width="1" fill="none" fill-rule="evenodd">
        <g id="Login-with-OTP" transform="translate(-941.000000, -426.000000)" fill="#6A7A8C" fill-rule="nonzero">
            <g id="Group-12" transform="translate(750.000000, 299.000000)">
                <g id="Group-13" transform="translate(26.000000, 120.000000)">
                    <g id="edit" transform="translate(165.000000, 7.000000)">
                        <path d="M13.1795673,0.820476563 C12.650493,0.291375 11.9470751,0 11.198868,0 C10.450661,0 9.74724304,0.291375 9.21816882,0.820449219 L1.38976257,8.64885547 C1.32315319,8.71546484 1.27486413,8.79815234 1.24962585,8.88890625 L0.0200320986,13.3064805 C-0.0329874327,13.4970117 0.0209891298,13.7013516 0.16120788,13.840832 C0.26511413,13.9441914 0.404348505,14 0.546918817,14 C0.596766474,14 0.647024286,13.9931641 0.696297724,13.9791641 L5.11387194,12.724332 C5.30027429,12.6713945 5.44473132,12.5237656 5.49362194,12.3362695 C5.54251257,12.1487734 5.488536,11.9494102 5.35173522,11.8121719 L2.5667196,9.01870703 L7.49482897,4.09059766 L9.90600085,6.50176953 L4.63088047,11.7554784 C4.417025,11.9687597 4.41653282,12.3150136 4.62981407,12.528869 C4.84309532,12.7427518 5.18934922,12.743162 5.40320469,12.5299354 L13.1795399,4.78184766 C13.7086141,4.25277344 13.9999891,3.54935547 13.9999891,2.80114844 C13.9999891,2.05294141 13.7086141,1.34949609 13.1795673,0.820476563 Z M3.92094616,11.9261953 L1.33510241,12.6607031 L2.05930163,10.0588906 L3.92094616,11.9261953 Z M9.90600085,6.50176953 L7.49482897,4.09059766 L9.05342272,2.53200391 L11.4667274,4.94530859 L9.90600085,6.50176953 Z M12.4066688,4.00791016 L12.2411571,4.17298438 L9.82681335,1.75864062 L9.99158679,1.59386719 C10.3140516,1.27134766 10.7428016,1.09375 11.198868,1.09375 C11.6549071,1.09375 12.0836571,1.27134766 12.4061766,1.59386719 C12.7286415,1.91633203 12.9062391,2.34510938 12.9062391,2.80114844 C12.9062391,3.25721484 12.7286415,3.6859375 12.4066688,4.00791016 Z" id="Shape"></path>
                    </g>
                </g>
            </g>
        </g>
    </g>
</svg>