<?xml version="1.0" encoding="UTF-8"?>
<svg width="20px" height="20px" viewBox="0 0 20 20" version="1.1" xmlns="http://www.w3.org/2000/svg" xmlns:xlink="http://www.w3.org/1999/xlink">
    <!-- Generator: Sketch 52.6 (67491) - http://www.bohemiancoding.com/sketch -->
    <title>search (1)</title>
    <desc>Created with Sketch.</desc>
    <g id="Screens" stroke="none" stroke-width="1" fill="none" fill-rule="evenodd">
        <g id="Login-Plain" transform="translate(-1023.000000, -676.000000)">
            <g id="Group-19" transform="translate(188.000000, 182.000000)">
                <g id="Group-12" transform="translate(562.000000, 117.000000)">
                    <g id="Group-18" transform="translate(26.000000, 365.000000)">
                        <g id="CTA-Google" transform="translate(201.000000, 0.000000)">
                            <g id="Group-17" transform="translate(46.000000, 12.000000)">
                                <g id="search-(1)">
                                    <path d="M4.43242188,12.08625 L3.73625,14.6851563 L1.19175781,14.7389844 C0.431328125,13.3285547 0,11.7148438 0,10 C0,8.34175781 0.40328125,6.77800781 1.118125,5.40109375 L1.11867187,5.40109375 L3.38398438,5.81640625 L4.37632812,8.068125 C4.16863281,8.67363281 4.05542969,9.32363281 4.05542969,10 C4.05550781,10.7340625 4.18847656,11.4373828 4.43242188,12.08625 Z" id="Path" fill="#FBBB00"></path>
                                    <path d="M19.8252734,8.131875 C19.9401172,8.73679688 20,9.36152344 20,10 C20,10.7159375 19.9247266,11.4142969 19.7813281,12.0879297 C19.2945312,14.3802344 18.0225391,16.381875 16.2604688,17.7983594 L16.2599219,17.7978125 L13.4066406,17.6522266 L13.0028125,15.1313281 C14.1720312,14.445625 15.0857813,13.3725391 15.5671094,12.0879297 L10.2198438,12.0879297 L10.2198438,8.131875 L15.6451172,8.131875 L19.8252734,8.131875 Z" id="Path" fill="#518EF8"></path>
                                    <path d="M16.2598828,17.7978125 L16.2604297,17.7983594 C14.5467188,19.1758203 12.3697656,20 10,20 C6.19175781,20 2.88078125,17.8714453 1.19175781,14.7390234 L4.43242187,12.0862891 C5.27691406,14.3401172 7.45109375,15.9445313 10,15.9445313 C11.0955859,15.9445313 12.1219922,15.6483594 13.0027344,15.1313281 L16.2598828,17.7978125 Z" id="Path" fill="#28B446"></path>
                                    <path d="M16.3829687,2.3021875 L13.1433984,4.954375 C12.231875,4.38460937 11.154375,4.05546875 10,4.05546875 C7.39339844,4.05546875 5.17855469,5.73347656 4.37636719,8.068125 L1.11867187,5.40109375 L1.118125,5.40109375 C2.78242188,2.19230469 6.13515625,0 10,0 C12.4263672,0 14.6510938,0.864296875 16.3829687,2.3021875 Z" id="Path" fill="#F14336"></path>
                                </g>
                            </g>
                        </g>
                    </g>
                </g>
            </g>
        </g>
    </g>
</svg>