<svg xmlns="http://www.w3.org/2000/svg" xmlns:xlink="http://www.w3.org/1999/xlink" width="515" height="380" viewBox="0 0 515 380">
    <defs>
        <path id="b" d="M2.475 15.716h347.312a2 2 0 0 1 2 2v269.916a2 2 0 0 1-2 2H2.475a2 2 0 0 1-2-2V17.716a2 2 0 0 1 2-2z"/>
        <filter id="a" width="123.1%" height="129.6%" x="-11.5%" y="-15.9%" filterUnits="objectBoundingBox">
            <feOffset dy="-3" in="SourceAlpha" result="shadowOffsetOuter1"/>
            <feGaussianBlur in="shadowOffsetOuter1" result="shadowBlurOuter1" stdDeviation="13"/>
            <feColorMatrix in="shadowBlurOuter1" values="0 0 0 0 0.333333333 0 0 0 0 0.807843137 0 0 0 0 0.925490196 0 0 0 0.22 0"/>
        </filter>
    </defs>
    <g fill="none" fill-rule="evenodd" transform="translate(1)">
        <path fill="#E6F0F9" fill-rule="nonzero" d="M504.588 259.816c-12.515 25.835-37.925 43.11-64.258 54.502-35.452 15.343-74.493 21.428-112.996 18.854a255.04 255.04 0 0 1-20.183-2.154 254.4 254.4 0 0 1-67.479-19.665 242.954 242.954 0 0 1-18.218-9.148 233.054 233.054 0 0 1-28.476-18.638 227.21 227.21 0 0 1-6.717-5.335c-1.53-1.263-3.047-2.555-4.587-3.809-3.25-2.644-6.594-5.156-10.324-7.037a36.87 36.87 0 0 0-3.457-1.527c-11.813-4.497-25.434-2.8-37.732.707-9.354 2.668-18.472 6.32-27.817 8.927a92.255 92.255 0 0 1-12.674 2.696 67.403 67.403 0 0 1-28.477-2.502l-.786-.246a70.63 70.63 0 0 1-3.924-1.362l-.786-.301a61.198 61.198 0 0 1-3.688-1.56l-.787-.359a68.476 68.476 0 0 1-3.687-1.852c-.434-.226-.862-.472-1.286-.703a77.096 77.096 0 0 1-18.444-14.37c-.156-.156-.302-.317-.471-.472a72.982 72.982 0 0 1-2.195-2.48 70.07 70.07 0 0 1-3.231-4.105c-.118-.156-.231-.316-.344-.471a68.167 68.167 0 0 1-7.941-14.372 9.72 9.72 0 0 1-.184-.471 75.036 75.036 0 0 1-1.719-4.935 50.533 50.533 0 0 1-.593-2.112c-.062-.207-.118-.42-.17-.627-2.6-10.242-2.896-20.89-2.896-31.476v-3.7c.075-17.124.339-34.54 2.863-51.43 0-.117.033-.235.052-.348a160.722 160.722 0 0 1 3.443-16.884 124.618 124.618 0 0 1 5.798-17.11c5.807-13.669 14.252-26.107 23.63-37.637 23.62-29.011 54.597-53.366 90.855-62.481 39.069-9.819 82.49-.41 114.004 24.698 9.608 7.655 18.241 16.719 29.032 22.587 9.42 5.11 20.446 7.226 30.534 3.205 8.337-3.323 13.763-4.972 23.126-4.468a193.717 193.717 0 0 1 56.69 11.883c.734.268 1.469.546 2.199.824 47.434 18.161 88.208 54.243 109.402 100.61.562 1.225 1.107 2.46 1.635 3.704 12.636 29.54 17.205 64.16 3.264 92.95z"/>
        <g transform="translate(78.375 57)">
            <g fill-rule="nonzero">
                <use fill="#000" filter="url(#a)" xlink:href="#b"/>
                <use fill="#9CC4FF" xlink:href="#b"/>
            </g>
            <rect width="352.705" height="281.256" y="9.5" fill="#FFF" fill-rule="nonzero" rx="3"/>
            <path fill="#558BD4" fill-rule="nonzero" d="M6.26 0h339.853a6 6 0 0 1 6 6v12.855H.26V6a6 6 0 0 1 6-6z"/>
            <ellipse cx="13.161" cy="9.254" fill="#FFF" opacity=".5" rx="3.188" ry="3.185"/>
            <ellipse cx="26.321" cy="9.254" fill="#FFF" opacity=".5" rx="3.188" ry="3.185"/>
            <ellipse cx="38.47" cy="9.254" fill="#FFF" opacity=".5" rx="3.188" ry="3.185"/>
            <path fill="#9CC4FF" fill-rule="nonzero" d="M25.375 129.438h301.626a4 4 0 0 1 4 4V274.86a4 4 0 0 1-4 4H25.375a4 4 0 0 1-4-4V133.437a4 4 0 0 1 4-4z" opacity=".5"/>
            <path fill="#9CC4FF" fill-rule="nonzero" d="M23.375 54.625h127.438a2 2 0 0 1 2 2v9.245a2 2 0 0 1-2 2H23.375a2 2 0 0 1-2-2v-9.245a2 2 0 0 1 2-2zM23.375 78.375h186.813a2 2 0 0 1 2 2v9.245a2 2 0 0 1-2 2H23.375a2 2 0 0 1-2-2v-9.245a2 2 0 0 1 2-2z" opacity=".6"/>
        </g>
        <ellipse cx="52.264" cy="340.382" fill="#6C63FF" opacity=".1" rx="38.353" ry="6.161"/>
        <g transform="translate(292.125 133)">
            <ellipse cx="68.582" cy="240.357" fill="#6C63FF" opacity=".1" rx="68.005" ry="6.604"/>
            <path fill="#B8D3FA" d="M82.176 39.715v5.404L71.09 50.693s-11.009-6.66-8.293-9.31c1.737-1.677 1.403-6.282.934-9.45-.274-1.841-.591-3.193-.591-3.193s19.776-5.647 16.787-1.36c-1 1.434-1.077 3.29-.743 5.127.678 3.645 2.993 7.208 2.993 7.208z"/>
            <path fill="#4576B9" d="M51.804 92.566l-1.43 17.604s-2.141-1.942-4.913-4.47c-5.14-4.689-12.438-11.392-12.351-11.57.134-.274 1.303-16.244 1.429-20.259.119-2.85.74-5.655 1.833-8.29.26-.52.995-3.84 1.304-5.39.104-.483.169-.796.169-.796l2.398-.964s9.993 11.148 9.993 11.352c0 .204-.682 8.767-.682 8.767l-.709.617-.308.265s-.478 3.74-.817 4.862c-.339 1.12.026 3.067.065 3.275a10.101 10.101 0 0 1-.247 1.738 3.64 3.64 0 0 1-.23.639c-.123.38-.098.793.069 1.156.193.503.444.983.747 1.429l3.68.035zM112.362 94.13c.104.213-10.553 9.94-15.17 14.141l-2.095 1.899-1.416-17.604h3.67s1.226-1.769.818-2.585a7.555 7.555 0 0 1-.474-2.377s.404-2.172.065-3.297c-.339-1.126-.817-4.862-.817-4.862l-.464-.4-.552-.482s-.682-8.563-.682-8.767c0-.204 9.992-11.352 9.992-11.352l2.38.951s.053.257.14.665c.321 1.481 1.09 4.987 1.355 5.522a24.242 24.242 0 0 1 1.834 8.29c.113 4.014 1.277 19.984 1.416 20.258z"/>
            <path fill="#36557E" d="M112.406 243.555c-.64 1.268-5.123.434-6.048.365-.925-.07-7.46-3.359-7.55-4.128-.092-.769-2.355-2.354-2.99-2.354-.634 0-3.714-2.45-3.988-2.811-.07-.18-.1-.372-.091-.565-.096-1.49.091-5.326.091-5.326l13.142.725 6.387 9.606a12.39 12.39 0 0 1 1.155 3.289c.078.402.04.817-.108 1.199z"/>
            <path fill="#000" d="M112.406 243.555c-.64 1.268-5.123.434-6.048.365-.925-.07-7.46-3.359-7.55-4.128-.092-.769-2.355-2.354-2.99-2.354-.634 0-3.714-2.45-3.988-2.811-.07-.18-.1-.372-.091-.565l4.257 2.694s2.72 1.737 3.446 2.767c.725 1.03 6.442 3.172 6.916 3.215.352.035 4.106-.686 6.156-.382.078.402.04.817-.108 1.199z" opacity=".1"/>
            <path fill="#36557E" d="M50.279 235.626s-1.86 2.311-4.344 2.49a2.559 2.559 0 0 0-2.538 2.445s.435 1.408-5.574 3.359c-3.627 1.168-5.908.8-7.238 0a3.232 3.232 0 0 1-1.507-1.816c-.409-1.447 7.611-12.46 7.611-12.46l7.3-.435 5.213 2.355.799 2.985.278 1.077z"/>
            <path d="M50.279 235.626s-1.86 2.311-4.344 2.49a2.559 2.559 0 0 0-2.538 2.445s.435 1.408-5.574 3.359c-3.627 1.168-5.908.8-7.238 0 3.42-.357 10.975-2.516 11.73-3.263.909-.908 2.042-3.402 2.811-3.445.535-.035 3.25-1.668 4.88-2.68l.273 1.094z"/>
            <path fill="#000" d="M50.279 235.626s-1.86 2.311-4.344 2.49a2.559 2.559 0 0 0-2.538 2.445s.435 1.408-5.574 3.359c-3.627 1.168-5.908.8-7.238 0 3.42-.357 10.975-2.516 11.73-3.263.909-.908 2.042-3.402 2.811-3.445.535-.035 3.25-1.668 4.88-2.68l.273 1.094z" opacity=".1"/>
            <path fill="#3C6399" d="M106.24 225.52c-.816 1.904 0 5.8 0 5.8s-12.164.635-15.136-1.36c-2.971-1.993-5.074-13.415-5.074-13.415s.434-13.412 0-14.046c-.434-.634-2.085-3.623-1.542-4.257.543-.635-.435-3.989-1.178-5.44-.743-1.45-.434-5.617-.434-5.617l-1.816-11.061-2.807-13.138-2.385-8.793s-2.446-7.16-3.276-10.15c-.83-2.988-1.707-.273-1.707-.273-.087 2.902-6.795 15.953-6.795 15.953s-.999 7.885-2.085 10.692c-1.086 2.806-2.268 12.599-2.268 12.599s-1.738 19.937-3.171 23.291c-1.434 3.354-2.42 8.337-2.42 8.337s.365 6.89-.543 7.434c-.908.543-.76 4.713-.76 4.713s.542 3.984-1.543 4.623c-2.085.639-1.738 1.994-1.738 1.994s-11.6 1.903-13.503-3.176c-1.902-5.079.726-6.43.87-6.795.143-.365 1.59-.995.32-2.45-1.268-1.455 1.63-5.435 1.63-5.435s.456-5.617 1.269-5.8c.812-.182.547-8.337.547-8.337l.904-8.52s1.181-19.033.908-19.758c-.274-.726-.092-4.345.816-6.083.908-1.738 1.63-17.586 1.63-17.586s-.183-7.79.543-9.241c.434-.821.617-3.98.72-6.556.08-1.968.096-3.597.096-3.597l10.15-3.806 13.033-4.166 10.965 5.256 16.045 3.08.2 2.768 3.062 42.277 1.738 15.948s.726 7.52.817 8.88c.091 1.36.995 10.245.995 10.245s1.903 4.258.725 5.709c-1.177 1.45-.725 2.606-.725 2.606s3.74 4.749 2.924 6.652z"/>
            <path fill="#000" d="M79.935 27.38c-1 1.434-1.078 3.29-.743 5.127a12.747 12.747 0 0 1-15.454-.578 43.425 43.425 0 0 0-.59-3.193s19.776-5.64 16.787-1.355z" opacity=".1"/>
            <path fill="#B8D3FA" d="M84.557 21.837c0 7.03-5.699 12.73-12.73 12.73-7.03 0-12.729-5.7-12.729-12.73s5.7-12.73 12.73-12.73a12.669 12.669 0 0 1 12.73 12.73z"/>
            <path fill="#558BD4" d="M87.207 43.533l-4.17 74.27-22.657-4.757-4.488-29.773 4.445-39.965 3.345.425 5.9.752 5.843.36 6.334-.703z"/>
            <path fill="#305A92" d="M68.582 45.528l8.16.273-2.294 3.21s.16 6.487 1.25 8.347c1.091 1.86.77 30.585.77 30.585l-2.172 4.123-3.715-4.623.048-37.927-2.047-3.988z"/>
            <path fill="#000" d="M81.36 37.1l-7.612 8.428 4.349 4.53 7.207-7.024z" opacity=".1"/>
            <path fill="#558BD4" d="M81.36 36.556l-7.612 8.429 4.349 4.53 7.207-7.024z"/>
            <path fill="#000" d="M70.533 45.12l-7.707-7.704-.726 4.032 3.537 8.837z" opacity=".1"/>
            <path fill="#558BD4" d="M70.803 44.576L63.1 36.873l-.726 4.032 3.537 8.837z"/>
            <path fill="#000" d="M96.744 133.217a37.61 37.61 0 0 1-11.73 3.393c-7.477.952-12.37-8.563-12.37-8.563l-2.854 3.715c-.908 3.945-14.728 4.94-20.345 3.445a8.989 8.989 0 0 1-3.224-1.525c.078-1.968.096-3.597.096-3.597l10.149-3.806 13.033-4.166 10.966 5.257 16.044 3.08.235 2.767zM87.207 43.538l-4.166 74.265-22.661-4.757-4.497-29.769 4.44-39.97 3.346.435a40.612 40.612 0 0 1-.491 4.345c-.543 2.541 2.81 20.575 2.81 20.575s6.374 20.224 9.242 17.309c2.867-2.916 6.95-18.308 6.95-18.308 2.768-5.709.049-21.723-.156-22.044a6.465 6.465 0 0 1-.26-1.456l5.443-.625zM96.996 101.007l.19 7.277-2.093 1.899-1.412-17.617h3.128zM47.79 87.582a10.101 10.101 0 0 1-.248 1.738c0-.16 0-.252-.035-.265-.13-.034.026-.7.283-1.473zM51.804 92.566l-1.43 17.604s-2.141-1.942-4.913-4.47l.33-3.12s1.169-7.664 1.595-11.444c.193.504.443.984.747 1.43h3.671z" opacity=".1"/>
            <path fill="#4576B9" d="M64.095 37.143s-1.356-1.994-3.215 1.855c0 0-4.849 2.81-6.517 3.128-1.668.317-7.603 2.402-7.603 2.402a5.248 5.248 0 0 1-3.08.995c-1.86 0-3.402 4.08-3.176 6.3.226 2.22-.135 3.853-1.855 3.945-1.72.09-.774 3.666-.774 3.666l11.466 13.143s.725 12.099.365 12.464c-.361.365-1.677 3.91-1.36 4.032.317.121-1.738 13.502-1.738 13.502l-2.763 25.968s0 4.344 5.622 5.843c5.621 1.499 19.45.508 20.34-3.437l2.855-3.719s4.892 9.52 12.369 8.568c7.477-.952 12.238-3.671 12.238-3.671l-.816-31.12-.544-22.43 11.674-19.182s-3.128-5.982-2.854-8.689c.274-2.706.812-4.757-5.848-5.708 0 0-5.617-.839-8.928-3.128a25.52 25.52 0 0 0-6.386-3.215s-1.868-3.476-3.167-2.286c0 0 1.303 4.914 1.194 5.648-.108.734.204 4.054.409 4.397.204.343 2.924 16.335.156 22.044 0 0-4.062 15.393-6.951 18.308-2.89 2.915-9.24-17.309-9.24-17.309s-3.355-18.038-2.812-20.575c.543-2.538.939-11.74.939-11.74z"/>
            <circle cx="73.792" cy="94.56" r="1.994" fill="#305A92"/>
            <circle cx="73.792" cy="103.961" r="1.994" fill="#305A92"/>
            <path fill="#000" stroke="#6C63FF" d="M91.713 222.801s8.185.634 8.997 1.269c.813.634-8.997-1.269-8.997-1.269zM42.98 216.367s1.738 2.172 1 3.171c-.74 1-1-3.171-1-3.171zM45.066 224.2s3.171-2.085 4.44-.7c1.268 1.386-4.44.7-4.44.7z" opacity=".1"/>
            <path fill="#000" d="M84.557 21.837a12.669 12.669 0 0 1-.408 3.22 1.447 1.447 0 0 1-.843-1.417c.056-.517.4-.99.326-1.503-.109-.791-1.065-1.112-1.569-1.738-.62-.756-.486-1.855-.434-2.833.052-.977-.195-2.172-1.112-2.506-.274-.1-.574-.11-.839-.222-.72-.304-.942-1.2-1.425-1.816-.964-1.243-2.88-1.217-4.344-.626a20.65 20.65 0 0 1-1.955.817 2.555 2.555 0 0 1-2.046-.152c-.287-.182-.517-.434-.813-.617-.982-.59-2.268 0-3.12.76-.85.76-1.533 1.782-2.606 2.247-.482.217-1.077.347-1.303.816-.112.256-.16.535-.14.813 0 1.69.2 3.406-.151 5.061-.226 1.064-.974 2.272-2.055 2.142a2.029 2.029 0 0 1-.396-.1 12.73 12.73 0 1 1 25.242-2.355l-.009.009z" opacity=".1"/>
            <path fill="#36557E" d="M58.755 23.462c.326.074.634.243.969.287 1.082.13 1.829-1.078 2.055-2.142.352-1.656.17-3.372.156-5.062a1.655 1.655 0 0 1 .135-.812c.248-.47.843-.6 1.303-.817 1.052-.469 1.738-1.468 2.607-2.246.869-.778 2.133-1.351 3.115-.76.291.174.526.434.813.617.633.33 1.375.384 2.05.152.674-.2 1.304-.552 1.95-.817 1.452-.59 3.372-.613 4.345.621.483.621.704 1.512 1.425 1.816.265.113.565.126.839.226.917.343 1.151 1.53 1.112 2.507-.04.977-.17 2.077.434 2.833.504.616 1.46.938 1.569 1.737.07.513-.27.99-.326 1.504a1.442 1.442 0 0 0 1.36 1.538c1.13 0 1.829-1.265 2.885-1.669.434-.17.96-.195 1.303-.538.258-.334.357-.765.27-1.178-.214-1.664-1.547-3.11-1.404-4.779.135-1.599 1.616-2.993 1.303-4.566a3.702 3.702 0 0 0-.869-1.55 5.022 5.022 0 0 0-1.772-1.5c-.604-.26-1.303-.321-1.855-.638-1.642-.9-1.638-3.246-2.607-4.845a4.253 4.253 0 0 0-3.962-1.972c-1.22.122-2.329.769-3.537.986-1.655.296-3.332-.247-4.9-.869C67.953.906 66.367.223 64.685.223c-1.68 0-3.501.869-4.014 2.459-.27.869-.135 1.799-.343 2.672-.365 1.55-1.738 2.654-3.12 3.423-.95.53-2.094 1.139-2.206 2.22-.074.687.304 1.304.543 1.968a5.01 5.01 0 0 1-.026 3.476c-.318.821-.848 1.542-1.17 2.36a4.236 4.236 0 0 0 .114 3.475 3.241 3.241 0 0 0 1.985 1.629c.856.204 1.395-.643 2.307-.443z"/>
            <g fill="#000" opacity=".1">
                <path d="M61.779 20.66c-.226 1.064-.978 2.272-2.06 2.141-.334-.043-.638-.212-.968-.286-.908-.2-1.447.651-2.303.434a3.25 3.25 0 0 1-1.99-1.629 3.762 3.762 0 0 1-.404-1.42c-.086.769.054 1.546.404 2.237a3.25 3.25 0 0 0 1.99 1.629c.87.2 1.395-.652 2.303-.435.318.111.641.205.969.283 1.081.135 1.833-1.073 2.059-2.138.178-.94.248-1.898.209-2.854a10.7 10.7 0 0 1-.209 2.038zM55.827 14.117a5 5 0 0 0-.287-2.099 11.092 11.092 0 0 1-.5-1.372 1.994 1.994 0 0 0-.043.221c-.074.682.309 1.303.543 1.968.152.413.248.844.287 1.282zM89.02 11.827c-.205 1.234-1.204 2.394-1.304 3.693a3.106 3.106 0 0 0 0 .67c.217-1.517 1.56-2.86 1.303-4.363zM89.093 20.994c-.037.182-.123.35-.248.487-.321.343-.869.369-1.303.538-1.056.404-1.738 1.682-2.885 1.669a1.455 1.455 0 0 1-1.303-1.008 2.25 2.25 0 0 0-.061.287 1.442 1.442 0 0 0 1.36 1.533c1.134 0 1.829-1.264 2.885-1.664.434-.17.964-.195 1.303-.539.258-.333.357-.764.27-1.177-.005-.052-.014-.087-.018-.126zM83.645 20.634c-.109-.791-1.065-1.113-1.568-1.738a2.38 2.38 0 0 1-.478-1.425c-.035.808-.022 1.633.478 2.241.5.609 1.26.87 1.503 1.495.061-.185.083-.38.065-.573zM81.625 16.085c.034-.978-.2-2.172-1.117-2.507-.27-.1-.569-.113-.834-.222-.721-.304-.947-1.199-1.425-1.816-.969-1.238-2.885-1.216-4.345-.625-.651.265-1.272.617-1.95.817a2.555 2.555 0 0 1-2.046-.152c-.287-.183-.522-.435-.813-.617-.986-.591-2.272 0-3.12.76-.846.76-1.533 1.777-2.606 2.246-.487.217-1.077.348-1.33.817-.11.256-.156.535-.134.812v.509c.006-.175.049-.347.126-.504.252-.47.843-.6 1.33-.817 1.05-.47 1.737-1.469 2.606-2.246.869-.778 2.133-1.351 3.12-.76.29.173.525.434.812.612.63.337 1.373.392 2.046.152a20.076 20.076 0 0 0 1.95-.812c1.456-.591 3.372-.617 4.345.62.478.618.704 1.513 1.425 1.817.265.113.565.126.834.226.743.278 1.039 1.112 1.104 1.937l.022-.247z"/>
            </g>
            <path fill="#40618C" d="M60.228 20.351a3.332 3.332 0 0 1 2.511-3.115c1.938-.47 3.97-.378 5.857.265 4.122 1.369-.522 6.274-.522 6.274s-3.089 3.04-5.97.916a4.488 4.488 0 0 1-1.68-2.606 6.608 6.608 0 0 1-.196-1.734zM82.893 20.351a3.332 3.332 0 0 0-2.515-3.115 10.466 10.466 0 0 0-5.852.265c-4.123 1.369.521 6.274.521 6.274s3.085 3.04 5.97.916a4.488 4.488 0 0 0 1.68-2.606c.142-.567.208-1.15.196-1.734z"/>
            <path fill="#36557E" d="M67.818 17.11v.209h7.529v-.248z"/>
            <path fill="#6C63FF" d="M70.22 19.287h.24v-.691s.764-.59 2.033 0v.621h.434v-.408h-.213s.087-.834-1.33-.704c0 0-1.138-.104-1.112.613h-.26l.208.569z"/>
        </g>
        <g fill-rule="nonzero">
            <path fill="#2C8257" d="M228.58 212.645h46.837v57.083H228.58z"/>
            <path fill="#2DA569" d="M291.152 199.024h-7.256V184.93c0-15.904-12.68-29.125-28.585-29.366a29.066 29.066 0 0 0-29.371 28.975v14.485h-7.24c-6.66.02-12.054 5.415-12.075 12.075v57.95c.02 6.661 5.415 12.055 12.075 12.076h72.452c6.66-.02 12.052-5.416 12.07-12.075V211.1c-.018-6.66-5.41-12.055-12.07-12.076zm-31.996 37.672v20.755a4.332 4.332 0 0 1-4.016 4.348 4.236 4.236 0 0 1-4.434-4.23v-20.884a9.639 9.639 0 1 1 8.45 0v.01zm16.3-37.672H234.39V184.54c0-11.335 9.19-20.525 20.525-20.525 11.336 0 20.525 9.19 20.525 20.525l.016 14.485z"/>
        </g>
        <path fill="#535461" d="M51.031 222.377h2.468v55.566h-2.468z"/>
        <path fill="#36557E" d="M69.008 277.774l-.156 2.502-.217 3.532-.092 1.473-.217 3.536-.095 1.473-.218 3.532-2.49 40.174a6.804 6.804 0 0 1-6.79 6.386H45.796a6.8 6.8 0 0 1-6.787-6.386l-2.502-40.174-.217-3.532-.092-1.473-.212-3.545-.092-1.473-.217-3.532-.156-2.502a3.523 3.523 0 0 1 3.519-3.74h26.454a3.52 3.52 0 0 1 3.514 3.749z"/>
        <path fill="#9D9CB5" d="M68.852 280.276l-.217 3.532H35.89l-.217-3.532zM68.543 285.28l-.217 3.537H36.203l-.222-3.536zM68.23 290.29l-.217 3.532H36.516l-.222-3.532z" opacity=".2"/>
        <path fill="#4576B9" d="M31.906 243.204c14.372 10.397 20.358 26.663 20.358 26.663s-17.321-.596-31.714-10.992C6.156 248.479.19 232.213.19 232.213s17.34.595 31.715 10.991z"/>
        <path stroke="#535461" stroke-width="2" d="M.213 232.213s17.977 9.992 23.743 18.247c5.765 8.254 28.308 19.411 28.308 19.411"/>
        <path fill="#4576B9" d="M41.182 222.277c7.82 5.648 11.082 14.51 11.082 14.51s-9.427-.321-17.252-5.982c-7.824-5.66-11.078-14.51-11.078-14.51s9.428.3 17.248 5.982z"/>
        <path stroke="#535461" stroke-width="2" d="M23.934 216.273s9.784 5.43 12.92 9.927c3.137 4.496 15.41 10.566 15.41 10.566"/>
        <path fill="#4576B9" d="M63.634 236.318c-8.989 9.875-10.887 22.779-10.887 22.779s12.668-3.107 21.653-12.982c8.984-9.875 10.887-22.782 10.887-22.782s-12.668 3.106-21.653 12.985z"/>
        <path stroke="#535461" stroke-width="2" d="M85.287 223.333s-11.704 10.122-14.68 17.1c-2.976 6.977-17.86 18.68-17.86 18.68"/>
    </g>
</svg>
