<?xml version="1.0" encoding="UTF-8"?>
<svg width="10px" height="8px" viewBox="0 0 10 8" version="1.1" xmlns="http://www.w3.org/2000/svg" xmlns:xlink="http://www.w3.org/1999/xlink">
    <!-- Generator: Sketch 52.6 (67491) - http://www.bohemiancoding.com/sketch -->
    <title>XMLID_89_</title>
    <desc>Created with Sketch.</desc>
    <g id="Screens" stroke="none" stroke-width="1" fill="none" fill-rule="evenodd">
        <g id="Login-Select" transform="translate(-780.000000, -512.000000)" fill="#FFFFFF" fill-rule="nonzero">
            <g id="Group-12" transform="translate(750.000000, 299.000000)">
                <g id="Forms" transform="translate(26.000000, 32.000000)">
                    <g id="Group-13" transform="translate(0.000000, 176.000000)">
                        <g id="Group-11">
                            <g id="Group-14">
                                <path d="M6.88455825,12.8730907 C6.96582297,12.9543554 7.07606335,13 7.19098375,13 C7.30593303,13 7.41614452,12.9543265 7.49738036,12.8730907 L13.4050918,6.96537926 C13.4863854,6.88411453 13.53203,6.77390304 13.53203,6.65898265 C13.53203,6.54403336 13.4863854,6.43382187 13.4050918,6.35255715 L12.1794187,5.12691294 C12.0102159,4.95771013 11.7358283,4.95768124 11.5665966,5.12691294 L7.1910993,9.50246798 L5.96539731,8.27676599 C5.88413259,8.19550126 5.77389221,8.14982777 5.65897181,8.14982777 C5.54405142,8.14982777 5.43383993,8.19550126 5.3525752,8.27676599 L4.1269021,9.50243909 C3.9576993,9.67167078 3.9576993,9.9460295 4.1269021,10.1152612 L6.88455825,12.8730907 Z" id="XMLID_89_"></path>
                            </g>
                        </g>
                    </g>
                </g>
            </g>
        </g>
    </g>
</svg>