<?xml version="1.0" encoding="UTF-8"?>
<svg width="7px" height="12px" viewBox="0 0 7 12" version="1.1" xmlns="http://www.w3.org/2000/svg" xmlns:xlink="http://www.w3.org/1999/xlink">
    <!-- Generator: Sketch 52.5 (67469) - http://www.bohemiancoding.com/sketch -->
    <title>Path</title>
    <desc>Created with Sketch.</desc>
    <g id="Header" stroke="none" stroke-width="1" fill="none" fill-rule="evenodd">
        <g id="Speciality-Popup" transform="translate(-661.000000, -375.000000)" fill="#106CF9">
            <g id="Header">
                <g id="Category-Box" transform="translate(430.000000, 284.000000)">
                    <path d="M237.858481,96.5317599 L232.518329,91.1917058 C232.394818,91.068097 232.229941,91 232.054138,91 C231.878334,91 231.713458,91.068097 231.589946,91.1917058 L231.196681,91.5848733 C230.940781,91.8410663 230.940781,92.2574532 231.196681,92.513256 L235.680938,96.9975122 L231.191706,101.486744 C231.068195,101.610353 231,101.775132 231,101.950838 C231,102.126739 231.068195,102.291518 231.191706,102.415224 L231.584971,102.808294 C231.70858,102.931903 231.873359,103 232.049162,103 C232.224966,103 232.389842,102.931903 232.513354,102.808294 L237.858481,97.4633621 C237.982285,97.3393631 238.050284,97.1738035 238.049894,96.9978049 C238.050284,96.8211234 237.982285,96.6556613 237.858481,96.5317599 Z" id="Path"></path>
                </g>
            </g>
        </g>
    </g>
</svg>