<?xml version="1.0" encoding="UTF-8"?>
<svg width="27px" height="22px" viewBox="0 0 27 22" version="1.1" xmlns="http://www.w3.org/2000/svg" xmlns:xlink="http://www.w3.org/1999/xlink">
    <!-- Generator: Sketch 52.5 (67469) - http://www.bohemiancoding.com/sketch -->
    <title>twitter</title>
    <desc>Created with Sketch.</desc>
    <g id="Header" stroke="none" stroke-width="1" fill="none" fill-rule="evenodd">
        <g id="2-New-Changes" transform="translate(-1047.000000, -3839.000000)" fill="#FFFFFF">
            <g id="Footer" transform="translate(0.000000, 3685.000000)">
                <g id="Main-Footer">
                    <g id="Reach-Us" transform="translate(951.000000, 52.000000)">
                        <g id="Social" transform="translate(0.000000, 102.000000)">
                            <g id="twitter" transform="translate(96.000000, 0.000000)">
                                <path d="M25.9646316,2.58467836 C25.3784152,2.84462573 24.7698772,3.04970175 24.1454503,3.19816959 C24.8334971,2.54434503 25.3508187,1.72654971 25.6426725,0.81374269 C25.7259766,0.553152047 25.4429357,0.327812865 25.2076257,0.467339181 C24.3389474,0.982602339 23.4032398,1.3691462 22.4264269,1.61635673 C22.3697544,1.63070175 22.3112807,1.63797076 22.252614,1.63797076 C22.0746842,1.63797076 21.9017076,1.57190643 21.765655,1.452 C20.7263801,0.536040936 19.3897193,0.0315847953 18.0019825,0.0315847953 C17.4014854,0.0315847953 16.7951988,0.125181287 16.1999123,0.30980117 C14.3555146,0.881865497 12.9323977,2.40327485 12.4859006,4.28035088 C12.3183918,4.9844152 12.2730409,5.68912281 12.3510058,6.3748538 C12.3599474,6.45365497 12.3227018,6.50865497 12.2997368,6.53445029 C12.2594035,6.57967251 12.2022164,6.60559649 12.1428421,6.60559649 C12.1362164,6.60559649 12.1293977,6.60527485 12.1226433,6.60463158 C8.08532164,6.22953801 4.44464327,4.28446784 1.87122222,1.12778947 C1.73999415,0.966777778 1.48834503,0.986526316 1.38374854,1.16593567 C0.879807018,2.03049708 0.613491228,3.01933918 0.613491228,4.02554971 C0.613491228,5.56760819 1.23302924,7.02083041 2.30916374,8.08023977 C1.85661988,7.97294152 1.41861404,7.80395322 1.01174269,7.57797076 C0.814900585,7.46861404 0.572707602,7.60916959 0.56994152,7.83431579 C0.541766082,10.1251462 1.88299415,12.1635556 3.89219883,13.0814444 C3.85173684,13.0824094 3.81127485,13.0828596 3.77074854,13.0828596 C3.45226316,13.0828596 3.12978947,13.0521111 2.81239766,12.9914503 C2.59072515,12.9491228 2.40449708,13.1594094 2.47332749,13.3743275 C3.12547953,15.4103567 4.87853216,16.911117 6.97638012,17.2518596 C5.2352924,18.4206257 3.20775439,19.0371404 1.09749123,19.0371404 L0.439614035,19.0367544 C0.236918129,19.0367544 0.0654853801,19.168883 0.0138304094,19.3652105 C-0.0370526316,19.5585789 0.0566725146,19.7625614 0.229520468,19.8631053 C2.60745029,21.2469825 5.31981871,21.978386 8.07457895,21.978386 C10.4858947,21.978386 12.7414737,21.4998538 14.7787251,20.5561696 C16.646345,19.6910292 18.296731,18.4543333 19.6840175,16.8804327 C20.9763567,15.4142807 21.9869415,13.7217602 22.6875965,11.8499591 C23.3555088,10.0657076 23.708538,8.16187135 23.708538,6.34423392 L23.708538,6.25764912 C23.7084737,5.96579532 23.8404737,5.69118129 24.0707661,5.50424561 C24.944655,4.79471345 25.7056491,3.95948538 26.3325205,3.02178363 C26.4980351,2.77418713 26.2369942,2.46387135 25.9646316,2.58467836 Z" id="Path"></path>
                            </g>
                        </g>
                    </g>
                </g>
            </g>
        </g>
    </g>
</svg>