<svg id="svg" xmlns="http://www.w3.org/2000/svg" xmlns:xlink="http://www.w3.org/1999/xlink" width="400" height="400" viewBox="0, 0, 400,400"><g id="svgg"><path id="path0" d="M180.900 136.319 C 174.678 136.426,174.831 136.399,174.391 137.453 C 174.127 138.084,174.102 140.738,174.335 143.325 C 174.561 145.837,174.228 145.672,179.266 145.772 C 182.166 145.829,183.478 145.914,183.620 146.053 C 183.813 146.242,183.880 149.972,184.073 171.333 C 184.112 175.649,183.972 175.531,189.406 175.823 L 192.062 175.966 192.691 175.461 C 193.713 174.639,193.721 174.535,193.655 162.000 C 193.569 145.626,193.567 145.866,193.753 145.680 C 193.852 145.581,195.134 145.497,196.836 145.478 C 200.316 145.438,202.459 145.176,202.767 144.754 C 203.186 144.181,203.322 137.839,202.933 136.974 C 202.662 136.369,201.998 136.295,197.380 136.357 C 194.925 136.390,191.492 136.373,189.750 136.319 C 188.008 136.266,184.026 136.266,180.900 136.319 M281.697 137.261 C 280.632 137.709,280.407 139.312,280.792 143.720 C 281.017 146.303,280.688 146.132,285.651 146.233 C 288.561 146.291,289.754 146.372,289.843 146.515 C 290.111 146.949,290.270 153.662,290.144 159.250 C 290.136 159.617,290.187 161.792,290.257 164.083 C 290.327 166.375,290.394 169.375,290.406 170.750 C 290.444 175.059,290.359 174.928,293.250 175.158 C 297.172 175.469,298.149 175.493,298.378 175.283 C 298.499 175.173,298.744 175.001,298.924 174.900 C 299.752 174.435,299.876 170.687,299.660 152.639 C 299.618 149.095,299.623 146.156,299.671 146.108 C 299.719 146.059,301.181 145.982,302.921 145.936 C 304.660 145.890,306.308 145.814,306.583 145.766 C 306.858 145.719,307.360 145.638,307.697 145.585 C 308.553 145.451,308.670 144.982,308.714 141.481 C 308.752 138.442,308.598 137.486,308.034 137.239 C 307.462 136.989,282.295 137.010,281.697 137.261 " stroke="none" fill="#cc4354" fill-rule="evenodd"></path><path id="path1" d="M290.331 190.620 C 290.103 190.793,289.392 191.241,288.750 191.617 C 288.108 191.993,286.929 192.789,286.129 193.386 C 285.329 193.983,284.453 194.520,284.182 194.580 C 283.911 194.639,283.596 194.801,283.482 194.938 C 283.368 195.076,283.051 195.304,282.778 195.445 C 282.505 195.587,282.138 195.836,281.962 196.000 C 281.786 196.163,281.292 196.431,280.864 196.595 C 280.436 196.758,279.952 197.062,279.788 197.270 C 279.625 197.477,279.325 197.699,279.121 197.762 C 278.727 197.885,275.471 199.383,274.930 199.690 C 274.553 199.904,273.284 200.381,270.083 201.513 C 259.909 205.111,247.922 206.457,235.313 205.416 C 234.545 205.353,233.879 205.278,233.833 205.250 C 233.787 205.222,233.195 205.151,232.516 205.093 C 231.837 205.035,231.237 204.961,231.183 204.929 C 231.128 204.896,230.708 204.820,230.250 204.760 C 229.792 204.701,228.517 204.474,227.417 204.256 C 224.278 203.635,222.897 203.308,220.583 202.638 C 219.667 202.372,218.279 201.977,217.500 201.759 C 213.767 200.714,210.713 199.743,208.875 199.017 C 208.387 198.824,208.000 198.747,208.000 198.843 C 208.000 198.950,207.763 198.974,207.375 198.907 L 206.750 198.798 207.561 199.324 C 208.322 199.818,208.560 200.214,207.889 199.870 C 207.555 199.699,206.500 199.471,206.500 199.570 C 206.500 199.604,207.250 200.056,208.167 200.575 C 209.083 201.094,209.833 201.590,209.833 201.676 C 209.833 201.923,209.610 201.869,208.417 201.333 C 207.119 200.751,207.167 200.761,207.167 201.083 C 207.167 201.397,207.025 201.397,206.270 201.081 C 205.185 200.628,205.630 201.144,206.875 201.783 C 212.868 204.858,220.491 207.609,226.167 208.744 C 226.946 208.900,227.895 209.096,228.275 209.179 C 229.460 209.438,233.220 209.949,235.000 210.093 C 235.596 210.141,236.233 210.212,236.417 210.249 C 238.692 210.719,253.804 210.513,255.400 209.991 C 255.666 209.904,256.133 209.833,256.438 209.833 C 258.654 209.833,268.399 207.729,272.250 206.419 C 274.879 205.525,278.198 204.324,280.038 203.601 C 281.113 203.179,282.077 202.833,282.181 202.833 C 282.284 202.833,282.597 202.641,282.877 202.405 C 283.215 202.121,283.507 202.008,283.746 202.067 C 283.944 202.117,284.250 202.059,284.428 201.938 C 284.605 201.818,284.977 201.642,285.255 201.548 C 290.106 199.902,295.115 190.963,291.490 190.419 C 290.899 190.330,290.659 190.372,290.331 190.620 " stroke="none" fill="#649bcb" fill-rule="evenodd"></path><path id="path2" d="M164.750 144.953 C 157.922 145.317,152.041 151.127,150.925 158.613 C 150.871 158.971,150.777 159.448,150.715 159.673 C 150.446 160.659,150.474 169.805,150.752 171.286 C 152.176 178.884,156.852 183.952,163.417 185.011 C 166.377 185.488,170.632 185.133,173.474 184.171 C 176.511 183.143,177.490 182.679,179.006 181.547 C 180.061 180.759,180.084 180.979,178.588 177.583 C 178.466 177.308,178.130 176.521,177.841 175.833 C 177.145 174.182,177.180 174.200,176.043 174.891 C 172.395 177.107,166.065 177.821,164.363 176.209 C 164.242 176.094,164.072 176.000,163.985 176.000 C 162.950 176.000,161.097 171.887,160.776 168.875 L 160.682 168.000 170.425 168.000 L 180.167 168.000 180.167 164.012 C 180.167 150.751,175.034 144.405,164.750 144.953 M217.140 145.028 C 215.122 145.291,213.356 146.699,211.978 149.144 L 211.205 150.515 211.061 148.132 L 210.917 145.750 206.042 145.706 L 201.167 145.662 201.167 165.081 L 201.167 184.500 206.333 184.500 L 211.500 184.500 211.500 171.234 C 211.500 156.428,211.411 157.550,212.704 156.080 C 213.872 154.754,214.369 154.591,217.114 154.635 L 219.479 154.672 219.570 153.961 C 219.769 152.402,220.334 147.518,220.435 146.480 L 220.542 145.377 219.729 145.199 C 218.443 144.918,218.143 144.898,217.140 145.028 M236.644 145.026 C 233.404 145.273,230.933 146.362,228.194 148.750 C 227.675 149.203,226.000 151.395,226.000 151.623 C 226.000 151.723,225.937 151.831,225.860 151.861 C 225.639 151.949,224.248 155.131,223.868 156.417 C 222.374 161.475,222.290 169.049,223.678 173.593 C 224.048 174.806,225.472 178.010,225.718 178.185 C 225.797 178.241,225.855 178.354,225.847 178.435 C 225.777 179.132,229.828 183.202,230.646 183.257 C 230.703 183.261,231.004 183.399,231.314 183.565 C 235.263 185.669,241.793 185.782,246.803 183.833 C 247.507 183.559,248.160 183.335,248.253 183.334 C 248.565 183.333,250.907 181.873,251.541 181.285 L 252.164 180.707 251.649 179.479 C 250.395 176.489,249.951 175.381,249.806 174.875 C 249.612 174.197,249.513 174.200,248.333 174.917 C 247.805 175.237,247.286 175.500,247.180 175.500 C 247.074 175.500,246.708 175.642,246.367 175.816 C 243.603 177.226,239.014 177.497,236.947 176.372 C 235.203 175.423,233.843 173.384,233.488 171.190 C 233.152 169.117,233.065 168.389,233.128 168.199 C 233.179 168.048,235.518 168.000,242.868 168.000 L 252.541 168.000 252.457 163.542 C 252.202 150.204,247.100 144.229,236.644 145.026 M269.595 145.035 C 262.699 145.526,257.396 150.260,257.278 156.032 L 257.250 157.417 262.184 157.461 L 267.119 157.505 267.225 156.487 C 267.538 153.496,270.005 151.836,272.417 152.994 C 274.333 153.915,275.000 155.539,275.000 159.285 L 275.000 161.500 272.375 161.503 C 264.654 161.512,260.893 162.754,258.108 166.216 C 254.616 170.559,254.968 178.422,258.832 182.356 C 262.623 186.214,270.796 186.123,273.293 182.195 C 273.448 181.950,273.671 181.690,273.788 181.617 C 273.904 181.543,274.000 181.412,274.000 181.324 C 274.000 181.236,274.225 180.853,274.500 180.474 C 274.775 180.094,275.000 179.649,275.000 179.485 C 275.000 178.698,275.314 179.123,275.412 180.042 C 275.530 181.151,275.637 181.597,276.212 183.375 L 276.576 184.500 281.725 184.500 L 286.875 184.500 286.773 184.042 C 286.717 183.790,286.516 183.021,286.326 182.333 C 285.471 179.238,285.471 179.230,285.335 167.333 C 285.230 158.156,285.159 155.864,284.948 154.891 C 283.456 148.005,277.907 144.442,269.595 145.035 M102.911 146.458 C 102.974 146.894,103.167 147.850,103.341 148.583 C 103.608 149.712,104.611 154.379,106.420 162.917 C 106.634 163.925,107.042 165.837,107.327 167.167 C 108.418 172.263,108.694 173.615,108.838 174.583 C 108.920 175.133,109.108 176.146,109.257 176.833 C 109.405 177.521,109.702 178.908,109.916 179.917 C 110.130 180.925,110.440 182.369,110.605 183.125 L 110.904 184.500 115.254 184.500 L 119.603 184.500 120.157 182.542 C 121.083 179.267,121.444 177.976,121.825 176.583 C 122.471 174.222,122.698 173.425,122.844 173.000 C 122.922 172.771,123.184 171.833,123.426 170.917 C 123.667 170.000,123.970 168.875,124.098 168.417 C 124.227 167.958,124.492 166.908,124.688 166.083 C 125.189 163.975,125.191 163.972,125.442 165.083 C 125.685 166.164,126.591 169.603,126.846 170.417 C 126.932 170.692,127.385 172.304,127.853 174.000 C 128.320 175.696,129.169 178.733,129.740 180.750 L 130.777 184.417 135.139 184.461 C 137.537 184.486,139.500 184.485,139.500 184.461 C 139.500 184.394,140.291 180.593,140.584 179.250 C 140.724 178.608,140.876 177.877,140.921 177.625 C 140.967 177.374,141.114 176.695,141.248 176.117 C 141.382 175.539,141.563 174.582,141.650 173.991 C 141.738 173.400,142.080 171.642,142.412 170.083 C 142.744 168.525,143.084 166.912,143.168 166.500 C 143.252 166.087,143.890 163.125,144.585 159.917 C 145.280 156.708,146.146 152.696,146.508 151.000 C 146.870 149.304,147.269 147.451,147.395 146.881 C 147.688 145.548,148.166 145.667,142.506 145.667 L 137.567 145.667 137.091 148.625 C 136.829 150.252,136.519 152.183,136.403 152.917 C 136.286 153.650,135.885 156.125,135.510 158.417 C 135.135 160.708,134.715 163.333,134.575 164.250 C 134.264 166.297,134.161 166.895,134.109 166.946 C 134.087 166.968,133.907 166.296,133.708 165.451 C 132.991 162.406,132.662 161.062,132.330 159.833 C 132.145 159.146,131.687 157.421,131.314 156.000 C 130.941 154.579,130.453 152.742,130.231 151.917 C 130.010 151.092,129.548 149.347,129.206 148.039 L 128.583 145.660 125.185 145.705 L 121.786 145.750 120.979 148.750 C 120.535 150.400,119.715 153.512,119.157 155.667 C 118.599 157.821,117.964 160.258,117.746 161.083 C 117.528 161.908,117.229 163.183,117.080 163.917 C 116.932 164.650,116.689 165.662,116.541 166.167 L 116.272 167.083 116.140 166.345 C 116.067 165.939,115.963 165.302,115.909 164.929 C 115.856 164.555,115.562 162.750,115.258 160.917 C 114.953 159.083,114.267 154.902,113.732 151.625 L 112.761 145.667 107.778 145.667 L 102.795 145.667 102.911 146.458 M167.439 153.438 C 168.973 154.166,169.797 156.058,169.952 159.208 L 170.049 161.167 165.422 161.167 L 160.795 161.167 160.910 160.208 C 161.552 154.873,164.349 151.972,167.439 153.438 M239.929 153.506 C 241.362 154.200,242.069 155.889,242.252 159.056 L 242.373 161.167 237.789 161.167 L 233.205 161.167 233.284 160.042 C 233.642 154.954,236.703 151.944,239.929 153.506 M274.996 170.542 C 274.992 173.537,274.985 173.596,274.538 174.411 C 272.894 177.406,268.119 178.490,266.808 176.167 C 266.647 175.882,266.314 175.039,266.216 174.667 C 266.130 174.343,266.130 171.826,266.216 171.500 C 266.252 171.362,266.341 171.025,266.414 170.750 C 267.090 168.203,268.322 167.545,272.458 167.517 L 275.000 167.500 274.996 170.542 " stroke="none" fill="#5cacec" fill-rule="evenodd"></path><path id="path3" d="M290.392 190.157 C 290.195 190.241,289.983 190.392,289.922 190.492 C 289.860 190.592,289.383 190.898,288.863 191.172 C 287.302 191.993,286.875 192.259,286.092 192.900 C 285.681 193.237,285.024 193.696,284.631 193.921 C 284.098 194.226,284.007 194.330,284.270 194.331 C 284.465 194.332,285.286 193.840,286.095 193.236 C 286.905 192.633,287.833 191.995,288.158 191.818 C 288.917 191.406,289.289 191.175,289.960 190.699 C 291.764 189.420,293.404 190.773,292.729 192.983 C 292.091 195.070,291.897 195.514,291.077 196.763 C 290.250 198.023,288.684 199.601,287.438 200.431 C 285.864 201.480,285.544 201.667,285.324 201.668 C 285.192 201.668,284.861 201.816,284.588 201.995 C 284.303 202.183,283.944 202.284,283.740 202.233 C 283.513 202.176,283.213 202.287,282.901 202.545 C 282.635 202.766,282.117 203.028,281.750 203.127 C 281.383 203.226,280.258 203.651,279.250 204.070 C 277.759 204.691,276.137 205.304,275.667 205.424 C 275.621 205.436,275.471 205.491,275.333 205.547 C 273.140 206.440,268.551 207.668,262.097 209.090 C 259.142 209.741,259.695 209.796,262.851 209.165 C 268.385 208.058,271.670 207.156,275.917 205.575 C 276.833 205.234,278.146 204.751,278.833 204.501 C 279.521 204.252,280.524 203.850,281.062 203.607 C 281.601 203.365,282.211 203.167,282.418 203.167 C 282.640 203.167,282.912 202.989,283.078 202.734 C 283.283 202.421,283.459 202.327,283.713 202.394 C 283.906 202.444,284.331 202.352,284.657 202.189 C 284.983 202.025,285.686 201.680,286.218 201.420 C 291.670 198.765,295.445 190.501,291.402 190.073 C 291.044 190.035,290.589 190.073,290.392 190.157 M196.595 193.148 C 196.505 193.294,196.980 193.693,198.207 194.505 C 198.550 194.731,198.832 195.011,198.832 195.125 C 198.834 195.527,201.732 197.433,204.471 198.835 C 206.179 199.709,206.782 200.139,205.836 199.809 C 205.470 199.682,205.264 199.684,205.104 199.816 C 204.935 199.957,204.597 199.845,203.691 199.347 C 203.036 198.987,202.500 198.735,202.500 198.789 C 202.500 198.842,202.369 198.772,202.208 198.634 C 202.048 198.496,201.597 198.208,201.207 197.993 C 200.682 197.705,200.522 197.528,200.590 197.312 C 200.659 197.096,200.452 196.864,199.802 196.427 C 198.897 195.817,198.348 195.675,198.314 196.042 C 198.303 196.156,198.246 196.026,198.187 195.752 C 198.075 195.226,197.500 194.935,197.500 195.404 C 197.500 195.736,197.269 195.741,197.000 195.417 C 196.728 195.089,196.229 195.097,196.101 195.432 C 195.965 195.785,196.116 196.000,196.499 196.000 C 196.924 196.000,199.000 197.340,199.000 197.614 C 199.000 197.815,199.213 197.907,199.549 197.851 C 199.621 197.839,200.296 198.187,201.049 198.626 C 202.235 199.317,202.850 199.637,204.000 200.163 C 204.137 200.226,204.325 200.445,204.417 200.650 C 204.534 200.913,205.544 201.490,207.833 202.604 C 209.621 203.474,211.216 204.258,211.379 204.346 C 211.541 204.435,212.078 204.659,212.572 204.843 C 213.065 205.028,213.514 205.297,213.569 205.441 C 213.640 205.625,213.792 205.671,214.086 205.598 C 214.327 205.537,214.659 205.590,214.876 205.724 C 215.082 205.851,216.150 206.271,217.250 206.657 C 218.350 207.042,219.374 207.423,219.525 207.503 C 219.894 207.698,221.735 208.188,222.667 208.339 C 223.079 208.406,224.689 208.732,226.244 209.064 C 227.799 209.395,229.299 209.659,229.577 209.649 C 229.992 209.634,229.948 209.604,229.333 209.482 C 228.921 209.399,228.208 209.257,227.750 209.164 C 227.292 209.072,226.734 208.961,226.510 208.918 C 223.538 208.350,220.709 207.643,219.500 207.168 C 219.088 207.005,218.225 206.707,217.583 206.504 C 215.059 205.706,206.925 202.144,205.509 201.216 C 204.935 200.841,205.534 200.600,206.200 200.938 C 206.711 201.198,207.000 201.230,207.000 201.028 C 207.000 200.952,206.618 200.711,206.150 200.492 C 204.500 199.719,205.643 200.001,207.571 200.842 C 208.647 201.311,209.556 201.666,209.592 201.630 C 209.703 201.519,207.519 200.302,207.372 200.393 C 207.296 200.440,207.125 200.401,206.992 200.307 C 206.801 200.172,206.821 200.155,207.083 200.230 C 207.406 200.321,207.407 200.318,207.098 200.120 C 206.923 200.008,206.644 199.788,206.479 199.631 C 206.313 199.473,205.800 199.153,205.339 198.920 C 204.878 198.686,204.500 198.457,204.500 198.412 C 204.500 198.367,205.086 198.624,205.803 198.985 C 206.520 199.345,207.195 199.586,207.302 199.519 C 207.418 199.448,206.903 199.115,206.035 198.701 C 204.932 198.176,204.565 197.920,204.545 197.661 C 204.516 197.270,204.788 197.310,205.868 197.855 C 206.208 198.026,206.613 198.167,206.767 198.167 C 206.921 198.167,207.918 198.511,208.982 198.932 C 210.894 199.689,212.390 200.180,214.500 200.745 C 215.096 200.904,215.846 201.138,216.167 201.265 C 216.931 201.567,218.126 201.819,218.242 201.703 C 218.292 201.652,218.333 201.699,218.333 201.806 C 218.333 201.912,218.440 202.000,218.571 202.000 C 218.702 202.000,219.807 202.266,221.027 202.590 C 223.365 203.213,225.169 203.548,223.583 203.065 C 223.125 202.925,222.375 202.709,221.917 202.584 C 221.458 202.459,220.596 202.212,220.000 202.034 C 219.404 201.856,218.579 201.619,218.167 201.506 C 217.754 201.393,216.967 201.166,216.417 201.000 C 215.867 200.835,214.854 200.574,214.167 200.420 C 212.537 200.055,212.000 199.844,212.000 199.567 C 212.000 199.295,211.203 198.741,211.043 198.902 C 210.980 198.964,211.016 199.153,211.121 199.322 C 211.302 199.612,211.264 199.610,210.448 199.291 C 209.320 198.850,209.106 198.761,207.917 198.240 C 207.367 197.999,206.736 197.800,206.515 197.797 C 206.295 197.794,204.730 197.089,203.038 196.229 C 201.346 195.370,199.892 194.667,199.807 194.667 C 199.721 194.667,199.096 194.292,198.417 193.833 C 197.203 193.015,196.777 192.854,196.595 193.148 M283.000 194.759 C 282.679 194.977,282.117 195.374,281.750 195.640 C 281.383 195.907,280.799 196.216,280.452 196.327 C 280.105 196.439,279.708 196.703,279.569 196.914 C 279.431 197.126,278.927 197.466,278.450 197.671 C 277.973 197.875,276.608 198.517,275.417 199.096 C 274.225 199.676,272.462 200.373,271.500 200.646 C 270.537 200.918,269.112 201.363,268.333 201.634 C 267.554 201.905,265.666 202.452,264.137 202.849 C 262.609 203.247,261.395 203.632,261.441 203.705 C 261.486 203.779,261.579 203.804,261.648 203.761 C 261.717 203.719,261.962 203.650,262.193 203.608 C 265.374 203.031,272.147 200.838,275.417 199.326 C 278.907 197.713,279.345 197.488,279.701 197.132 C 279.907 196.926,280.490 196.561,280.996 196.322 C 281.502 196.082,282.020 195.762,282.145 195.610 C 282.271 195.458,282.454 195.333,282.552 195.333 C 282.785 195.333,283.831 194.619,283.832 194.458 C 283.834 194.259,283.624 194.334,283.000 194.759 M194.397 195.075 C 194.267 195.412,194.460 195.667,194.843 195.667 C 195.235 195.667,195.258 195.449,194.905 195.095 C 194.581 194.772,194.514 194.769,194.397 195.075 M195.333 196.072 C 195.333 196.316,195.951 196.605,196.116 196.439 C 196.167 196.389,196.163 196.232,196.109 196.091 C 195.985 195.766,195.333 195.751,195.333 196.072 M202.186 196.531 C 202.542 196.731,202.833 196.947,202.833 197.011 C 202.833 197.201,201.746 196.770,201.432 196.456 C 201.029 196.053,201.402 196.090,202.186 196.531 M209.113 198.110 C 208.941 198.281,209.339 198.667,209.687 198.667 C 210.067 198.667,210.104 198.242,209.736 198.101 C 209.398 197.971,209.249 197.973,209.113 198.110 M207.167 198.667 C 207.304 198.756,207.529 198.828,207.667 198.828 C 207.889 198.828,207.889 198.810,207.667 198.667 C 207.529 198.578,207.304 198.505,207.167 198.505 C 206.944 198.505,206.944 198.523,207.167 198.667 M202.833 200.646 C 202.833 200.833,203.811 201.244,203.943 201.113 C 203.997 201.059,203.997 200.899,203.942 200.757 C 203.838 200.485,202.833 200.385,202.833 200.646 M224.500 203.332 C 224.500 203.410,224.744 203.520,225.042 203.578 C 225.340 203.635,226.071 203.784,226.667 203.910 C 228.407 204.277,229.525 204.471,230.417 204.562 L 231.250 204.646 230.333 204.429 C 229.829 204.309,228.525 204.043,227.436 203.838 C 226.347 203.632,225.240 203.402,224.978 203.327 C 224.715 203.252,224.500 203.254,224.500 203.332 M258.750 204.004 C 257.925 204.165,256.650 204.413,255.917 204.555 L 254.583 204.814 255.833 204.724 C 257.067 204.636,260.967 203.922,261.135 203.753 C 261.290 203.598,260.284 203.704,258.750 204.004 M231.333 204.649 C 231.333 204.750,231.540 204.842,231.792 204.852 C 232.495 204.881,233.327 204.984,234.325 205.167 C 234.931 205.279,235.288 205.279,235.400 205.167 C 235.511 205.055,235.404 204.993,235.075 204.979 C 233.959 204.930,232.530 204.749,231.708 204.553 C 231.491 204.502,231.333 204.542,231.333 204.649 M252.294 205.118 C 252.501 205.158,252.801 205.156,252.960 205.115 C 253.120 205.073,252.950 205.040,252.583 205.042 C 252.217 205.044,252.086 205.078,252.294 205.118 M235.681 205.227 C 235.868 205.390,238.500 205.493,238.500 205.337 C 238.500 205.234,237.929 205.167,237.056 205.167 C 236.261 205.167,235.642 205.194,235.681 205.227 M248.667 205.333 C 248.112 205.511,249.340 205.515,250.750 205.340 L 251.750 205.216 250.417 205.208 C 249.683 205.203,248.896 205.260,248.667 205.333 M238.958 205.451 C 239.165 205.491,239.502 205.491,239.708 205.451 C 239.915 205.411,239.746 205.379,239.333 205.379 C 238.921 205.379,238.752 205.411,238.958 205.451 M240.250 205.500 C 240.382 205.713,242.004 205.713,242.333 205.500 C 242.507 205.388,242.213 205.338,241.365 205.336 C 240.595 205.334,240.185 205.395,240.250 205.500 M243.500 205.500 C 242.697 205.598,242.785 205.616,244.218 205.640 C 245.272 205.657,245.816 205.607,245.750 205.500 C 245.639 205.321,244.961 205.321,243.500 205.500 M246.544 205.453 C 246.797 205.491,247.172 205.490,247.377 205.451 C 247.582 205.411,247.375 205.380,246.917 205.381 C 246.458 205.382,246.291 205.415,246.544 205.453 M231.000 209.896 C 231.504 210.012,232.014 210.073,232.132 210.033 C 232.495 209.908,232.280 209.849,231.159 209.766 L 230.083 209.686 231.000 209.896 M258.711 209.786 C 258.964 209.825,259.339 209.824,259.544 209.784 C 259.749 209.744,259.542 209.713,259.083 209.714 C 258.625 209.716,258.457 209.748,258.711 209.786 M233.566 210.195 C 233.519 210.271,233.729 210.339,234.032 210.347 C 234.335 210.354,234.771 210.384,235.000 210.412 C 236.153 210.555,238.739 210.701,238.666 210.619 C 238.619 210.568,237.966 210.480,237.214 210.424 C 236.462 210.368,235.353 210.263,234.749 210.190 C 234.145 210.117,233.612 210.120,233.566 210.195 M254.333 210.186 C 253.646 210.265,252.971 210.365,252.833 210.408 C 252.470 210.524,255.256 210.346,256.333 210.184 L 257.250 210.047 256.417 210.045 C 255.958 210.044,255.021 210.107,254.333 210.186 M239.500 210.658 C 238.616 210.830,240.378 210.945,242.000 210.822 L 243.250 210.727 241.889 210.697 C 241.140 210.680,240.427 210.639,240.305 210.606 C 240.183 210.573,239.821 210.596,239.500 210.658 M248.167 210.675 C 247.754 210.743,248.542 210.760,249.917 210.712 C 251.292 210.664,252.448 210.597,252.486 210.562 C 252.610 210.451,248.939 210.546,248.167 210.675 M243.500 210.849 C 243.500 211.018,246.627 210.906,246.819 210.730 C 246.858 210.695,246.126 210.667,245.194 210.667 C 244.080 210.667,243.500 210.729,243.500 210.849 " stroke="none" fill="#426486" fill-rule="evenodd"></path><path id="path4" d="M290.231 190.529 C 289.554 191.038,289.359 191.239,289.750 191.025 C 290.184 190.788,290.947 190.175,290.814 190.170 C 290.758 190.168,290.495 190.330,290.231 190.529 M291.250 190.333 C 291.433 190.412,291.733 190.474,291.917 190.472 C 292.185 190.468,292.168 190.441,291.833 190.333 C 291.263 190.151,290.825 190.151,291.250 190.333 M292.333 190.596 C 292.333 190.690,292.412 190.846,292.509 190.942 C 292.605 191.039,292.694 191.517,292.705 192.005 C 292.717 192.558,292.769 192.772,292.842 192.571 C 292.995 192.149,292.842 191.169,292.558 190.755 C 292.435 190.574,292.333 190.503,292.333 190.596 M287.153 192.467 C 286.656 192.816,285.888 193.379,285.446 193.717 C 285.003 194.056,284.459 194.333,284.237 194.333 C 284.015 194.333,283.833 194.416,283.833 194.518 C 283.833 194.619,283.952 194.657,284.097 194.601 C 284.242 194.546,284.423 194.500,284.499 194.500 C 284.574 194.500,285.266 194.031,286.035 193.458 C 286.804 192.885,287.617 192.289,287.842 192.134 C 288.066 191.978,288.206 191.847,288.153 191.842 C 288.099 191.837,287.649 192.119,287.153 192.467 M292.262 194.095 C 292.201 194.339,292.183 194.571,292.222 194.611 C 292.261 194.650,292.343 194.482,292.405 194.238 C 292.466 193.994,292.484 193.762,292.445 193.723 C 292.406 193.683,292.323 193.851,292.262 194.095 M283.190 195.006 C 282.973 195.186,282.704 195.333,282.591 195.333 C 282.478 195.333,282.257 195.475,282.100 195.648 C 281.944 195.821,281.370 196.163,280.825 196.407 C 280.279 196.652,279.833 196.915,279.833 196.993 C 279.833 197.071,279.590 197.290,279.292 197.481 C 278.994 197.672,278.850 197.829,278.971 197.831 C 279.093 197.832,279.411 197.615,279.678 197.348 C 279.945 197.081,280.496 196.735,280.903 196.580 C 281.310 196.424,281.786 196.163,281.962 196.000 C 282.138 195.836,282.505 195.587,282.778 195.445 C 283.051 195.304,283.372 195.071,283.491 194.928 C 283.781 194.578,283.668 194.607,283.190 195.006 M291.077 196.542 C 290.820 196.931,290.716 197.162,290.847 197.054 C 291.097 196.848,291.735 195.833,291.615 195.833 C 291.576 195.833,291.334 196.152,291.077 196.542 M204.554 197.671 C 204.590 197.911,205.038 198.223,206.094 198.745 C 206.913 199.149,207.471 199.488,207.333 199.497 C 207.196 199.506,207.336 199.623,207.644 199.757 C 208.348 200.062,208.425 200.061,208.168 199.752 C 208.055 199.615,207.896 199.545,207.814 199.595 C 207.733 199.645,207.667 199.609,207.667 199.515 C 207.667 199.421,207.460 199.232,207.208 199.095 C 206.821 198.885,206.802 198.845,207.083 198.837 C 207.360 198.830,207.374 198.801,207.167 198.667 C 206.882 198.483,207.158 198.443,207.584 198.607 C 207.805 198.692,207.816 198.742,207.639 198.854 C 207.469 198.962,207.485 198.995,207.708 198.997 C 208.166 199.001,208.049 198.559,207.542 198.368 C 206.768 198.076,205.968 197.980,206.101 198.195 C 206.174 198.313,206.144 198.339,206.023 198.264 C 205.916 198.198,205.866 198.082,205.913 198.006 C 205.960 197.931,205.697 197.748,205.329 197.601 C 204.489 197.265,204.492 197.265,204.554 197.671 M289.329 198.594 C 288.644 199.287,287.727 200.087,287.292 200.372 C 286.454 200.919,286.248 201.141,286.875 200.819 C 287.905 200.290,291.088 197.333,290.627 197.333 C 290.598 197.333,290.014 197.901,289.329 198.594 M204.500 198.415 C 204.500 198.459,204.893 198.694,205.374 198.937 C 205.854 199.181,206.329 199.492,206.429 199.629 C 206.590 199.849,206.611 199.849,206.611 199.627 C 206.611 199.486,206.151 199.151,205.556 198.857 C 204.975 198.571,204.500 198.372,204.500 198.415 M275.583 199.256 C 275.165 199.458,275.151 199.480,275.500 199.396 C 275.729 199.341,275.988 199.229,276.075 199.148 C 276.291 198.946,276.172 198.972,275.583 199.256 M206.333 200.510 C 206.333 200.607,206.408 200.640,206.500 200.583 C 206.592 200.527,206.667 200.564,206.667 200.667 C 206.667 200.769,206.742 200.807,206.833 200.750 C 206.925 200.693,207.000 200.758,207.000 200.893 C 207.000 201.028,206.906 201.177,206.792 201.223 C 206.659 201.276,206.683 201.312,206.856 201.320 C 207.320 201.343,207.346 200.726,206.889 200.518 C 206.388 200.290,206.333 200.289,206.333 200.510 M213.750 200.667 C 213.933 200.745,214.196 200.810,214.333 200.810 C 214.491 200.810,214.460 200.757,214.250 200.667 C 214.067 200.588,213.804 200.523,213.667 200.523 C 213.509 200.523,213.540 200.576,213.750 200.667 M205.442 200.823 C 205.191 200.912,205.176 200.966,205.359 201.114 C 205.679 201.372,208.000 202.521,208.000 202.421 C 208.000 202.375,207.475 202.073,206.833 201.750 C 205.838 201.249,205.160 200.649,205.917 200.940 C 206.054 200.992,206.167 200.998,206.167 200.952 C 206.167 200.790,205.746 200.714,205.442 200.823 M215.811 201.257 C 216.119 201.390,216.419 201.497,216.477 201.494 C 216.694 201.482,215.740 201.012,215.500 201.012 C 215.362 201.013,215.502 201.123,215.811 201.257 M285.667 201.353 C 285.346 201.525,285.206 201.666,285.357 201.666 C 285.507 201.667,285.807 201.519,286.023 201.339 C 286.500 200.942,286.430 200.945,285.667 201.353 M209.240 201.317 C 209.302 201.418,209.255 201.501,209.135 201.503 C 208.848 201.506,209.328 201.827,209.625 201.831 C 209.955 201.835,209.868 201.530,209.480 201.323 C 209.231 201.190,209.160 201.188,209.240 201.317 M269.000 201.750 C 268.679 201.874,268.529 201.977,268.667 201.980 C 268.804 201.983,269.142 201.882,269.417 201.756 C 270.060 201.461,269.761 201.457,269.000 201.750 M217.342 201.721 C 217.514 201.871,218.333 201.996,218.333 201.872 C 218.333 201.798,218.094 201.719,217.800 201.697 C 217.507 201.675,217.301 201.686,217.342 201.721 M284.431 201.918 C 284.256 202.051,283.953 202.119,283.758 202.070 C 283.533 202.014,283.224 202.123,282.918 202.366 C 282.651 202.577,282.167 202.841,281.842 202.952 L 281.250 203.154 281.833 203.055 C 282.154 203.001,282.635 202.774,282.901 202.550 C 283.214 202.288,283.511 202.175,283.740 202.233 C 283.944 202.284,284.303 202.183,284.588 201.995 C 284.861 201.816,285.008 201.671,284.917 201.673 C 284.825 201.675,284.607 201.786,284.431 201.918 M219.000 202.135 C 219.696 202.583,227.118 204.323,230.167 204.754 C 230.579 204.812,231.254 204.920,231.667 204.993 C 232.079 205.066,232.529 205.125,232.667 205.124 C 232.804 205.123,233.367 205.166,233.917 205.221 C 234.712 205.301,234.780 205.292,234.250 205.176 C 233.883 205.097,233.171 204.987,232.667 204.931 C 232.162 204.876,231.300 204.753,230.750 204.657 C 230.200 204.562,229.300 204.407,228.750 204.313 C 227.660 204.127,225.803 203.743,224.750 203.485 C 224.383 203.395,223.896 203.288,223.667 203.246 C 223.265 203.174,219.602 202.237,219.030 202.061 C 218.795 201.989,218.790 202.001,219.000 202.135 M265.417 202.774 C 262.949 203.451,262.308 203.607,261.417 203.749 C 261.233 203.778,260.371 203.958,259.500 204.149 C 257.317 204.628,251.446 205.340,248.333 205.503 L 245.750 205.639 248.417 205.584 C 251.842 205.514,256.262 204.989,260.583 204.140 C 262.489 203.766,267.780 202.383,268.162 202.159 C 268.560 201.926,268.266 201.992,265.417 202.774 M208.667 202.833 C 208.987 203.009,209.325 203.153,209.417 203.153 C 209.508 203.153,209.321 203.009,209.000 202.833 C 208.679 202.658,208.342 202.514,208.250 202.514 C 208.158 202.514,208.346 202.658,208.667 202.833 M210.083 203.451 C 211.581 204.265,218.443 206.946,218.607 206.782 C 218.652 206.737,218.290 206.570,217.802 206.410 C 216.748 206.064,210.975 203.748,210.313 203.406 C 209.673 203.075,209.466 203.116,210.083 203.451 M279.500 203.788 C 278.108 204.361,274.449 205.686,272.349 206.380 C 271.762 206.574,271.355 206.757,271.445 206.787 C 271.580 206.832,274.394 205.935,275.333 205.548 C 275.471 205.492,275.621 205.435,275.667 205.423 C 276.394 205.226,280.255 203.721,280.816 203.416 C 281.548 203.018,280.988 203.177,279.500 203.788 M235.456 205.344 C 235.526 205.408,236.104 205.499,236.741 205.547 C 237.378 205.594,237.791 205.575,237.658 205.503 C 237.352 205.338,235.284 205.188,235.456 205.344 M238.623 205.512 C 238.775 205.650,241.291 205.903,241.155 205.766 C 241.103 205.714,240.483 205.609,239.778 205.534 C 239.073 205.458,238.553 205.448,238.623 205.512 M242.417 205.678 C 242.600 205.751,243.275 205.809,243.917 205.808 C 245.394 205.807,245.149 205.714,243.417 205.620 C 242.678 205.580,242.232 205.606,242.417 205.678 M219.667 207.250 C 219.896 207.381,220.196 207.488,220.333 207.488 C 220.471 207.487,220.331 207.377,220.023 207.243 C 219.313 206.935,219.122 206.939,219.667 207.250 M221.583 207.833 C 221.767 207.912,222.029 207.977,222.167 207.977 C 222.324 207.977,222.293 207.924,222.083 207.833 C 221.900 207.755,221.637 207.690,221.500 207.690 C 221.342 207.690,221.373 207.743,221.583 207.833 M227.667 209.167 C 227.896 209.240,228.233 209.300,228.417 209.300 C 228.681 209.300,228.663 209.272,228.333 209.167 C 228.104 209.093,227.767 209.033,227.583 209.033 C 227.319 209.033,227.337 209.061,227.667 209.167 M258.849 209.520 C 258.170 209.598,257.575 209.703,257.526 209.752 C 257.405 209.872,259.808 209.646,260.333 209.488 C 260.881 209.322,260.475 209.331,258.849 209.520 M232.347 209.893 C 232.385 209.926,232.717 209.999,233.083 210.055 C 233.537 210.125,233.670 210.106,233.500 209.998 C 233.272 209.853,232.185 209.754,232.347 209.893 M256.042 209.953 C 256.294 209.991,256.706 209.991,256.958 209.953 C 257.210 209.915,257.004 209.883,256.500 209.883 C 255.996 209.883,255.790 209.915,256.042 209.953 M235.333 210.232 C 235.333 210.269,235.627 210.326,235.986 210.361 C 236.345 210.395,236.603 210.365,236.559 210.295 C 236.480 210.167,235.333 210.108,235.333 210.232 M250.833 210.333 L 248.917 210.434 250.667 210.454 C 251.629 210.466,252.754 210.415,253.167 210.342 C 254.071 210.181,253.769 210.180,250.833 210.333 M238.250 210.494 C 238.759 210.630,240.112 210.717,239.986 210.605 C 239.948 210.572,239.429 210.503,238.833 210.452 C 238.151 210.394,237.935 210.409,238.250 210.494 M241.288 210.620 C 241.584 210.657,242.109 210.658,242.455 210.622 C 242.800 210.586,242.558 210.555,241.917 210.555 C 241.275 210.554,240.992 210.583,241.288 210.620 M246.225 210.673 C 246.761 210.739,247.586 210.740,248.058 210.676 C 248.720 210.586,248.497 210.559,247.083 210.557 C 245.557 210.554,245.413 210.574,246.225 210.673 " stroke="none" fill="#5783ae" fill-rule="evenodd"></path></g></svg>