<?xml version="1.0" encoding="UTF-8"?>
<svg width="124px" height="21px" viewBox="0 0 124 21" version="1.1" xmlns="http://www.w3.org/2000/svg" xmlns:xlink="http://www.w3.org/1999/xlink">
    <!-- Generator: Sketch 52.5 (67469) - http://www.bohemiancoding.com/sketch -->
    <title>Logo</title>
    <desc>Created with Sketch.</desc>
    <g id="Header" stroke="none" stroke-width="1" fill="none" fill-rule="evenodd">
        <g id="New-Changes" transform="translate(-72.000000, -25.000000)">
            <g id="Header">
                <g id="MAIN">
                    <g id="Navigation">
                        <g id="Logo" transform="translate(72.000000, 25.000000)">
                            <path d="M22.5510129,2.32289748 C22.7094749,1.72866492 22.996683,1.31270837 23.4126458,1.07501535 C23.8286086,0.837322323 24.2544689,0.758092503 24.6902394,0.837323511 C25.12601,0.916554519 25.4924479,1.13938839 25.7895641,1.5058318 C26.0866804,1.87227521 26.1956214,2.35260599 26.1163904,2.94683855 C25.9975439,3.69953313 25.8440361,4.45221641 25.6558625,5.20491099 C25.4676888,5.95760556 25.2646624,6.70038512 25.0467772,7.43327195 C24.7496609,8.38404404 24.417886,9.31499442 24.0514426,10.226151 C23.6849992,11.1373076 23.3433206,12.068258 23.0263966,13.0190301 C22.7094725,13.9103789 22.3876014,14.7967625 22.0607735,15.6782075 C21.7339456,16.5596525 21.392267,17.4460361 21.0357274,18.3373849 C20.9168809,18.6345012 20.7930843,18.9464686 20.6643339,19.2732965 C20.5355836,19.6001244 20.3721721,19.8823806 20.1740945,20.1200737 C19.8769783,20.5162287 19.4709254,20.7539182 18.9559239,20.8331492 C18.4409223,20.9123802 17.9853509,20.7836317 17.5891958,20.4468999 C17.2722718,20.1695914 17.0444861,19.8279128 16.9058318,19.4218539 C16.7671775,19.015795 16.6186216,18.6245977 16.4601596,18.2482505 C16.2818898,17.7728644 16.0788634,17.2479669 15.8510743,16.6735421 C15.6232851,16.0991172 15.4301624,15.5841234 15.2717004,15.1285451 C14.9349686,14.2371963 14.6130975,13.3409089 14.3060773,12.4396562 C13.9990572,11.5384035 13.6771861,10.6421162 13.3404543,9.75076734 C13.0631457,10.5826929 12.7709858,11.3898467 12.4639656,12.1722529 C12.1569455,12.9546591 11.8647855,13.7519092 11.587477,14.564027 C11.3695917,15.0988363 11.1616134,15.6336376 10.9635359,16.1684469 C10.7654584,16.7032562 10.5574801,17.2281538 10.3395948,17.7431553 C10.2009406,18.0996948 10.0870477,18.3720474 9.99791283,18.560221 C9.90877795,18.7483946 9.7651739,19.0405546 9.56709638,19.4367096 C9.42844211,19.7536337 9.22046384,20.0358899 8.94315531,20.2834868 C8.66584678,20.5310837 8.37368682,20.6994471 8.06666667,20.788582 C7.75964651,20.8777168 7.4476791,20.872765 7.13075506,20.7737262 C6.81383103,20.6746875 6.53652666,20.436998 6.29883364,20.0606507 C5.96210186,19.5456492 5.72936426,18.9415218 5.60061387,18.2482505 C5.47186349,17.5549791 5.31835571,16.9211406 5.14008594,16.3467158 C5.02123943,15.9901762 4.90734656,15.6336421 4.79840393,15.2771025 C4.68946129,14.920563 4.57556843,14.5739325 4.45672192,14.2372007 C4.3378754,13.8806612 4.21407881,13.524127 4.08532842,13.1675875 C3.95657803,12.8110479 3.83278144,12.4644175 3.71393493,12.1276857 C3.31777989,10.9788361 2.9067752,9.84485929 2.48090853,8.7257213 C2.05504186,7.60658331 1.62422972,6.48251025 1.18845918,5.35346839 C1.10922817,5.11577536 1.00028717,4.87313404 0.861632904,4.62553714 C0.72297864,4.37794024 0.594230183,4.12044333 0.475383671,3.85303867 C0.356537159,3.58563402 0.262451748,3.31823338 0.193124616,3.05082873 C0.123797484,2.78342408 0.0990381657,2.5209753 0.118845918,2.26347452 C0.158461422,1.92674274 0.282258015,1.63953464 0.490239411,1.40184162 C0.698220807,1.1641486 0.940862129,0.990833366 1.21817066,0.881890731 C1.49547918,0.772948095 1.79259101,0.733333185 2.10951504,0.763044813 C2.42643907,0.792756441 2.71364717,0.916553034 2.97114794,1.13443831 C3.50595725,1.5900166 3.90705821,2.19414398 4.17446286,2.94683855 C4.44186751,3.69953313 4.69441256,4.39279405 4.93210559,5.02664211 C5.20941411,5.71991343 5.46691103,6.41812622 5.70460405,7.12130141 C5.94229708,7.82447661 6.19979399,8.52268939 6.47710252,9.21596071 C6.75441104,9.96865529 7.02181169,10.7114348 7.27931246,11.4443217 C7.53681324,12.1772085 7.78440642,12.9199881 8.02209945,13.6726826 C8.10133046,13.4944129 8.17065655,13.3111939 8.2300798,13.1230203 C8.28950306,12.9348466 8.35882915,12.7417239 8.43806016,12.5436464 C8.8342152,11.5532588 9.20560498,10.5727898 9.55224064,9.60220994 C9.8988763,8.6316301 10.2207474,7.64125735 10.5178637,6.631062 C10.6169025,6.35375347 10.7010842,6.07149724 10.7704113,5.78428484 C10.8397384,5.49707243 10.9140164,5.2148162 10.9932474,4.93750767 C11.1319017,4.46212163 11.2210352,4.09073185 11.2606507,3.82332719 C11.3002662,3.55592254 11.4191109,3.26376258 11.6171885,2.94683855 C11.7954582,2.66953002 12.0331477,2.46650361 12.330264,2.33775322 C12.6273802,2.20900283 12.9343958,2.14958047 13.2513198,2.15948435 C13.5682439,2.16938822 13.8604038,2.25356991 14.1278085,2.41203192 C14.3952131,2.57049394 14.5982395,2.8081834 14.7368938,3.12510743 C14.7963171,3.24395394 14.8755469,3.4271729 14.9745856,3.6747698 C15.0736244,3.9223667 15.1726617,4.18976734 15.2717004,4.47697974 C15.3707392,4.76419215 15.4697765,5.03159279 15.5688152,5.27918969 C15.667854,5.52678659 15.7371801,5.71000554 15.7767956,5.82885206 C16.0144886,6.46270012 16.2422743,7.08663495 16.4601596,7.70067526 C16.6780449,8.31471557 16.8959269,8.9386504 17.1138122,9.57249847 C17.3911207,10.3846163 17.6733769,11.1818664 17.9605893,11.9642726 C18.2478017,12.7466788 18.5399617,13.5241214 18.837078,14.2966237 C19.0153477,13.7816221 19.1837111,13.2567246 19.3421731,12.7219153 C19.5006351,12.187106 19.6789022,11.6622084 19.8769797,11.1472069 C20.411789,9.72104873 20.921831,8.29491198 21.4071209,6.86875384 C21.8924109,5.44259569 22.2638006,3.98674776 22.5213014,2.50116636 L22.5510129,2.32289748 Z M39.2191529,15.5742173 C39.6945389,15.4553708 40.1154473,15.4504189 40.4818907,15.5593616 C40.8483341,15.6683042 41.1305904,15.8515232 41.3286679,16.1090239 C41.5267454,16.3665247 41.615879,16.683444 41.5960712,17.0597913 C41.5762635,17.4361386 41.4079001,17.8322877 41.0909761,18.2482505 C40.8334753,18.5849822 40.4769411,18.8721903 40.0213628,19.1098834 C39.5657845,19.3475764 39.1399242,19.5357472 38.7437692,19.6744015 C37.7731893,20.030941 36.8521427,20.2785342 35.9806016,20.4171885 C35.1090605,20.5558427 34.292003,20.5558427 33.5294045,20.4171885 C32.7668061,20.2785342 32.0537377,19.9913261 31.390178,19.5555556 C30.7266183,19.119785 30.1076354,18.5057539 29.5332106,17.7134438 C29.1370555,17.1786345 28.8448956,16.5695553 28.6567219,15.8861878 C28.4685483,15.2028204 28.3645591,14.5046076 28.3447514,13.7915285 C28.3249436,13.0784495 28.384366,12.3752848 28.5230203,11.6820135 C28.6616745,10.9887422 28.8597491,10.3648074 29.1172498,9.8101903 C29.4539816,9.11691898 29.9887829,8.48308042 30.7216697,7.90865562 C31.4545566,7.33423081 32.2666622,6.87865935 33.158011,6.54192756 C34.0493599,6.20519578 34.9605028,6.01207309 35.8914672,5.96255371 C36.8224315,5.91303433 37.6444409,6.05663838 38.35752,6.39337017 C38.9517525,6.67067869 39.4617945,7.07177966 39.8876611,7.59668508 C40.3135278,8.12159051 40.6056878,8.69105484 40.7641498,9.30509515 C40.9226118,9.91913546 40.9374674,10.5381184 40.808717,11.1620626 C40.6799666,11.7860068 40.3580955,12.3554711 39.8430939,12.8704727 C39.3479001,13.3656665 38.8031951,13.7667674 38.2089626,14.0737876 C37.61473,14.3808078 37.0006989,14.6482084 36.3668508,14.8759975 C35.7330028,15.1037867 35.0843086,15.2969094 34.4207489,15.4553714 C33.7571892,15.6138334 33.1183988,15.7921005 32.5043585,15.990178 C32.9203213,16.4655641 33.3957002,16.7676278 33.9305095,16.8963781 C34.4653188,17.0251285 35.0248794,17.0498879 35.6092081,16.9706568 C36.1935368,16.8914258 36.7828086,16.7280143 37.3770411,16.4804174 C37.9712737,16.2328205 38.5258824,15.960468 39.040884,15.6633517 L39.2191529,15.5742173 Z M33.217434,10.4638428 C32.7618557,10.7213436 32.425129,11.0432148 32.2072437,11.4294659 C31.9893584,11.8157171 31.8308988,12.3554702 31.73186,13.0487416 C32.2468616,12.8902795 32.8262296,12.7219162 33.4699816,12.5436464 C34.1137335,12.3653766 34.7228128,12.1772058 35.2972376,11.9791283 C35.8716624,11.7810508 36.356945,11.5631688 36.7531001,11.3254758 C37.1492551,11.0877827 37.3473297,10.8302858 37.3473297,10.5529773 C37.3473297,10.3945153 37.3225703,10.2410075 37.273051,10.0924494 C37.2235316,9.94389122 37.1195424,9.83990208 36.9610804,9.78047882 C36.4064634,9.5824013 35.8320472,9.54278639 35.2378146,9.6616329 C34.6435821,9.78047942 34.1483957,9.94884278 33.7522406,10.1667281 L33.217434,10.4638428 Z M51.6003683,9.6616329 C51.2042133,9.56259414 50.8625347,9.39423078 50.5753223,9.15653775 C50.2881099,8.91884473 50.0900353,8.64154036 49.9810927,8.32461633 C49.8721501,8.0076923 49.8721501,7.68086929 49.9810927,7.34413751 C50.0900353,7.00740572 50.3326767,6.70039017 50.7090239,6.42308165 C51.025948,6.18538862 51.3824822,6.06654389 51.7786372,6.06654389 L52.9373849,6.06654389 C52.9373849,5.92788963 52.9274812,5.62582594 52.9076734,5.16034377 C52.8878657,4.6948616 52.8829138,4.18481963 52.8928177,3.63020258 C52.9027216,3.07558552 52.9373846,2.5457361 52.9968079,2.04063843 C53.0562311,1.53554075 53.1651721,1.18395843 53.3236341,0.985880909 C53.7197892,0.431263853 54.2100237,0.168815076 54.7943524,0.198526703 C55.378681,0.228238331 55.8590118,0.510494564 56.2353591,1.04530387 C56.3145901,1.14434263 56.3888681,1.26318736 56.4581952,1.40184162 C56.5275223,1.54049588 56.5621854,1.66924434 56.5621854,1.78809085 C56.5819931,2.50116993 56.586945,3.2142383 56.5770411,3.92731737 C56.5671373,4.64039644 56.5621854,5.35346482 56.5621854,6.06654389 L58.9093923,6.06654389 C59.2659318,6.06654389 59.5729474,6.18538862 59.8304481,6.42308165 C60.0879489,6.66077467 60.2711679,6.93807904 60.3801105,7.25500307 C60.4890531,7.5719271 60.5187643,7.89875011 60.4692449,8.23548189 C60.4197256,8.57221367 60.2662178,8.84951804 60.008717,9.06740331 C59.5531387,9.4437506 59.0232893,9.64182515 58.4191529,9.6616329 C57.8150164,9.68144066 57.1960335,9.69134438 56.5621854,9.69134438 C56.5621854,10.7807707 56.5572335,11.8701808 56.5473297,12.9596071 C56.5374258,14.0490335 56.5423776,15.1384435 56.5621854,16.2278699 C56.5621854,16.7032559 56.5869447,17.1885386 56.6364641,17.6837324 C56.6859835,18.1789262 56.6513204,18.6543051 56.5324739,19.1098834 C56.4334352,19.4664229 56.2650718,19.7486791 56.0273788,19.9566605 C55.7896857,20.1646419 55.5222851,20.2933904 55.2251688,20.3429098 C54.9280525,20.3924291 54.621037,20.3726217 54.304113,20.2834868 C53.9871889,20.1943519 53.6900771,20.0309404 53.4127686,19.7932474 C53.2741143,19.6545931 53.1701252,19.4169037 53.100798,19.0801719 C53.0314709,18.7434401 52.9869041,18.3869059 52.9670964,18.0105586 C52.9472886,17.5747881 52.9472886,17.1093129 52.9670964,16.6141191 L52.9670964,15.0691222 C52.9670964,14.4352741 52.9621445,13.7766762 52.9522406,13.0933088 C52.9423368,12.4099413 52.9373849,11.7612472 52.9373849,11.1472069 L52.9373849,9.69134438 L51.6003683,9.6616329 Z M63.0689994,10.4638428 C63.0689994,10.5430739 63.0789031,10.5183145 63.0987109,10.3895641 C63.1185186,10.2608138 63.1086149,10.0280762 63.0689994,9.69134438 C62.7520754,9.51307462 62.5044822,9.28528888 62.3262124,9.00798036 C62.1479426,8.73067183 62.0439535,8.43356 62.0142419,8.11663597 C61.9845302,7.79971194 62.0439526,7.49764825 62.1925107,7.21043585 C62.3410689,6.92322345 62.5837102,6.68058212 62.920442,6.4825046 C63.3760203,6.22500383 63.8761585,6.17548519 64.4208717,6.33394721 C64.9655849,6.49240922 65.4360119,6.73009868 65.832167,7.04702271 C66.3273608,6.67067543 66.8423546,6.35375615 67.3771639,6.09625537 C67.9119732,5.8387546 68.4566782,5.66543937 69.0112953,5.57630448 C69.5659123,5.4871696 70.1304248,5.50202519 70.7048496,5.6208717 C71.2792744,5.73971821 71.8437869,5.9873114 72.3984039,6.36365869 C72.6757125,6.54192845 72.9332094,6.76476232 73.1709024,7.03216697 C73.4085954,7.29957163 73.5571513,7.60163531 73.6165746,7.9383671 C73.7156133,8.4335609 73.6759984,8.86437304 73.4977287,9.23081645 C73.3194589,9.59725986 73.0718657,9.8646605 72.7549417,10.0330264 C72.4380177,10.2013923 72.0814835,10.2509109 71.6853284,10.1815838 C71.2891734,10.1122567 70.9128317,9.89932652 70.5562922,9.54278699 C70.4374457,9.46355598 70.353264,9.39918175 70.3037446,9.34966237 C70.2542252,9.30014299 70.1502361,9.23576876 69.9917741,9.15653775 C69.6748501,9.07730675 69.3628826,9.0971142 69.0558625,9.21596071 C68.7488423,9.33480722 68.4517305,9.49821873 68.1645181,9.70620012 C67.8773057,9.91418152 67.6099051,10.1419672 67.3623082,10.3895641 L66.6937999,11.0580724 L66.6937999,18.6344997 C66.6937999,18.931616 66.6343775,19.2188241 66.515531,19.4961326 C66.3372612,19.9517109 66.055005,20.2686302 65.6687538,20.4468999 C65.2825027,20.6251697 64.8962573,20.6746883 64.5100061,20.5954573 C64.123755,20.5162263 63.7870282,20.3181518 63.4998158,20.0012277 C63.2126034,19.6843037 63.0689994,19.2782509 63.0689994,18.7830571 L63.0689994,10.4638428 Z M85.352609,15.5742173 C85.827995,15.4553708 86.2489034,15.4504189 86.6153468,15.5593616 C86.9817903,15.6683042 87.2640465,15.8515232 87.462124,16.1090239 C87.6602015,16.3665247 87.7493351,16.683444 87.7295273,17.0597913 C87.7097196,17.4361386 87.5413562,17.8322877 87.2244322,18.2482505 C86.9669314,18.5849822 86.6103972,18.8721903 86.1548189,19.1098834 C85.6992406,19.3475764 85.2733803,19.5357472 84.8772253,19.6744015 C83.9066454,20.030941 82.9855988,20.2785342 82.1140577,20.4171885 C81.2425166,20.5558427 80.4254591,20.5558427 79.6628607,20.4171885 C78.9002622,20.2785342 78.1871938,19.9913261 77.5236341,19.5555556 C76.8600744,19.119785 76.2410915,18.5057539 75.6666667,17.7134438 C75.2705116,17.1786345 74.9783517,16.5695553 74.790178,15.8861878 C74.6020044,15.2028204 74.4980152,14.5046076 74.4782075,13.7915285 C74.4583997,13.0784495 74.5178221,12.3752848 74.6564764,11.6820135 C74.7951306,10.9887422 74.9932052,10.3648074 75.250706,9.8101903 C75.5874377,9.11691898 76.122239,8.48308042 76.8551258,7.90865562 C77.5880127,7.33423081 78.4001183,6.87865935 79.2914672,6.54192756 C80.182816,6.20519578 81.0939589,6.01207309 82.0249233,5.96255371 C82.9558876,5.91303433 83.777897,6.05663838 84.4909761,6.39337017 C85.0852086,6.67067869 85.5952506,7.07177966 86.0211172,7.59668508 C86.4469839,8.12159051 86.7391439,8.69105484 86.8976059,9.30509515 C87.0560679,9.91913546 87.0709235,10.5381184 86.9421731,11.1620626 C86.8134227,11.7860068 86.4915516,12.3554711 85.97655,12.8704727 C85.4813562,13.3656665 84.9366512,13.7667674 84.3424187,14.0737876 C83.7481861,14.3808078 83.134155,14.6482084 82.5003069,14.8759975 C81.8664589,15.1037867 81.2177647,15.2969094 80.554205,15.4553714 C79.8906453,15.6138334 79.2518549,15.7921005 78.6378146,15.990178 C79.0537774,16.4655641 79.5291563,16.7676278 80.0639656,16.8963781 C80.5987749,17.0251285 81.1583355,17.0498879 81.7426642,16.9706568 C82.3269929,16.8914258 82.9162647,16.7280143 83.5104972,16.4804174 C84.1047298,16.2328205 84.6593385,15.960468 85.1743401,15.6633517 L85.352609,15.5742173 Z M79.3508901,10.4638428 C78.8953118,10.7213436 78.5585851,11.0432148 78.3406998,11.4294659 C78.1228145,11.8157171 77.9643549,12.3554702 77.8653161,13.0487416 C78.3803177,12.8902795 78.9596858,12.7219162 79.6034377,12.5436464 C80.2471896,12.3653766 80.8562689,12.1772058 81.4306937,11.9791283 C82.0051185,11.7810508 82.4904011,11.5631688 82.8865562,11.3254758 C83.2827112,11.0877827 83.4807858,10.8302858 83.4807858,10.5529773 C83.4807858,10.3945153 83.4560264,10.2410075 83.4065071,10.0924494 C83.3569877,9.94389122 83.2529985,9.83990208 83.0945365,9.78047882 C82.5399195,9.5824013 81.9655033,9.54278639 81.3712707,9.6616329 C80.7770382,9.78047942 80.2818518,9.94884278 79.8856967,10.1667281 L79.3508901,10.4638428 Z M102.288152,18.2482505 C102.446614,18.8226753 102.416903,19.2980542 102.199018,19.6744015 C101.981133,20.0507488 101.679069,20.3032938 101.292818,20.4320442 C100.906567,20.5607946 100.485658,20.545939 100.03008,20.387477 C99.5745015,20.229015 99.1783524,19.9120957 98.8416206,19.4367096 C98.2870036,19.8526724 97.7472504,20.1448324 97.222345,20.3131983 C96.6974396,20.4815642 96.0982641,20.5756496 95.4248005,20.5954573 C94.4146051,20.6350728 93.5133659,20.52118 92.7210559,20.2537753 C91.9287458,19.9863707 91.2602442,19.5852697 90.715531,19.0504604 C90.1708178,18.5156511 89.7697169,17.8471495 89.5122161,17.0449355 C89.2547153,16.2427216 89.1655818,15.3167231 89.2448128,14.2669122 C89.2844283,13.8311417 89.3587062,13.4052814 89.4676489,12.9893186 C89.5765915,12.5733558 89.7003881,12.167303 89.8390424,11.7711479 C89.9975044,11.3353774 90.2203382,10.8699022 90.5075506,10.3747084 C90.794763,9.87951461 91.086923,9.45365433 91.3840393,9.09711479 C92.4536579,7.78980316 93.7906611,6.84894906 95.395089,6.27452425 C95.6723975,6.17548549 96.0487392,6.08635194 96.5241252,6.00712093 C96.9995113,5.92788993 97.4798421,5.89322688 97.965132,5.90313076 C98.4504219,5.91303463 98.9158971,5.97740886 99.3615715,6.09625537 C99.8072459,6.21510188 100.139021,6.42308016 100.356906,6.72019644 C100.535176,6.95788946 100.663924,7.16586774 100.743155,7.34413751 C100.822386,7.52240728 100.866953,7.7105781 100.876857,7.90865562 C100.886761,8.10673314 100.886761,8.31966328 100.876857,8.54745242 C100.866953,8.77524157 100.862001,9.0574978 100.862001,9.39422959 C100.862001,9.94884664 100.857049,10.4885998 100.847145,11.0135052 C100.837242,11.5384106 100.842193,12.0682601 100.862001,12.6030694 L100.862001,13.3012891 C100.862001,13.5885015 100.871905,13.8905652 100.891713,14.2074893 C100.91152,14.5244133 100.93628,14.826477 100.965991,15.1136894 C100.995703,15.4009018 101.04027,15.6336394 101.099693,15.8119091 L102.288152,18.2482505 Z M95.9893186,16.9112339 C96.2072039,16.7725796 96.4547971,16.6190718 96.7321056,16.450706 C97.0094141,16.2823401 97.2570073,16.0892174 97.4748926,15.8713321 C97.2966228,14.8215212 97.1926337,13.7717261 97.162922,12.7219153 C97.1332104,11.6721044 97.1381623,10.6124056 97.1777778,9.54278699 C96.2864289,9.701249 95.484227,10.0874944 94.7711479,10.7015347 C94.0580689,11.315575 93.5628825,12.0385471 93.285574,12.8704727 C93.1667275,13.2072045 93.0676902,13.5538349 92.9884592,13.9103745 C92.9092282,14.266914 92.879517,14.6135445 92.8993247,14.9502762 C92.9191325,15.4058545 93.0379772,15.787148 93.2558625,16.0941682 C93.4737478,16.4011884 93.7361965,16.633926 94.0432167,16.792388 C94.3502369,16.95085 94.6770599,17.0399835 95.0236955,17.0597913 C95.3703312,17.079599 95.6922023,17.0300804 95.9893186,16.9112339 Z" id="We-trea" fill="#36495E"></path>
                            <path d="M104.472058,13.2933794 L111.257548,13.2933794 L111.257548,20.0788692 C111.257548,20.3249663 111.455731,20.5231492 111.701828,20.5231492 L115.404655,20.5231492 C115.650752,20.5231492 115.848935,20.3249663 115.848935,20.0788692 L115.848935,13.2933794 L122.634425,13.2933794 C122.880522,13.2933794 123.078705,13.0951964 123.078705,12.8490993 L123.078705,9.14627219 C123.078705,8.90017507 122.880522,8.70199211 122.634425,8.70199211 L115.848935,8.70199211 L115.848935,1.9165023 C115.848935,1.67040518 115.650752,1.47222222 115.404655,1.47222222 L111.701828,1.47222222 C111.455731,1.47222222 111.257548,1.67040518 111.257548,1.9165023 L111.257548,8.70199211 L104.472058,8.70199211 C104.225961,8.70199211 104.027778,8.90017507 104.027778,9.14627219 L104.027778,12.8490993 C104.027778,13.0951964 104.225961,13.2933794 104.472058,13.2933794 Z" id="Path" stroke="#E0EBF7" stroke-width="0.5" fill="#FF4242"></path>
                        </g>
                    </g>
                </g>
            </g>
        </g>
    </g>
</svg>